<svg width="24" height="24" viewBox="0 0 24 24" fill="none" xmlns="http://www.w3.org/2000/svg">
<path d="M19.5 3.59961C19.7386 3.59965 19.968 3.69453 20.1367 3.86328L20.1963 3.92969C20.3274 4.08981 20.3994 4.29122 20.3994 4.5V15.75C20.3994 15.9887 20.3055 16.2179 20.1367 16.3867C19.968 16.5555 19.7386 16.6503 19.5 16.6504C19.2613 16.6504 19.0321 16.5555 18.8633 16.3867C18.6945 16.2179 18.5996 15.9887 18.5996 15.75V6.67188L5.13184 20.1396C4.9613 20.2985 4.73596 20.3849 4.50293 20.3809C4.2698 20.3767 4.04672 20.283 3.88184 20.1182C3.71694 19.9533 3.62325 19.7302 3.61914 19.4971C3.61505 19.264 3.70146 19.0387 3.86035 18.8682L3.86328 18.8643L3.96973 18.9697L3.86426 18.8643L17.3271 5.40039H8.25C8.01134 5.40039 7.78206 5.30545 7.61328 5.13672C7.4445 4.96794 7.34961 4.73869 7.34961 4.5C7.34961 4.26131 7.4445 4.03206 7.61328 3.86328L7.67969 3.80371C7.83981 3.67259 8.04122 3.59961 8.25 3.59961H19.5Z" fill="#FB610B" stroke="#FB610B" stroke-width="0.3"/>
</svg>
