<svg width="24" height="25" viewBox="0 0 24 25" fill="none" xmlns="http://www.w3.org/2000/svg">
<path d="M4 21.5V16.5C4 15.95 4.19583 15.4792 4.5875 15.0875C4.97917 14.6958 5.45 14.5 6 14.5H18C18.55 14.5 19.0208 14.6958 19.4125 15.0875C19.8042 15.4792 20 15.95 20 16.5V21.5H4ZM9 13.5C7.61667 13.5 6.4375 13.0125 5.4625 12.0375C4.4875 11.0625 4 9.88333 4 8.5C4 7.11667 4.4875 5.9375 5.4625 4.9625C6.4375 3.9875 7.61667 3.5 9 3.5H15C16.3833 3.5 17.5625 3.9875 18.5375 4.9625C19.5125 5.9375 20 7.11667 20 8.5C20 9.88333 19.5125 11.0625 18.5375 12.0375C17.5625 13.0125 16.3833 13.5 15 13.5H9ZM6 19.5H18V16.5H6V19.5ZM9 11.5H15C15.8333 11.5 16.5417 11.2083 17.125 10.625C17.7083 10.0417 18 9.33333 18 8.5C18 7.66667 17.7083 6.95833 17.125 6.375C16.5417 5.79167 15.8333 5.5 15 5.5H9C8.16667 5.5 7.45833 5.79167 6.875 6.375C6.29167 6.95833 6 7.66667 6 8.5C6 9.33333 6.29167 10.0417 6.875 10.625C7.45833 11.2083 8.16667 11.5 9 11.5ZM9 9.5C9.28333 9.5 9.52083 9.40417 9.7125 9.2125C9.90417 9.02083 10 8.78333 10 8.5C10 8.21667 9.90417 7.97917 9.7125 7.7875C9.52083 7.59583 9.28333 7.5 9 7.5C8.71667 7.5 8.47917 7.59583 8.2875 7.7875C8.09583 7.97917 8 8.21667 8 8.5C8 8.78333 8.09583 9.02083 8.2875 9.2125C8.47917 9.40417 8.71667 9.5 9 9.5ZM15 9.5C15.2833 9.5 15.5208 9.40417 15.7125 9.2125C15.9042 9.02083 16 8.78333 16 8.5C16 8.21667 15.9042 7.97917 15.7125 7.7875C15.5208 7.59583 15.2833 7.5 15 7.5C14.7167 7.5 14.4792 7.59583 14.2875 7.7875C14.0958 7.97917 14 8.21667 14 8.5C14 8.78333 14.0958 9.02083 14.2875 9.2125C14.4792 9.40417 14.7167 9.5 15 9.5Z" fill="black"/>
</svg>
