<svg id="visual" viewBox="0 0 960 150" width="960" height="150" xmlns="http://www.w3.org/2000/svg"
    xmlns:xlink="http://www.w3.org/1999/xlink" version="1.1">
    <path
        d="M0 13L16 17.2C32 21.3 64 29.7 96 43.8C128 58 160 78 192 72.8C224 67.7 256 37.3 288 31.5C320 25.7 352 44.3 384 54.3C416 64.3 448 65.7 480 56.8C512 48 544 29 576 30.7C608 32.3 640 54.7 672 56.3C704 58 736 39 768 37.7C800 36.3 832 52.7 864 53.8C896 55 928 41 944 34L960 27L960 151L944 151C928 151 896 151 864 151C832 151 800 151 768 151C736 151 704 151 672 151C640 151 608 151 576 151C544 151 512 151 480 151C448 151 416 151 384 151C352 151 320 151 288 151C256 151 224 151 192 151C160 151 128 151 96 151C64 151 32 151 16 151L0 151Z"
        fill="#fa7268"></path>
    <path
        d="M0 103L16 96.5C32 90 64 77 96 68.3C128 59.7 160 55.3 192 58.2C224 61 256 71 288 82.3C320 93.7 352 106.3 384 112.2C416 118 448 117 480 118.8C512 120.7 544 125.3 576 121.8C608 118.3 640 106.7 672 96.8C704 87 736 79 768 78.2C800 77.3 832 83.7 864 79.5C896 75.3 928 60.7 944 53.3L960 46L960 151L944 151C928 151 896 151 864 151C832 151 800 151 768 151C736 151 704 151 672 151C640 151 608 151 576 151C544 151 512 151 480 151C448 151 416 151 384 151C352 151 320 151 288 151C256 151 224 151 192 151C160 151 128 151 96 151C64 151 32 151 16 151L0 151Z"
        fill="#e34c67"></path>
    <path
        d="M0 92L16 93C32 94 64 96 96 98.3C128 100.7 160 103.3 192 108.5C224 113.7 256 121.3 288 123.2C320 125 352 121 384 120.3C416 119.7 448 122.3 480 119.5C512 116.7 544 108.3 576 101.8C608 95.3 640 90.7 672 92.3C704 94 736 102 768 110.5C800 119 832 128 864 129.8C896 131.7 928 126.3 944 123.7L960 121L960 151L944 151C928 151 896 151 864 151C832 151 800 151 768 151C736 151 704 151 672 151C640 151 608 151 576 151C544 151 512 151 480 151C448 151 416 151 384 151C352 151 320 151 288 151C256 151 224 151 192 151C160 151 128 151 96 151C64 151 32 151 16 151L0 151Z"
        fill="#c62368"></path>
</svg>