<svg id="visual" viewBox="0 0 960 150" width="960" height="150" xmlns="http://www.w3.org/2000/svg"
    xmlns:xlink="http://www.w3.org/1999/xlink" version="1.1">
    <path
        d="M0 45L16 51.5C32 58 64 71 96 84.5C128 98 160 112 192 119C224 126 256 126 288 111.3C320 96.7 352 67.3 384 63.5C416 59.7 448 81.3 480 83.7C512 86 544 69 576 54.2C608 39.3 640 26.7 672 30.2C704 33.7 736 53.3 768 64C800 74.7 832 76.3 864 83.3C896 90.3 928 102.7 944 108.8L960 115L960 151L944 151C928 151 896 151 864 151C832 151 800 151 768 151C736 151 704 151 672 151C640 151 608 151 576 151C544 151 512 151 480 151C448 151 416 151 384 151C352 151 320 151 288 151C256 151 224 151 192 151C160 151 128 151 96 151C64 151 32 151 16 151L0 151Z"
        fill="#fa7268"></path>
    <path
        d="M0 110L16 112.2C32 114.3 64 118.7 96 114.5C128 110.3 160 97.7 192 84.3C224 71 256 57 288 62C320 67 352 91 384 93C416 95 448 75 480 69.2C512 63.3 544 71.7 576 81.2C608 90.7 640 101.3 672 103.5C704 105.7 736 99.3 768 103.3C800 107.3 832 121.7 864 114C896 106.3 928 76.7 944 61.8L960 47L960 151L944 151C928 151 896 151 864 151C832 151 800 151 768 151C736 151 704 151 672 151C640 151 608 151 576 151C544 151 512 151 480 151C448 151 416 151 384 151C352 151 320 151 288 151C256 151 224 151 192 151C160 151 128 151 96 151C64 151 32 151 16 151L0 151Z"
        fill="#e34c67"></path>
    <path
        d="M0 127L16 121.3C32 115.7 64 104.3 96 98.3C128 92.3 160 91.7 192 95.7C224 99.7 256 108.3 288 117.3C320 126.3 352 135.7 384 139.2C416 142.7 448 140.3 480 130.8C512 121.3 544 104.7 576 102.5C608 100.3 640 112.7 672 111.2C704 109.7 736 94.3 768 95.7C800 97 832 115 864 122.3C896 129.7 928 126.3 944 124.7L960 123L960 151L944 151C928 151 896 151 864 151C832 151 800 151 768 151C736 151 704 151 672 151C640 151 608 151 576 151C544 151 512 151 480 151C448 151 416 151 384 151C352 151 320 151 288 151C256 151 224 151 192 151C160 151 128 151 96 151C64 151 32 151 16 151L0 151Z"
        fill="#c62368"></path>
</svg>