<svg id="visual" viewBox="0 0 960 150" width="960" height="150" xmlns="http://www.w3.org/2000/svg"
    xmlns:xlink="http://www.w3.org/1999/xlink" version="1.1">
    <path
        d="M0 47L16 41.2C32 35.3 64 23.7 96 24.7C128 25.7 160 39.3 192 50.8C224 62.3 256 71.7 288 69C320 66.3 352 51.7 384 44.2C416 36.7 448 36.3 480 43.5C512 50.7 544 65.3 576 72.7C608 80 640 80 672 68.5C704 57 736 34 768 27.8C800 21.7 832 32.3 864 50C896 67.7 928 92.3 944 104.7L960 117L960 151L944 151C928 151 896 151 864 151C832 151 800 151 768 151C736 151 704 151 672 151C640 151 608 151 576 151C544 151 512 151 480 151C448 151 416 151 384 151C352 151 320 151 288 151C256 151 224 151 192 151C160 151 128 151 96 151C64 151 32 151 16 151L0 151Z"
        fill="#fa7268"></path>
    <path
        d="M0 91L16 86.2C32 81.3 64 71.7 96 79C128 86.3 160 110.7 192 121.2C224 131.7 256 128.3 288 118.5C320 108.7 352 92.3 384 92.3C416 92.3 448 108.7 480 112.7C512 116.7 544 108.3 576 104.5C608 100.7 640 101.3 672 98.2C704 95 736 88 768 79.2C800 70.3 832 59.7 864 54.3C896 49 928 49 944 49L960 49L960 151L944 151C928 151 896 151 864 151C832 151 800 151 768 151C736 151 704 151 672 151C640 151 608 151 576 151C544 151 512 151 480 151C448 151 416 151 384 151C352 151 320 151 288 151C256 151 224 151 192 151C160 151 128 151 96 151C64 151 32 151 16 151L0 151Z"
        fill="#e34c67"></path>
    <path
        d="M0 144L16 133.2C32 122.3 64 100.7 96 92.2C128 83.7 160 88.3 192 97C224 105.7 256 118.3 288 124.2C320 130 352 129 384 124.2C416 119.3 448 110.7 480 113C512 115.3 544 128.7 576 133.7C608 138.7 640 135.3 672 131C704 126.7 736 121.3 768 120C800 118.7 832 121.3 864 120.7C896 120 928 116 944 114L960 112L960 151L944 151C928 151 896 151 864 151C832 151 800 151 768 151C736 151 704 151 672 151C640 151 608 151 576 151C544 151 512 151 480 151C448 151 416 151 384 151C352 151 320 151 288 151C256 151 224 151 192 151C160 151 128 151 96 151C64 151 32 151 16 151L0 151Z"
        fill="#c62368"></path>
</svg>