<svg id="visual" viewBox="0 0 960 150" width="960" height="150" xmlns="http://www.w3.org/2000/svg"
    xmlns:xlink="http://www.w3.org/1999/xlink" version="1.1">
    <path
        d="M0 102L14.5 86.2C29 70.3 58 38.7 87.2 35.3C116.3 32 145.7 57 174.8 58.2C204 59.3 233 36.7 262 38.8C291 41 320 68 349 74C378 80 407 65 436.2 63.2C465.3 61.3 494.7 72.7 523.8 83.7C553 94.7 582 105.3 611 104C640 102.7 669 89.3 698 81.3C727 73.3 756 70.7 785.2 59.7C814.3 48.7 843.7 29.3 872.8 40.7C902 52 931 94 945.5 115L960 136L960 151L945.5 151C931 151 902 151 872.8 151C843.7 151 814.3 151 785.2 151C756 151 727 151 698 151C669 151 640 151 611 151C582 151 553 151 523.8 151C494.7 151 465.3 151 436.2 151C407 151 378 151 349 151C320 151 291 151 262 151C233 151 204 151 174.8 151C145.7 151 116.3 151 87.2 151C58 151 29 151 14.5 151L0 151Z"
        fill="#fa7268"></path>
    <path
        d="M0 135L14.5 122.2C29 109.3 58 83.7 87.2 77.8C116.3 72 145.7 86 174.8 85.3C204 84.7 233 69.3 262 63.2C291 57 320 60 349 68.7C378 77.3 407 91.7 436.2 89C465.3 86.3 494.7 66.7 523.8 70.3C553 74 582 101 611 102.2C640 103.3 669 78.7 698 67.8C727 57 756 60 785.2 71.7C814.3 83.3 843.7 103.7 872.8 109.3C902 115 931 106 945.5 101.5L960 97L960 151L945.5 151C931 151 902 151 872.8 151C843.7 151 814.3 151 785.2 151C756 151 727 151 698 151C669 151 640 151 611 151C582 151 553 151 523.8 151C494.7 151 465.3 151 436.2 151C407 151 378 151 349 151C320 151 291 151 262 151C233 151 204 151 174.8 151C145.7 151 116.3 151 87.2 151C58 151 29 151 14.5 151L0 151Z"
        fill="#e34c67"></path>
    <path
        d="M0 119L14.5 119.2C29 119.3 58 119.7 87.2 123.7C116.3 127.7 145.7 135.3 174.8 137.2C204 139 233 135 262 126.8C291 118.7 320 106.3 349 104.7C378 103 407 112 436.2 114.8C465.3 117.7 494.7 114.3 523.8 112.5C553 110.7 582 110.3 611 115C640 119.7 669 129.3 698 128.2C727 127 756 115 785.2 112.8C814.3 110.7 843.7 118.3 872.8 120.8C902 123.3 931 120.7 945.5 119.3L960 118L960 151L945.5 151C931 151 902 151 872.8 151C843.7 151 814.3 151 785.2 151C756 151 727 151 698 151C669 151 640 151 611 151C582 151 553 151 523.8 151C494.7 151 465.3 151 436.2 151C407 151 378 151 349 151C320 151 291 151 262 151C233 151 204 151 174.8 151C145.7 151 116.3 151 87.2 151C58 151 29 151 14.5 151L0 151Z"
        fill="#c62368"></path>
</svg>