<svg width="609" height="59" viewBox="0 0 609 59" fill="none" xmlns="http://www.w3.org/2000/svg">
<path fill-rule="evenodd" clip-rule="evenodd" d="M567.49 51.6811V36.2148H578.468L579.788 45.3746C580.738 45.8563 581.748 46.2531 582.821 46.5636C584.302 46.9925 585.941 47.2188 587.752 47.2188C589.807 47.2188 591.351 46.9092 592.488 46.417C593.702 45.8778 594.479 45.2115 594.981 44.4801C595.472 43.7635 595.756 42.8915 595.756 41.7461C595.756 40.6742 595.507 39.8569 595.09 39.1921C594.716 38.5957 593.964 37.8717 592.534 37.1375L592.512 37.1263L592.491 37.1148C591.109 36.3768 589.053 35.653 586.205 35.0028L586.199 35.0013L586.192 34.9996C582.479 34.1333 579.224 32.9576 576.482 31.4287L576.467 31.4203L576.452 31.4118C573.707 29.839 571.481 27.8686 569.909 25.4524L569.898 25.4349L569.887 25.4172C568.316 22.9276 567.561 20.1128 567.561 17.0664C567.561 13.8359 568.421 10.8599 570.174 8.23043L570.18 8.22088L570.187 8.21138C571.943 5.61977 574.352 3.62361 577.31 2.19934C580.321 0.749662 583.735 0.0742188 587.471 0.0742188C591.355 0.0742188 594.907 0.669817 598.068 1.93756C601.069 3.10883 603.656 4.57976 605.75 6.39896L606.783 7.29599V21.8945H595.843L594.481 13.3095C593.877 12.946 593.154 12.6045 592.295 12.2969C591.149 11.8864 589.571 11.6289 587.471 11.6289C585.86 11.6289 584.575 11.9156 583.541 12.4L583.524 12.4082L583.506 12.4162C582.459 12.8907 581.738 13.5102 581.234 14.2521C580.769 14.9368 580.487 15.7974 580.487 16.9609C580.487 17.8923 580.711 18.5736 581.079 19.121C581.469 19.669 582.235 20.3473 583.644 21.0451C585.132 21.7458 587.225 22.4584 589.992 23.1562C595.663 24.5624 600.28 26.7199 603.554 29.823C606.951 32.9956 608.682 37.0119 608.682 41.6758C608.682 44.9913 607.778 48.0319 605.934 50.6959L605.929 50.7023L605.925 50.7087C604.093 53.3259 601.548 55.3019 598.43 56.6858C595.292 58.0884 591.706 58.7383 587.752 58.7383C584.337 58.7383 581.031 58.2368 577.845 57.2269C574.637 56.2095 571.598 54.6518 568.732 52.5793L567.49 51.6811ZM597.209 53.9453C599.905 52.75 601.99 51.0977 603.467 48.9883C604.944 46.8555 605.682 44.418 605.682 41.6758C605.682 37.832 604.287 34.6094 601.498 32.0078C598.733 29.3828 594.655 27.4023 589.264 26.0664C586.381 25.3398 584.073 24.5664 582.338 23.7461C580.627 22.9023 579.385 21.9297 578.612 20.8281C577.862 19.7266 577.487 18.4375 577.487 16.9609C577.487 15.2734 577.908 13.8086 578.752 12.5664C579.596 11.3242 580.768 10.3633 582.268 9.68359C583.768 8.98047 585.502 8.62891 587.471 8.62891C589.791 8.62891 591.737 8.91016 593.307 9.47266C594.877 10.0352 596.19 10.7383 597.244 11.582L598.405 18.8945H603.783V8.66406C602.002 7.11719 599.729 5.80469 596.963 4.72656C594.221 3.625 591.057 3.07422 587.471 3.07422C584.096 3.07422 581.143 3.68359 578.612 4.90234C576.08 6.12109 574.1 7.78516 572.67 9.89453C571.264 12.0039 570.561 14.3945 570.561 17.0664C570.561 19.5977 571.182 21.8477 572.424 23.8164C573.69 25.7617 575.53 27.4258 577.944 28.8086C580.381 30.168 583.358 31.2578 586.873 32.0781C589.85 32.7578 592.194 33.5547 593.905 34.4688C595.639 35.3594 596.881 36.4023 597.631 37.5977C598.381 38.793 598.756 40.1758 598.756 41.7461C598.756 43.4336 598.323 44.9102 597.455 46.1758C596.588 47.4414 595.334 48.4375 593.694 49.1641C592.076 49.8672 590.096 50.2188 587.752 50.2188C585.69 50.2188 583.768 49.9609 581.987 49.4453C580.205 48.9297 578.553 48.2031 577.03 47.2656L575.869 39.2148H570.49V50.1484C573.115 52.0469 575.869 53.4531 578.752 54.3672C581.635 55.2812 584.635 55.7383 587.752 55.7383C591.385 55.7383 594.537 55.1406 597.209 53.9453Z" fill="black"/>
<path fill-rule="evenodd" clip-rule="evenodd" d="M527.889 58V48.0417L533.62 47.0573V12.0508H527.618L526.598 19.1523H515.795V0.8125H564.334V19.1523H553.614L552.559 12.0508H546.545V47.0573L552.276 48.0417V58H527.889ZM543.545 49.5859V9.05078H555.147L556.202 16.1523H561.334V3.8125H518.795V16.1523H523.998L525.018 9.05078H536.62V49.5859L530.889 50.5703V55H549.276V50.5703L543.545 49.5859Z" fill="black"/>
<path fill-rule="evenodd" clip-rule="evenodd" d="M457.21 58V48.0417L462.94 47.0573V11.7903L457.21 10.8059V0.8125H474.593L495.249 33.6472V11.8289L488.956 10.8446V0.8125H513.342V10.8059L507.612 11.7903V58H496.645L475.303 24.7787V47.0187L481.596 48.0031V58H457.21ZM472.303 49.5859V14.957L472.514 14.8867L498.284 55H504.612V9.26172L510.342 8.27734V3.8125H491.956V8.27734L498.249 9.26172V43.6445L498.038 43.7148L472.936 3.8125H460.21V8.27734L465.94 9.26172V49.5859L460.21 50.5703V55H478.596V50.5703L472.303 49.5859Z" fill="black"/>
<path fill-rule="evenodd" clip-rule="evenodd" d="M409.065 58V48.0417L414.796 47.0573V11.7903L409.065 10.8059V0.8125H452.964V19.1172H441.724L440.95 12.1562H427.721V22.8203H446.6V34.2695H427.721V46.7969H442.071L442.844 39.7305H454.053V58H409.065ZM444.76 49.7969H424.721V31.2695H443.6V25.8203H424.721V9.15625H443.635L444.409 16.1172H449.964V3.8125H412.065V8.27734L417.796 9.26172V49.5859L412.065 50.5703V55H451.053V42.7305H445.534L444.76 49.7969Z" fill="black"/>
<path fill-rule="evenodd" clip-rule="evenodd" d="M337.682 58V48.0417L343.413 47.0573V11.7903L337.682 10.8059V0.8125H357.645L372.21 35.1282L386.308 0.8125H406.753V10.8059L401.022 11.7903V47.0573L406.753 48.0417V58H382.366V48.0192L388.413 47.0348V27.822L376.609 56.1719H368.029L355.802 27.8168L355.882 34.7328V47.0255L362.069 48.0099V58H337.682ZM352.882 49.5859V34.75L352.636 13.3398L352.811 13.3047L370.003 53.1719H374.608L391.237 13.2344L391.413 13.2695V49.5859L385.366 50.5703V55H403.753V50.5703L398.022 49.5859V9.26172L403.753 8.27734V3.8125H388.319L372.358 42.6602H372.147L355.659 3.8125H340.682V8.27734L346.413 9.26172V49.5859L340.682 50.5703V55H359.069V50.5703L352.882 49.5859Z" fill="black"/>
<path fill-rule="evenodd" clip-rule="evenodd" d="M289.151 58V48.0417L294.882 47.0573V11.7903L289.151 10.8059V0.8125H333.05V19.1172H321.81L321.037 12.1562H307.808V22.8203H326.687V34.2695H307.808V46.7969H322.157L322.931 39.7305H334.14V58H289.151ZM324.847 49.7969H304.808V31.2695H323.687V25.8203H304.808V9.15625H323.722L324.495 16.1172H330.05V3.8125H292.151V8.27734L297.882 9.26172V49.5859L292.151 50.5703V55H331.14V42.7305H325.62L324.847 49.7969Z" fill="black"/>
<path fill-rule="evenodd" clip-rule="evenodd" d="M255.562 58L238.304 11.5666L233.413 10.892V0.8125H255.585V10.8408L251.935 11.4171L260.732 36.405L269.83 11.4543L265.722 10.8992V0.8125H287.859V10.895L282.932 11.5688L265.675 58H255.562ZM280.745 8.83984L284.859 8.27734V3.8125H268.722V8.27734L273.925 8.98047L262.042 41.5703L260.777 45.6133H260.566L259.37 41.5703L247.909 9.01562L252.585 8.27734V3.8125H236.413V8.27734L240.491 8.83984L257.648 55H263.589L280.745 8.83984Z" fill="black"/>
<path fill-rule="evenodd" clip-rule="evenodd" d="M185.902 58V48.0417L191.632 47.0573V11.7903L185.902 10.8059V0.8125H229.8V19.1172H218.56L217.787 12.1562H204.558V22.8203H223.437V34.2695H204.558V46.7969H218.907L219.681 39.7305H230.89V58H185.902ZM221.597 49.7969H201.558V31.2695H220.437V25.8203H201.558V9.15625H220.472L221.245 16.1172H226.8V3.8125H188.902V8.27734L194.632 9.26172V49.5859L188.902 50.5703V55H227.89V42.7305H222.37L221.597 49.7969Z" fill="black"/>
<path fill-rule="evenodd" clip-rule="evenodd" d="M159.625 58V48.0417L165.355 47.0573V11.7903L159.625 10.8059V0.8125H184.011V10.8059L178.281 11.7903V47.0573L184.011 48.0417V58H159.625ZM175.281 49.5859V9.26172L181.011 8.27734V3.8125H162.625V8.27734L168.355 9.26172V49.5859L162.625 50.5703V55H181.011V50.5703L175.281 49.5859Z" fill="black"/>
<path fill-rule="evenodd" clip-rule="evenodd" d="M101.988 58V48.0417L107.718 47.0573V11.7903L101.988 10.8059V0.8125H126.375V10.8059L120.644 11.7903V23.9453H139.113V11.7903L133.383 10.8059V0.8125H157.769V10.8059L152.039 11.7903V47.0573L157.769 48.0417V58H133.383V48.0417L139.113 47.0573V35.3945H120.644V47.0573L126.375 48.0417V58H101.988ZM117.644 49.5859V32.3945H142.113V49.5859L136.383 50.5703V55H154.769V50.5703L149.039 49.5859V9.26172L154.769 8.27734V3.8125H136.383V8.27734L142.113 9.26172V26.9453H117.644V9.26172L123.375 8.27734V3.8125H104.988V8.27734L110.718 9.26172V49.5859L104.988 50.5703V55H123.375V50.5703L117.644 49.5859Z" fill="black"/>
<path fill-rule="evenodd" clip-rule="evenodd" d="M66.1017 54.8751L66.0938 54.87C62.1682 52.2887 59.2214 48.7481 57.2649 44.3326L57.2618 44.3257L57.2588 44.3188C55.3574 39.969 54.4413 35.1084 54.4413 29.793V29.0547C54.4413 23.6775 55.4097 18.7827 57.4255 14.4357C59.4471 10.0528 62.3893 6.52932 66.2537 3.95307C70.1948 1.3257 74.8264 0.0742188 80.0116 0.0742188C83.6311 0.0742188 87.0177 0.639706 90.1379 1.81309C93.1496 2.94572 95.7578 4.42873 97.888 6.30993L98.9022 7.20556V22.5977H87.6441L86.7881 13.2224C86.5201 13.0786 86.2304 12.9428 85.9172 12.816L85.9055 12.8112L85.8938 12.8064C85.1649 12.5042 84.3018 12.2545 83.2871 12.0754L83.277 12.0737C82.3059 11.8988 81.2088 11.8047 79.9764 11.8047C77.1667 11.8047 74.9878 12.5212 73.2647 13.8092L73.2569 13.815L73.249 13.8208C71.4375 15.1566 70.0007 17.0419 68.985 19.6108C67.9552 22.2156 67.4022 25.321 67.4022 28.9844V29.793C67.4022 33.7934 67.9931 37.0448 69.0658 39.6332C70.1518 42.1746 71.6536 43.9819 73.5271 45.2084C75.412 46.4273 77.8049 47.1133 80.8553 47.1133C82.2503 47.1133 83.6078 46.9442 84.9339 46.6078C85.6404 46.4285 86.2482 46.2307 86.7675 46.0221L87.6551 37.832H98.7616V53.6085L97.346 54.4889C95.1129 55.8778 92.5181 56.9217 89.6105 57.6613L89.5985 57.6644L89.5865 57.6673C86.6733 58.3828 83.6789 58.7383 80.6092 58.7383C75.038 58.7383 70.1429 57.5142 66.1017 54.8751ZM89.5741 47.9688C88.5428 48.6016 87.242 49.1172 85.6717 49.5156C84.1014 49.9141 82.4959 50.1133 80.8553 50.1133C77.3397 50.1133 74.3514 49.3164 71.8905 47.7227C69.453 46.1289 67.5897 43.8203 66.3006 40.7969C65.035 37.75 64.4022 34.082 64.4022 29.793V28.9844C64.4022 25.0234 64.9998 21.5312 66.1952 18.5078C67.3905 15.4844 69.1483 13.1172 71.4686 11.4062C73.7889 9.67188 76.6249 8.80469 79.9764 8.80469C81.3592 8.80469 82.6366 8.91016 83.8084 9.12109C85.0038 9.33203 86.0819 9.63672 87.0428 10.0352C88.0272 10.4336 88.8944 10.9258 89.6444 11.5117L90.3827 19.5977H95.9022V8.55859C94.0975 6.96484 91.8241 5.65234 89.0819 4.62109C86.3397 3.58984 83.3163 3.07422 80.0116 3.07422C75.3241 3.07422 71.2928 4.19922 67.9178 6.44922C64.5428 8.69922 61.953 11.7812 60.1483 15.6953C58.3436 19.5859 57.4413 24.0391 57.4413 29.0547V29.793C57.4413 34.7617 58.2967 39.2031 60.0077 43.1172C61.742 47.0312 64.3202 50.1133 67.742 52.3633C71.1874 54.6133 75.4764 55.7383 80.6092 55.7383C83.4452 55.7383 86.1991 55.4102 88.8709 54.7539C91.5428 54.0742 93.8397 53.1367 95.7616 51.9414V40.832H90.3475L89.5741 47.9688Z" fill="black"/>
<path fill-rule="evenodd" clip-rule="evenodd" d="M0.460938 58V47.9582L5.09712 47.3143L23.0967 0.8125H33.1626L50.8454 47.3183L55.4336 47.9615V58H34.7383V48.0441L37.5775 47.5537L36.1184 43.4805H19.8243L18.3174 47.5598L21.1211 48.0441V58H0.460938ZM14.2539 49.9023L17.7344 40.4805H38.2305L41.6055 49.9023L37.7383 50.5703V55H52.4336V50.5703L48.6719 50.043L31.0938 3.8125H25.1523L7.25781 50.043L3.46094 50.5703V55H18.1211V50.5703L14.2539 49.9023ZM19.8789 34.6797H36.1211L28.5977 13.8672L28.1758 12.707H27.9648L27.543 13.8672L19.8789 34.6797ZM28.0491 21.1743L24.1806 31.6797H31.8466L28.0491 21.1743Z" fill="black"/>
</svg>
