<?xml version="1.0" encoding="UTF-8"?>
<svg xmlns="http://www.w3.org/2000/svg" xmlns:xlink="http://www.w3.org/1999/xlink" width="4000" height="2000" viewBox="0 0 4000 2000">
<path fill-rule="evenodd" fill="rgb(100%, 100%, 100%)" fill-opacity="1" d="M 4036.980469 214.570312 C 3985.039062 255.339844 3928.5 292.328125 3863.46875 311.890625 C 3826.609375 322.988281 3762.800781 325.871094 3732.101562 347.511719 C 3727.25 350.929688 3742.660156 360.191406 3732.351562 365.679688 C 3710.46875 377.339844 3682.199219 383.578125 3658.238281 387.980469 C 3612.070312 396.460938 3566.628906 402.980469 3519.558594 403.640625 C 3505.589844 403.828125 3491.621094 404.761719 3477.71875 403.191406 C 3469.570312 402.269531 3449.46875 392.871094 3453.320312 400.101562 C 3467.871094 427.398438 3448.941406 424.460938 3418.671875 423.558594 C 3355.339844 421.699219 3288.539062 391.191406 3224.359375 397.300781 C 3208.261719 398.828125 3219.011719 414.308594 3208 416.558594 C 3194.71875 419.269531 3181.960938 410.050781 3169.378906 413.839844 C 3128.699219 426.078125 3089.980469 440.328125 3043.738281 442.519531 C 2981.710938 445.449219 2992.910156 393.550781 2929.53125 405.179688 C 2745.320312 439.011719 2563.070312 482.589844 2372.789062 482.75 C 2316.011719 482.789062 2249.960938 488.878906 2198.089844 461.011719 C 2198.089844 461.011719 2186.480469 456.511719 2188.039062 453.601562 C 2190.398438 449.210938 2309.480469 452.488281 2377.179688 441.019531 C 2417.828125 434.128906 2591.109375 405.058594 2615.058594 382.480469 C 2633.25 365.328125 2617.578125 337.898438 2652.921875 330.679688 C 2668.941406 327.410156 2685.890625 328.359375 2700.148438 336.019531 C 2705.878906 339.101562 2715.011719 349.378906 2718.089844 343.660156 C 2724.441406 331.839844 2710.859375 313.480469 2733.480469 303.828125 C 2760.191406 292.449219 2855.949219 323.179688 2869.191406 308.628906 C 2874.820312 302.441406 2870.46875 295.171875 2879.21875 289.96875 C 2890.800781 283.070312 2925.351562 304.808594 2932.070312 292.320312 C 2934.761719 287.308594 2930.941406 288.679688 2929.070312 286.699219 C 2913.828125 270.53125 2892.21875 240.550781 2890.039062 217.621094 C 2883.191406 145.601562 2981.941406 97.621094 3039.988281 87.78125 C 3112.71875 75.449219 3195.570312 74.460938 3257.851562 118.691406 C 3286.050781 138.710938 3294.390625 165.378906 3293.429688 197.929688 C 3293.410156 198.441406 3288.851562 227.988281 3296.558594 225.671875 C 3305.429688 223 3313 202.46875 3327.378906 198.140625 C 3336.398438 195.429688 3345.410156 217.96875 3352.261719 211.511719 C 3363.03125 201.359375 3371.308594 181.128906 3387.988281 178.609375 C 3412.511719 174.890625 3429 207.648438 3457.21875 187.761719 C 3486.578125 167.058594 3421.128906 126.921875 3474.488281 110.859375 C 3501.058594 102.871094 3530.289062 94.761719 3555.910156 108.53125 C 3563.460938 112.578125 3574.089844 135.011719 3574.339844 126.449219 C 3576.46875 54.390625 3670.71875 111.789062 3715.761719 98.238281 C 3745.949219 89.148438 3755.859375 49.71875 3772.378906 26.449219 C 3829.300781 -53.710938 3949.699219 -46.050781 4035.71875 -38.441406 "/>
<path fill-rule="evenodd" fill="rgb(100%, 100%, 100%)" fill-opacity="1" d="M 1697.320312 532.050781 C 1505.171875 581.328125 1104.648438 559.25 909.59375 497.21875 C 828.925781 471.570312 693.777344 416.480469 613.808594 409.988281 C 591.652344 408.191406 633.484375 440.03125 611.257812 441.378906 C 518.222656 447.050781 411.496094 373.800781 321.058594 366.449219 C 315.519531 366 314.085938 378.261719 306.914062 378.46875 C 287.277344 379.050781 254.828125 378.988281 236.058594 375.339844 C 201.851562 368.710938 -57.40625 256.441406 -70.394531 241.148438 L -72.796875 238.320312 C -79.34375 211.648438 -64.703125 174.410156 -57.722656 150 C -48.25 116.871094 -49.777344 85.890625 -17.894531 65.011719 C 65.753906 10.210938 169.570312 190.96875 221.371094 231.929688 C 237.277344 244.511719 244.949219 200.089844 258.714844 209.949219 C 282.054688 226.660156 299.363281 225.320312 330.484375 234.210938 C 347.710938 239.140625 358.667969 264.160156 379.273438 265.828125 C 382.667969 266.109375 383.890625 264.339844 386.132812 262.441406 C 391.804688 257.621094 387.773438 234.71875 390.308594 227.21875 C 416.839844 148.761719 513.644531 118.78125 588.820312 134.058594 C 618.570312 140.101562 641.683594 150.929688 649.414062 182.429688 C 652.050781 193.171875 656.113281 207.699219 653.085938 218.289062 C 652.09375 221.761719 646.023438 228.25 649.617188 228.539062 C 664.894531 229.78125 738.480469 190.261719 727.398438 259.878906 C 726.710938 264.199219 715.878906 273.050781 718.699219 269.710938 C 726.8125 260.101562 730.414062 254.308594 743.734375 253.300781 C 780.1875 250.550781 752.617188 275.371094 759.074219 291.421875 C 761.328125 297.019531 772.953125 289.75 775.761719 296.730469 C 785.476562 320.871094 767.40625 332.859375 800.503906 348.78125 C 834.375 365.070312 845.566406 321.820312 868.324219 308.199219 C 900.378906 289.019531 906.582031 348.859375 923.6875 356.148438 C 936.285156 361.519531 935.199219 330.601562 944.976562 321.011719 C 964.410156 301.949219 989.527344 301.601562 1014.699219 305.609375 C 1047.148438 310.769531 1054.820312 335.128906 1062.78125 362.191406 C 1064.390625 367.660156 1065.480469 379.449219 1070.769531 377.320312 C 1098.441406 366.191406 1095.640625 341.820312 1132.511719 346.78125 C 1154.71875 349.769531 1221.519531 428.929688 1260.128906 445.378906 C 1386.808594 499.359375 1532 526.71875 1667.429688 537.730469 "/>
<path fill-rule="evenodd" fill="rgb(100%, 100%, 100%)" fill-opacity="1" d="M 2338.921875 376.488281 C 2262.601562 399.5 2007.230469 447.378906 1939.660156 431.910156 C 1930.390625 429.789062 1995.148438 410.539062 1970.140625 410.878906 C 1886.03125 412.011719 1800.789062 423.648438 1716.269531 426.878906 C 1623.058594 430.449219 1531.308594 425.03125 1440.230469 405.089844 C 1405.539062 397.5 1370.890625 388.011719 1339.808594 370.800781 C 1331.640625 366.28125 1316.191406 355.738281 1316.191406 355.738281 C 1316.191406 355.738281 1375.539062 367.261719 1405.199219 373.058594 C 1415.421875 375.058594 1441.359375 383.699219 1452.078125 376.96875 C 1466.070312 368.199219 1446.238281 335.578125 1469.609375 329.210938 C 1482.621094 325.660156 1489.398438 342.371094 1497.730469 341.058594 C 1521.71875 337.300781 1530.460938 299.988281 1560.320312 317.5 C 1573.519531 325.238281 1575.25 355.351562 1596.121094 354.410156 C 1619.011719 353.390625 1627.539062 326.148438 1650.621094 327.121094 C 1667.121094 327.808594 1686.179688 347.410156 1705.449219 349.789062 C 1765.25 357.179688 1819.671875 352.300781 1879.78125 345 C 1925.25 339.46875 2102.28125 302.25 2130.578125 309.460938 C 2152.039062 314.929688 2069.589844 353.75 2079.519531 358.730469 C 2143.738281 390.941406 2454.410156 314.421875 2525.628906 292.601562 "/>
</svg>
