<?xml version="1.0" encoding="UTF-8"?>
<svg xmlns="http://www.w3.org/2000/svg" xmlns:xlink="http://www.w3.org/1999/xlink" width="4000" height="2000" viewBox="0 0 4000 2000">
<path fill-rule="evenodd" fill="rgb(80.664062%, 91.014099%, 91.796875%)" fill-opacity="1" d="M 2668.640625 716.441406 C 2547.238281 721.148438 2448.039062 718.019531 2329.699219 680.988281 C 2309.910156 674.789062 2194.300781 607.21875 2191.539062 607.398438 C 2167.480469 608.941406 2153.628906 624.300781 2127.421875 617.390625 C 2076.230469 603.890625 1944.800781 517.210938 1911.160156 519.359375 C 1812.761719 525.648438 1708.910156 593.339844 1609.679688 623.03125 C 1579.679688 632 1547.941406 617.269531 1519.519531 624.871094 C 1503.890625 629.050781 1491.320312 642.070312 1475.699219 645.339844 C 1364.929688 668.460938 1284.269531 719.871094 1181.199219 766.21875 C 1153.109375 778.859375 1119.769531 783.761719 1093.050781 799.339844 C 1090.96875 800.550781 1079.898438 808.5 1079.988281 809.980469 C 1082.550781 849.988281 1359.660156 1000.726562 1403.550781 1020.863281 C 1476.078125 1054.128906 1569.53125 1078.585938 1650.660156 1079.632812 C 1874.171875 1082.511719 2506.460938 1000.027344 2662.570312 822.578125 Z M 1029.199219 823.171875 C 1004.960938 827.238281 968.375 824.148438 943.527344 820.410156 C 861.96875 808.160156 722.320312 727.171875 643.542969 689.351562 C 622.933594 679.460938 586.324219 688.921875 562.4375 682.808594 C 534.394531 675.648438 517.113281 656.390625 493.84375 642.109375 C 434.894531 605.910156 355.113281 616.058594 294.304688 582.601562 C 207.652344 534.910156 118.148438 489 33.292969 437.839844 C 18.832031 429.121094 -22.820312 385.378906 -45.746094 397.308594 C -62.941406 406.25 -58.007812 447.398438 -57.761719 462.820312 C -57.167969 499.660156 -44.386719 533.140625 -53.429688 569.878906 C -76.820312 664.941406 -137.203125 735.070312 -109.195312 839.921875 C -93.09375 900.199219 -6.027344 897.761719 38.351562 915.941406 C 295.75 1021.398438 647.34375 1050.5625 886.894531 873.578125 Z M 3308.691406 679.871094 C 3457.410156 715.988281 3504 607.179688 3613.101562 563.539062 C 3625 558.78125 3637.050781 570.859375 3649.039062 569.53125 C 3695.78125 564.339844 3752.789062 547.199219 3798.78125 536.589844 C 3878.691406 518.140625 3953.238281 478.339844 4032.378906 455.730469 C 4039.328125 453.738281 4138.660156 427.171875 4140.191406 431.769531 C 4143.441406 441.511719 4116.230469 580.609375 4116.230469 611.460938 C 4116.230469 656.46875 4141.378906 735.761719 4125.210938 776.171875 C 4065.660156 925.070312 3524.929688 863.019531 3412.441406 863.019531 L 3308.691406 679.871094 "/>
</svg>
