<?xml version="1.0" encoding="UTF-8"?>
<svg xmlns="http://www.w3.org/2000/svg" xmlns:xlink="http://www.w3.org/1999/xlink" width="4000" height="2000" viewBox="0 0 4000 2000">
<rect x="-400" y="-200" width="4800" height="2400" fill="rgb(91.014099%, 95.117188%, 92.381287%)" fill-opacity="1"/>
<path fill-rule="evenodd" fill="rgb(65.039062%, 83.984375%, 85.15625%)" fill-opacity="1" d="M 1746.308594 1349.183594 C 1744.558594 1350.46875 1739.171875 1360.042969 1738.328125 1361.566406 C 1736.621094 1364.699219 1726.160156 1403.726562 1723.378906 1403.222656 C 1716.878906 1402.042969 1723.929688 1385.574219 1717.910156 1384.480469 C 1714.78125 1383.914062 1707.210938 1409.761719 1705.300781 1413.25 C 1704.378906 1414.914062 1705.820312 1403.621094 1702.140625 1406.167969 C 1697.441406 1409.425781 1691.53125 1426.480469 1687.589844 1412.996094 C 1687.03125 1411.058594 1685.738281 1407.644531 1682.390625 1409.09375 C 1666.039062 1416.175781 1652.769531 1459.886719 1646.75 1475.097656 C 1646.03125 1476.910156 1642.738281 1482.109375 1640.898438 1482.910156 C 1632.03125 1486.75 1633.769531 1456.421875 1626.050781 1450.636719 C 1619.578125 1445.792969 1609.96875 1473.3125 1604.710938 1470.429688 C 1596.070312 1465.695312 1574.769531 1442.5625 1564.871094 1445.453125 C 1551.378906 1449.398438 1550.53125 1474.472656 1534.039062 1476.835938 C 1518.46875 1479.066406 1509.679688 1457.863281 1496.03125 1458.109375 C 1486.019531 1458.285156 1483.988281 1476.972656 1478.199219 1482.972656 C 1474.210938 1487.117188 1469.21875 1476.703125 1466.359375 1474.910156 C 1445.960938 1462.125 1440.320312 1520.511719 1433.710938 1532.582031 C 1431.230469 1537.113281 1411.199219 1516.882812 1401.300781 1523.742188 C 1386.578125 1533.941406 1381.300781 1571.398438 1377.371094 1574.121094 C 1373.160156 1577.042969 1359.289062 1570.691406 1358.238281 1573.609375 C 1344.960938 1610.605469 1359 1667.277344 1325.621094 1696.359375 C 1305.820312 1713.605469 1299.789062 1662.570312 1279.921875 1662.925781 C 1271.03125 1663.085938 1267.191406 1683.832031 1264.699219 1689.746094 C 1261.140625 1698.207031 1255.550781 1685.796875 1249.339844 1692.875 C 1243.519531 1699.515625 1240.96875 1720.40625 1230.488281 1723.46875 C 1224.660156 1725.171875 1223.839844 1716.421875 1222.019531 1713.058594 C 1194.71875 1662.523438 1163.300781 1724.109375 1152.910156 1727.144531 C 1149.210938 1728.226562 1144 1719.652344 1141.328125 1717.648438 C 1137.871094 1715.054688 1135.101562 1713.867188 1131.039062 1717.261719 C 1111.171875 1733.882812 1115.488281 1787.765625 1092.808594 1797.582031 C 1071.539062 1806.789062 1072.480469 1733.378906 1041.378906 1746.839844 C 1019.578125 1756.277344 1015.921875 1787.328125 995.453125 1796.1875 C 983.796875 1801.234375 979.078125 1782.148438 967.078125 1789.5625 C 936.511719 1808.445312 917.066406 1841.820312 886.148438 1860.65625 C 871.503906 1869.582031 850.6875 1869.199219 834.746094 1874.996094 C 808.765625 1884.4375 785.371094 1900.1875 759.140625 1908.605469 C 703.730469 1926.386719 618.855469 1904.136719 566.371094 1886.945312 C 485.980469 1860.613281 450.929688 1859.019531 411.832031 1768.695312 C 307.191406 1526.980469 450.453125 1469.429688 639.3125 1370.722656 C 872.664062 1248.769531 1154.261719 1291.722656 1405.761719 1295.320312 C 1479.199219 1296.371094 1551.289062 1324.242188 1625.210938 1324.777344 Z M 2678.910156 1472.417969 L 2479.03125 1527.828125 C 2466.238281 1519.113281 2463.628906 1534.792969 2476.660156 1540.988281 C 2485.988281 1545.429688 2512.101562 1538.089844 2517.539062 1543.503906 C 2526.621094 1552.542969 2513.429688 1576.257812 2528.25 1582.460938 C 2536.449219 1585.890625 2547.730469 1573.957031 2556.109375 1576.730469 C 2598.820312 1590.867188 2589.421875 1622.578125 2633.671875 1611.058594 C 2637.238281 1610.132812 2642.058594 1609.164062 2645.488281 1611.035156 C 2655.910156 1616.722656 2654.738281 1633.703125 2661.851562 1642.421875 C 2668.960938 1651.125 2713.148438 1686.015625 2722.191406 1685.996094 C 2739.898438 1685.960938 2760.199219 1652.835938 2779.308594 1660.835938 C 2796.148438 1667.886719 2781.839844 1705.988281 2799.03125 1715.363281 C 2819.148438 1726.34375 2855.96875 1684.171875 2876.011719 1699.136719 C 2900.621094 1717.515625 2895.28125 1763.550781 2921.300781 1778.65625 C 2944.378906 1792.058594 2988.550781 1765.394531 3018.140625 1771.363281 C 3032.851562 1774.328125 3061.160156 1778.476562 3074.160156 1785.183594 C 3089.480469 1793.085938 3090.089844 1819.472656 3110.148438 1823.851562 C 3166.410156 1836.121094 3201.078125 1759.796875 3255.109375 1775.824219 C 3283.539062 1784.257812 3307.78125 1803.714844 3337.628906 1809.433594 C 3378.21875 1817.207031 3577.71875 1782.285156 3606.109375 1751.929688 C 3633.839844 1722.285156 3649.25 1674.039062 3663.75 1637.230469 C 3682.359375 1589.96875 3683.71875 1536.375 3672.410156 1487.433594 C 3666.519531 1461.941406 3666.609375 1435.902344 3653.121094 1412.585938 C 3633.890625 1379.359375 3490.390625 1375.707031 3460.261719 1374.722656 C 3387.078125 1372.328125 3315.078125 1380.613281 3241.988281 1382.742188 C 3203.488281 1383.863281 3163.839844 1378.964844 3125.519531 1382.753906 C 3067.289062 1388.511719 3002.078125 1404.859375 2943.890625 1398.964844 L 2786.710938 1442.535156 C 2792.179688 1437.632812 2796.921875 1431.84375 2800.78125 1424.78125 C 2864.429688 1308.117188 2748.011719 1364.738281 2693.308594 1323.898438 L 2456.878906 1352.277344 C 2448.761719 1335.921875 2447.089844 1352.769531 2443.460938 1370.257812 C 2441.460938 1379.878906 2441.058594 1384.054688 2440.199219 1394.359375 C 2438.890625 1410.195312 2446.890625 1399.433594 2462.179688 1394.550781 C 2465.570312 1393.464844 2471.261719 1391.957031 2472.570312 1396.417969 C 2474.699219 1403.644531 2470.039062 1433.351562 2478.328125 1436.09375 C 2486.28125 1438.726562 2488.898438 1417.683594 2497.421875 1416.445312 C 2504.53125 1415.414062 2504.710938 1465.976562 2510.75 1461.777344 C 2530.691406 1447.90625 2526.589844 1473.746094 2550.230469 1477.992188 C 2558.699219 1479.515625 2564.609375 1466.226562 2574.308594 1469.4375 C 2591.46875 1475.117188 2636.789062 1475.425781 2678.910156 1472.417969 Z M 1746.308594 1349.183594 L 1746.839844 1349.292969 C 1746.789062 1348.988281 1746.601562 1348.976562 1746.308594 1349.183594 Z M 1195.488281 1144.160156 L 1473.5 1234.402344 C 1483.238281 1236.402344 1497.140625 1210.34375 1505.300781 1204.6875 C 1506.058594 1204.164062 1510.949219 1202.050781 1512.121094 1202.695312 C 1524.351562 1209.394531 1525.058594 1208.773438 1536.710938 1200.695312 C 1541.808594 1197.160156 1548.898438 1210.710938 1554.339844 1210.355469 C 1570.261719 1209.308594 1578.621094 1201.445312 1597.96875 1210.195312 C 1603.710938 1212.789062 1609.851562 1229.675781 1619.160156 1226.957031 C 1624.761719 1225.320312 1629.808594 1217.816406 1635.5 1217.003906 C 1641.429688 1216.152344 1645.890625 1226.628906 1653.410156 1225.097656 C 1655.980469 1224.574219 1667.410156 1217.667969 1670.179688 1221.679688 C 1675.609375 1229.503906 1679.238281 1241.515625 1692.929688 1238.726562 C 1702.851562 1236.703125 1710.449219 1224.832031 1721.78125 1231.039062 C 1731.078125 1236.132812 1732.359375 1252.675781 1745.808594 1249.933594 C 1757.671875 1247.515625 1765.078125 1233.992188 1777.929688 1233.148438 C 1787.351562 1232.53125 1797.191406 1243.808594 1805.5 1241.382812 C 1810.351562 1239.964844 1812.730469 1234.339844 1818.148438 1233.984375 C 1819.738281 1233.882812 1821.449219 1234.074219 1822.839844 1234.835938 C 1841.761719 1245.203125 1865.351562 1280.910156 1891.789062 1273.1875 C 1904.269531 1269.539062 1911.851562 1251.164062 1918.359375 1242.472656 C 1921.898438 1237.742188 1930.019531 1248.367188 1935.558594 1245.59375 C 1951.550781 1237.589844 1962.960938 1225.464844 1982.878906 1225.109375 C 2016.078125 1224.511719 2045.570312 1254.984375 2081.25 1252.644531 C 2097.929688 1251.546875 2112.71875 1239.332031 2129 1238.695312 C 2147.03125 1237.988281 2171.660156 1251.277344 2190.691406 1254.730469 C 2194.230469 1255.371094 2201.800781 1248.847656 2204.339844 1250.746094 C 2212.371094 1256.765625 2215.769531 1267.75 2222.539062 1275.042969 C 2226.601562 1279.425781 2243.25 1270.734375 2244 1272.476562 C 2246.910156 1279.1875 2245.089844 1290.171875 2251.261719 1294.789062 L 2260.640625 1296.492188 C 2265.078125 1295.855469 2277.28125 1284.980469 2280.109375 1287.101562 C 2282.28125 1288.730469 2280.628906 1298.558594 2286.511719 1296.339844 C 2297.378906 1292.234375 2304.390625 1277.53125 2316.058594 1275.859375 C 2325.140625 1274.558594 2323.121094 1295.15625 2333.839844 1293.617188 C 2348.71875 1291.488281 2356.398438 1272.441406 2371.78125 1271.429688 C 2385.558594 1270.527344 2399.371094 1295.023438 2408.601562 1291.03125 C 2447.210938 1274.316406 2447.5 1277.554688 2490.320312 1276.785156 C 2505.949219 1276.503906 2519.578125 1261.425781 2535.511719 1259.140625 C 2545.269531 1257.746094 2545.058594 1268.953125 2552.570312 1271.929688 C 2569.628906 1278.675781 2587.960938 1260.96875 2606.730469 1267.214844 C 2614.320312 1269.742188 2618.671875 1280.507812 2627.910156 1283.980469 C 2663.359375 1297.296875 2692.738281 1291.542969 2728.398438 1290.902344 C 2810.589844 1289.429688 2829.679688 1295.90625 2853.160156 1208.558594 C 2858.03125 1190.472656 2868.921875 1166.074219 2867.640625 1146.582031 C 2864.300781 1095.78125 2604.761719 1103.195312 2567.570312 1100.222656 C 2402.710938 1087.039062 2236.691406 1083.898438 2071.371094 1084.503906 C 1916.101562 1085.070312 1759.769531 1079.851562 1604.890625 1091.9375 C 1509.441406 1099.382812 1410.519531 1098.4375 1316.371094 1115.503906 C 1275.78125 1122.859375 1235.421875 1132.671875 1195.488281 1144.160156 Z M 1195.488281 1144.160156 L 1191.871094 1142.984375 C 1188.480469 1144.679688 1186.371094 1146.8125 1189.738281 1145.828125 C 1191.660156 1145.269531 1193.578125 1144.710938 1195.488281 1144.160156 "/>
<path fill-rule="evenodd" fill="rgb(100%, 100%, 100%)" fill-opacity="1" d="M 1287.25 1918.457031 C 1341.570312 1910.847656 1432.089844 1874.429688 1460.121094 1875.3125 C 1518.238281 1877.152344 1573.621094 1901.957031 1631.269531 1901.039062 C 1671.128906 1900.402344 1705.601562 1876.867188 1745.789062 1876.226562 C 1812.109375 1875.167969 1877.128906 1902.722656 1943.25 1904.8125 C 1995.140625 1906.453125 2046.179688 1900.546875 2098.058594 1901.246094 L 2064.609375 1909.628906 C 2017.289062 1911.546875 1972.210938 1932.425781 1922.839844 1929.214844 C 1885.710938 1926.800781 1855.480469 1900.09375 1818.429688 1901.878906 C 1734.75 1905.917969 1650.070312 1967.765625 1564.980469 1931.097656 C 1467.019531 1888.882812 1440.039062 1946.800781 1356.480469 1930.597656 C 1333.949219 1926.230469 1310.511719 1922.558594 1287.25 1918.457031 Z M 1287.25 1918.457031 C 1267.019531 1921.292969 1251.820312 1920.132812 1246.730469 1911.554688 C 1246.148438 1910.578125 1263.628906 1914.085938 1265.929688 1914.53125 C 1273 1915.902344 1280.121094 1917.199219 1287.25 1918.457031 Z M 2374.261719 1857.832031 C 2367.660156 1858.5625 2361.070312 1859.359375 2354.589844 1859.9375 C 2332.128906 1861.941406 2312.480469 1870.492188 2290.808594 1875.183594 C 2224.28125 1889.597656 2148.050781 1881.3125 2080.761719 1880.726562 L 2053.160156 1863.316406 C 2075.199219 1849.535156 2116.828125 1866.300781 2140.75 1867.730469 C 2204.660156 1871.546875 2240.78125 1847.121094 2292.488281 1843.417969 C 2319.550781 1841.480469 2347.03125 1854.546875 2374.261719 1857.832031 Z M 2374.261719 1857.832031 C 2382.671875 1856.898438 2391.109375 1856.070312 2399.398438 1855.941406 C 2400.058594 1855.929688 2401.710938 1856.867188 2401.058594 1857.007812 C 2392.171875 1858.933594 2383.230469 1858.914062 2374.261719 1857.832031 Z M 1478.460938 1828.191406 L 1574.308594 1849.265625 C 1547.328125 1830.085938 1513.71875 1826.203125 1478.460938 1828.191406 Z M 1051.441406 1809.570312 C 1070.328125 1806.105469 1079.308594 1790.164062 1101.789062 1788.28125 C 1131.589844 1785.78125 1153.789062 1798.960938 1185.050781 1792.808594 C 1226.738281 1784.601562 1264.589844 1803.152344 1304.140625 1812.746094 C 1340.808594 1821.644531 1376.449219 1817.042969 1413.589844 1813.925781 L 1478.460938 1828.191406 C 1427.351562 1831.070312 1372.78125 1846.28125 1329.878906 1845.121094 C 1314.421875 1844.707031 1304.050781 1828.910156 1290.140625 1824.28125 C 1263.339844 1815.363281 1233.199219 1817.710938 1205.640625 1818.707031 C 1164.019531 1820.210938 1122.839844 1828.824219 1081.421875 1819.917969 C 1070.410156 1817.554688 1061.210938 1813.574219 1051.441406 1809.570312 Z M 1521.511719 1781.054688 C 1576.410156 1794.074219 1627.738281 1819.808594 1689.28125 1825.285156 C 1749.351562 1830.632812 1800.621094 1806.125 1859.410156 1806.894531 C 1907.78125 1807.523438 1949.230469 1834.835938 1995.46875 1838.558594 C 2045.328125 1842.574219 2085.488281 1811.964844 2132.851562 1811.386719 C 2162.660156 1811.023438 2191.519531 1827.296875 2221.78125 1826.285156 C 2265.171875 1824.835938 2301.46875 1798.296875 2343.460938 1793.523438 C 2411.46875 1785.785156 2478.910156 1802.167969 2548.46875 1791.367188 L 1521.511719 1781.054688 C 1486.808594 1772.824219 1450.691406 1769.675781 1409.671875 1779.933594 Z M 1051.441406 1809.570312 C 1044.679688 1810.8125 1036.640625 1810.453125 1026.261719 1807.277344 C 1023.671875 1806.488281 1021.46875 1804.351562 1020.058594 1802.042969 C 1016.148438 1795.628906 1035.21875 1803.300781 1042.261719 1805.9375 C 1045.421875 1807.121094 1048.460938 1808.347656 1051.441406 1809.570312 Z M 1336.941406 1731.292969 L 1315.449219 1730.542969 C 1322.640625 1730.855469 1329.800781 1731.101562 1336.941406 1731.292969 L 1848.601562 1749.113281 C 1871.988281 1760.449219 1895.488281 1771.644531 1922.238281 1772.804688 C 1944.398438 1773.765625 1980.71875 1761.730469 2014.210938 1754.882812 L 1848.601562 1749.113281 C 1826.371094 1738.335938 1804.238281 1727.429688 1779.53125 1724.898438 C 1745.121094 1721.371094 1712.199219 1735.941406 1678.351562 1737.6875 C 1652.179688 1739.039062 1629.199219 1727.046875 1602.738281 1727.046875 C 1513.101562 1727.058594 1426.800781 1733.683594 1336.941406 1731.292969 Z M 2589.558594 1757.230469 L 2559.699219 1758.988281 C 2570.019531 1758.753906 2579.941406 1758.144531 2589.558594 1757.230469 L 2806.71875 1744.46875 C 2779.519531 1740.390625 2752.828125 1723.046875 2725.058594 1729.582031 C 2677.289062 1740.824219 2636.878906 1752.734375 2589.558594 1757.230469 Z M 1013.160156 1752.125 C 976.394531 1759.808594 937.5625 1759.523438 898.648438 1756.625 C 859.734375 1753.726562 820.742188 1748.210938 783.648438 1745.429688 Z M 2014.210938 1754.882812 C 2027.371094 1752.191406 2040.089844 1750.300781 2051.351562 1750.3125 C 2062.601562 1750.324219 2072.390625 1752.242188 2079.679688 1757.160156 Z M 2895.71875 1739.234375 L 2806.71875 1744.46875 C 2808.53125 1744.738281 2810.339844 1744.949219 2812.148438 1745.09375 C 2840.390625 1747.316406 2868.109375 1743.289062 2895.71875 1739.234375 L 2986.199219 1733.914062 C 2955.808594 1730.359375 2925.828125 1734.816406 2895.71875 1739.234375 Z M 1683.398438 1694.445312 C 1712.371094 1690.453125 1741.261719 1687.703125 1769.941406 1691.351562 C 1793.941406 1694.402344 1817.371094 1699.464844 1840.589844 1705.277344 L 2183.128906 1728.886719 C 2109.929688 1732.644531 2011.839844 1743.476562 1987.46875 1740.046875 C 1937.160156 1732.96875 1889.328125 1717.476562 1840.589844 1705.277344 Z M 1012.929688 1720.683594 L 1083.851562 1723.1875 C 1096.03125 1726.484375 1108.148438 1729.96875 1120.199219 1732.203125 C 1172.808594 1741.972656 1233.230469 1738.660156 1285.421875 1730.3125 L 1083.851562 1723.1875 C 1067.050781 1718.640625 1050.121094 1714.4375 1033.039062 1714.3125 C 1025.488281 1714.253906 1018.988281 1717.117188 1012.929688 1720.683594 Z M 2183.128906 1728.886719 L 2266.949219 1734.664062 C 2262.949219 1726.933594 2227.640625 1726.601562 2183.128906 1728.886719 Z M 937.941406 1718.03125 C 951.457031 1725.535156 963.792969 1733.429688 983.429688 1734.09375 C 993.984375 1734.449219 1002.859375 1726.597656 1012.929688 1720.683594 L 937.941406 1718.03125 C 920.839844 1708.535156 901.851562 1699.667969 863.792969 1706.90625 C 858.941406 1707.828125 837.949219 1708.875 831.09375 1714.257812 Z M 2096.308594 1695.640625 C 2121.238281 1701.863281 2145.390625 1708.609375 2166.660156 1711.003906 C 2220.769531 1717.101562 2277.511719 1697.890625 2331.730469 1696.074219 C 2333.28125 1696.023438 2334.820312 1695.980469 2336.339844 1695.945312 L 2096.308594 1695.640625 C 2051.488281 1684.449219 2004.148438 1674.949219 1966.5 1695.476562 Z M 2336.339844 1695.945312 C 2343.890625 1695.773438 2351.359375 1695.796875 2358.769531 1695.972656 L 2620.078125 1696.308594 C 2527.121094 1722.878906 2448.269531 1698.125 2358.769531 1695.972656 Z M 1296.121094 1667.753906 C 1341.679688 1665.414062 1387.339844 1662.492188 1433.660156 1664.5 C 1454.46875 1665.402344 1473.371094 1672.941406 1492.171875 1681.265625 L 1683.398438 1694.445312 C 1642.949219 1700.019531 1602.359375 1708.011719 1562 1704.421875 C 1536.789062 1702.179688 1514.539062 1691.167969 1492.171875 1681.265625 Z M 1068.410156 1673.78125 C 1071.371094 1673.835938 1074.339844 1674.007812 1077.308594 1674.335938 C 1079.441406 1674.570312 1081.53125 1674.953125 1083.589844 1675.441406 L 1203.878906 1688.621094 C 1216.628906 1688.769531 1227.03125 1689.535156 1231.371094 1691.632812 L 1203.878906 1688.621094 C 1177 1688.308594 1139.640625 1690.738281 1126.230469 1689.25 C 1111.179688 1687.578125 1098.019531 1678.859375 1083.589844 1675.441406 L 1068.410156 1673.78125 C 1047.691406 1673.394531 1027.308594 1678.730469 1006.390625 1675.316406 C 980.546875 1671.097656 954.3125 1663.765625 928.601562 1658.464844 Z M 1939.21875 1634.574219 C 1953.691406 1632.097656 1967.851562 1627.058594 1982.71875 1626.585938 C 2011.140625 1625.683594 2041.300781 1631.632812 2071.621094 1638.128906 C 2096.410156 1634.085938 2121.070312 1631.496094 2145.578125 1632.382812 C 2168.339844 1633.207031 2186.429688 1649.558594 2206.519531 1658.832031 L 2387.828125 1665.980469 C 2340.808594 1687.089844 2262.109375 1678.445312 2214.238281 1661.964844 C 2211.628906 1661.066406 2209.058594 1660.007812 2206.519531 1658.832031 L 2005.441406 1650.90625 C 2018.160156 1648.339844 2030.871094 1645.683594 2043.550781 1643.207031 Z M 2663.550781 1667.851562 C 2691.25 1670.398438 2718.789062 1674.210938 2748.109375 1675.121094 C 2771.269531 1675.835938 2793.679688 1671.613281 2816.210938 1668.1875 L 2663.550781 1667.851562 C 2637.121094 1665.425781 2610.539062 1664.15625 2582.171875 1667.675781 Z M 2816.210938 1668.1875 L 2932.839844 1668.441406 C 2961.820312 1670.511719 2990.550781 1671.863281 3021.339844 1668.632812 L 2932.839844 1668.441406 C 2910.878906 1666.867188 2888.789062 1664.882812 2865.558594 1664.164062 C 2848.839844 1663.644531 2832.5 1665.707031 2816.210938 1668.1875 Z M 1296.121094 1667.753906 L 1079.539062 1652.828125 C 1152.871094 1673.664062 1224.359375 1671.4375 1296.121094 1667.753906 Z M 1782.390625 1642.109375 L 1753.210938 1640.960938 C 1760.359375 1639.445312 1770.558594 1640.171875 1782.390625 1642.109375 L 2005.441406 1650.90625 C 1968.300781 1658.394531 1930.988281 1665.136719 1893.648438 1664.464844 C 1866.160156 1663.972656 1817.191406 1647.808594 1782.390625 1642.109375 Z M 2223.71875 1616.4375 C 2225.269531 1616.777344 2226.800781 1617.160156 2228.328125 1617.585938 C 2254.980469 1625.019531 2277.191406 1646.640625 2304.671875 1649.347656 C 2327.378906 1651.585938 2348.238281 1642.855469 2370.519531 1641.433594 C 2483.238281 1634.25 2598.570312 1643.050781 2710.699219 1614.980469 Z M 1239.679688 1625.890625 L 1330 1627.335938 C 1345.691406 1632.308594 1361.480469 1636.960938 1378.53125 1637.140625 C 1402.109375 1637.390625 1426.03125 1633.011719 1449.191406 1629.242188 L 1330 1627.335938 C 1312.980469 1621.941406 1296.078125 1616.175781 1277.800781 1615.324219 C 1264.410156 1614.699219 1252.769531 1622.921875 1239.679688 1625.890625 Z M 1750.308594 1618.945312 C 1767.730469 1613.257812 1785.269531 1607.640625 1804.859375 1609.414062 C 1835.519531 1612.195312 1865.628906 1623.394531 1895.960938 1630.996094 L 1939.21875 1634.574219 C 1930.859375 1636.007812 1922.390625 1636.582031 1913.640625 1634.925781 C 1907.730469 1633.808594 1901.839844 1632.472656 1895.960938 1630.996094 Z M 2814.679688 1626.441406 C 2833.789062 1629.511719 2851.898438 1633.285156 2857.230469 1634.359375 C 2884.628906 1639.890625 2903.46875 1628.523438 2929.351562 1627.339844 C 2964.28125 1625.738281 2996.519531 1632.613281 3031.921875 1625.886719 Z M 1625.289062 1608.601562 L 1408.679688 1590.679688 C 1415.738281 1571.796875 1492.070312 1577.007812 1500.558594 1577.390625 C 1544.371094 1579.363281 1584.71875 1594.386719 1625.289062 1608.601562 L 1750.308594 1618.945312 C 1729.128906 1625.859375 1708.128906 1632.875 1683.839844 1626.867188 C 1664.011719 1621.964844 1644.621094 1615.375 1625.289062 1608.601562 Z M 1219.660156 1625.566406 C 1223.558594 1626.347656 1227.050781 1626.851562 1230.011719 1626.925781 C 1233.339844 1627.007812 1236.550781 1626.597656 1239.679688 1625.890625 L 1219.660156 1625.566406 C 1190.589844 1619.746094 1139.238281 1598.429688 1122.339844 1624.011719 Z M 2814.679688 1626.441406 L 2760.769531 1626.582031 C 2760.28125 1619.339844 2788.429688 1622.226562 2814.679688 1626.441406 Z M 2146.410156 1616.667969 C 2171.789062 1615.839844 2199 1610.976562 2223.71875 1616.4375 L 2146.410156 1616.667969 C 2142.421875 1616.796875 2138.46875 1616.828125 2134.570312 1616.703125 Z M 2686.570312 1586.636719 L 2686.390625 1586.671875 C 2738.238281 1589.285156 2807.371094 1599.578125 2835.179688 1599.148438 C 2857.960938 1598.796875 2880.339844 1598.171875 2901.660156 1590.527344 C 2908.488281 1588.082031 2916.460938 1584.734375 2923.738281 1582.175781 C 2927.589844 1581.179688 2931.5 1580.046875 2935.488281 1578.761719 C 2938.199219 1577.886719 2929.941406 1580.121094 2927.230469 1580.996094 C 2926.089844 1581.363281 2924.929688 1581.761719 2923.738281 1582.175781 C 2866.179688 1597.070312 2823.121094 1580.882812 2765.410156 1576.339844 C 2739.550781 1574.304688 2712.558594 1581.703125 2687.851562 1586.398438 C 2687.429688 1586.476562 2687 1586.558594 2686.570312 1586.636719 Z M 2665.128906 1586.070312 L 2665.960938 1586.070312 L 2666.25 1586.074219 L 2666.960938 1586.074219 L 2667.230469 1586.078125 L 2667.5 1586.078125 L 2667.589844 1586.082031 L 2667.699219 1586.082031 C 2671.609375 1586.113281 2675.519531 1586.214844 2679.429688 1586.359375 L 2679.601562 1586.367188 L 2680.039062 1586.386719 L 2680.160156 1586.390625 C 2681.570312 1586.445312 2683 1586.507812 2684.441406 1586.574219 L 2684.488281 1586.578125 L 2684.519531 1586.578125 L 2684.761719 1586.589844 L 2685.921875 1586.644531 L 2686.390625 1586.667969 L 2686.390625 1586.671875 C 2666.480469 1590.285156 2645.390625 1590.824219 2624.308594 1591.3125 L 2574.421875 1593.917969 C 2590.621094 1592.054688 2607.460938 1591.699219 2624.308594 1591.3125 L 2628.261719 1591.105469 L 2686.390625 1586.667969 L 2686.050781 1586.652344 L 2686.019531 1586.652344 L 2685.921875 1586.644531 L 2684.808594 1586.59375 L 2684.761719 1586.589844 L 2684.488281 1586.578125 L 2684.441406 1586.574219 L 2683.898438 1586.550781 L 2682.980469 1586.507812 C 2682.46875 1586.484375 2681.960938 1586.464844 2681.449219 1586.441406 L 2680.761719 1586.414062 L 2680.160156 1586.390625 L 2680.011719 1586.382812 L 2679.910156 1586.378906 L 2679.761719 1586.375 L 2679.601562 1586.367188 L 2679.519531 1586.363281 L 2679.429688 1586.359375 C 2675.378906 1586.210938 2671.460938 1586.113281 2667.699219 1586.082031 L 2667.5 1586.078125 L 2666.960938 1586.074219 L 2666.25 1586.074219 L 2665.308594 1586.070312 Z M 1501.519531 1518.234375 L 1386.628906 1513.863281 C 1426.121094 1510.722656 1464.109375 1513.164062 1501.519531 1518.234375 L 2598.550781 1559.996094 C 2528.839844 1564.839844 2458.648438 1582.226562 2389.71875 1589.953125 C 2320.589844 1597.699219 2257.410156 1570.144531 2190.25 1569.519531 C 2113.601562 1568.804688 2041.449219 1596.023438 1963.640625 1592.519531 C 1893.710938 1589.371094 1838.230469 1550.691406 1771.429688 1538.0625 C 1726.929688 1529.648438 1683.039062 1551.804688 1639.5 1543.570312 C 1593.238281 1534.824219 1547.828125 1524.515625 1501.519531 1518.234375 Z M 2665.128906 1586.070312 L 2665.058594 1586.070312 L 2665.078125 1586.070312 L 2664.441406 1586.070312 L 2663.871094 1586.074219 L 2663.589844 1586.074219 L 2662.789062 1586.078125 L 2662.75 1586.078125 L 2661.910156 1586.085938 L 2661.628906 1586.089844 L 2661.078125 1586.097656 L 2660.761719 1586.101562 L 2660.261719 1586.109375 L 2659.921875 1586.117188 L 2659.441406 1586.128906 L 2659.089844 1586.132812 L 2658.621094 1586.144531 L 2658.28125 1586.152344 L 2657.789062 1586.167969 L 2657.519531 1586.175781 L 2656.058594 1586.222656 L 2655.941406 1586.226562 L 2655.089844 1586.257812 L 2655.03125 1586.261719 L 2654.261719 1586.296875 L 2654.039062 1586.304688 L 2653.429688 1586.335938 L 2653.179688 1586.347656 L 2652.558594 1586.378906 L 2652.359375 1586.390625 L 2651.550781 1586.4375 L 2650.75 1586.488281 L 2650.550781 1586.5 L 2649.960938 1586.542969 L 2649.710938 1586.558594 L 2649.171875 1586.601562 L 2648.949219 1586.617188 L 2647.71875 1586.71875 L 2647.558594 1586.730469 L 2647.210938 1586.761719 L 2646.890625 1586.789062 L 2646.539062 1586.824219 L 2646.238281 1586.851562 L 2645.890625 1586.890625 L 2645.589844 1586.917969 L 2645.238281 1586.957031 L 2644.949219 1586.988281 L 2644.601562 1587.027344 L 2644.320312 1587.058594 L 2643.960938 1587.101562 L 2643.699219 1587.132812 L 2643.328125 1587.175781 L 2643.078125 1587.207031 L 2642.699219 1587.257812 L 2642.480469 1587.285156 L 2641.628906 1587.402344 L 2641.421875 1587.4375 L 2641.058594 1587.488281 L 2640.789062 1587.53125 L 2640.449219 1587.582031 L 2640.171875 1587.628906 L 2639.839844 1587.679688 L 2639.210938 1587.789062 L 2638.988281 1587.828125 L 2638.78125 1587.867188 L 2638.421875 1587.929688 L 2638.160156 1587.980469 L 2637.851562 1588.039062 L 2637.589844 1588.09375 L 2637.28125 1588.15625 L 2636.871094 1588.242188 L 2636.808594 1588.253906 L 2636.339844 1588.355469 L 2636.320312 1588.359375 L 2635.808594 1588.476562 L 2635.648438 1588.511719 L 2635.300781 1588.597656 L 2635.109375 1588.644531 L 2634.789062 1588.722656 L 2634.398438 1588.824219 L 2634.328125 1588.84375 L 2633.921875 1588.953125 L 2633.851562 1588.972656 L 2633.449219 1589.089844 L 2633.390625 1589.105469 L 2632.988281 1589.222656 L 2632.941406 1589.238281 L 2632.539062 1589.363281 L 2632.511719 1589.375 L 2632.179688 1589.480469 L 2631.628906 1589.671875 L 2630.878906 1589.9375 L 2630.871094 1589.941406 L 2630.558594 1590.0625 L 2630.539062 1590.066406 C 2629.789062 1590.363281 2629.039062 1590.695312 2628.320312 1591.070312 L 2628.261719 1591.105469 L 2686.390625 1586.667969 L 2686.019531 1586.652344 L 2684.808594 1586.59375 L 2684.480469 1586.574219 L 2683.898438 1586.550781 L 2682.980469 1586.507812 C 2682.488281 1586.488281 2682 1586.464844 2681.511719 1586.445312 L 2680.011719 1586.382812 L 2679.761719 1586.375 L 2679.519531 1586.363281 C 2675.269531 1586.207031 2671.019531 1586.101562 2666.761719 1586.074219 L 2666.460938 1586.074219 L 2665.078125 1586.070312 Z M 2664.53125 1586.070312 L 2663.980469 1586.070312 L 2663.871094 1586.074219 L 2663.261719 1586.074219 L 2662.75 1586.078125 C 2662.46875 1586.082031 2662.191406 1586.085938 2661.910156 1586.085938 L 2661.871094 1586.089844 L 2661.628906 1586.089844 L 2661.230469 1586.097656 L 2661 1586.097656 L 2660.761719 1586.101562 L 2660.589844 1586.105469 L 2660.351562 1586.109375 L 2660.261719 1586.109375 L 2660.128906 1586.113281 L 2659.921875 1586.117188 L 2659.839844 1586.117188 L 2659.511719 1586.125 L 2659.441406 1586.128906 L 2659.28125 1586.128906 L 2659.089844 1586.132812 L 2659.070312 1586.136719 L 2658.671875 1586.144531 L 2658.621094 1586.144531 L 2658.429688 1586.148438 L 2657.578125 1586.171875 L 2655.988281 1586.222656 L 2655.269531 1586.253906 L 2655.128906 1586.257812 L 2655.089844 1586.261719 L 2655.03125 1586.261719 L 2654.839844 1586.269531 L 2654.359375 1586.289062 L 2654.261719 1586.296875 L 2654.191406 1586.296875 L 2654.039062 1586.304688 L 2653.890625 1586.3125 L 2653.589844 1586.328125 L 2653.429688 1586.335938 L 2653.300781 1586.339844 L 2653.179688 1586.347656 L 2653.089844 1586.351562 L 2652.820312 1586.367188 L 2652.558594 1586.378906 L 2652.421875 1586.386719 L 2652.359375 1586.390625 L 2652.300781 1586.394531 L 2652.058594 1586.40625 L 2651.550781 1586.4375 L 2651.101562 1586.464844 L 2650.839844 1586.480469 L 2650.75 1586.488281 L 2650.691406 1586.492188 L 2650.550781 1586.5 L 2650.46875 1586.507812 L 2650.03125 1586.535156 L 2649.960938 1586.542969 L 2649.839844 1586.550781 L 2649.710938 1586.558594 L 2649.699219 1586.558594 L 2649 1586.613281 L 2647.640625 1586.722656 L 2647.28125 1586.757812 L 2647.210938 1586.761719 L 2646.96875 1586.785156 L 2646.890625 1586.789062 L 2646.878906 1586.792969 L 2646.671875 1586.8125 L 2646.539062 1586.824219 L 2646.300781 1586.847656 L 2646.238281 1586.851562 L 2646.21875 1586.855469 L 2646.058594 1586.871094 L 2645.890625 1586.890625 L 2645.648438 1586.914062 L 2645.589844 1586.917969 L 2645.558594 1586.921875 L 2645.441406 1586.933594 L 2645.238281 1586.957031 L 2645 1586.980469 L 2644.949219 1586.988281 L 2644.929688 1586.988281 L 2644.808594 1587.003906 L 2644.601562 1587.027344 L 2644.359375 1587.054688 L 2644.320312 1587.058594 L 2644.300781 1587.058594 L 2644.148438 1587.078125 L 2643.960938 1587.101562 L 2643.730469 1587.128906 L 2643.691406 1587.132812 L 2643.460938 1587.160156 L 2643.328125 1587.175781 L 2643.078125 1587.207031 L 2642.488281 1587.285156 L 2641.539062 1587.417969 L 2641.421875 1587.4375 L 2641.398438 1587.4375 L 2641.101562 1587.480469 L 2641.058594 1587.488281 L 2640.890625 1587.511719 L 2640.851562 1587.519531 L 2640.789062 1587.53125 L 2640.769531 1587.53125 L 2640.539062 1587.566406 L 2640.449219 1587.582031 L 2640.25 1587.613281 L 2640.171875 1587.628906 L 2640.160156 1587.628906 L 2640 1587.65625 L 2639.839844 1587.679688 L 2639.609375 1587.71875 L 2639.570312 1587.726562 L 2639.558594 1587.726562 L 2639.480469 1587.742188 L 2639.210938 1587.789062 L 2638.988281 1587.828125 L 2638.96875 1587.828125 L 2638.78125 1587.867188 L 2638.441406 1587.925781 L 2638.421875 1587.929688 L 2638.378906 1587.9375 L 2638.160156 1587.980469 L 2637.898438 1588.03125 L 2637.851562 1588.039062 L 2637.769531 1588.054688 L 2637.589844 1588.09375 L 2637.390625 1588.132812 L 2637.351562 1588.140625 L 2637.28125 1588.15625 L 2637.191406 1588.171875 L 2637.050781 1588.203125 L 2636.898438 1588.234375 L 2636.820312 1588.25 L 2636.808594 1588.253906 L 2636.601562 1588.296875 L 2636.328125 1588.355469 L 2636.320312 1588.359375 L 2635.828125 1588.472656 L 2635.800781 1588.476562 L 2635.769531 1588.484375 L 2635.648438 1588.511719 L 2635.328125 1588.589844 L 2635.300781 1588.597656 L 2635.269531 1588.605469 L 2635.109375 1588.644531 L 2634.839844 1588.710938 L 2634.789062 1588.722656 L 2634.710938 1588.746094 L 2634.441406 1588.816406 L 2634.398438 1588.824219 L 2634.359375 1588.835938 L 2634.328125 1588.84375 C 2634.191406 1588.882812 2634.058594 1588.917969 2633.921875 1588.953125 L 2633.890625 1588.964844 L 2633.851562 1588.972656 C 2633.71875 1589.011719 2633.589844 1589.050781 2633.449219 1589.089844 L 2633.429688 1589.09375 L 2633.390625 1589.105469 C 2633.261719 1589.144531 2633.121094 1589.183594 2632.988281 1589.222656 L 2632.96875 1589.230469 L 2632.941406 1589.238281 L 2632.78125 1589.289062 L 2632.550781 1589.359375 L 2632.320312 1589.433594 L 2632.019531 1589.535156 L 2631.96875 1589.550781 L 2631.628906 1589.671875 L 2631.160156 1589.832031 L 2631.121094 1589.851562 L 2630.878906 1589.9375 L 2630.550781 1590.066406 L 2630.5 1590.085938 L 2630.210938 1590.203125 L 2630.140625 1590.226562 L 2629.851562 1590.351562 L 2629.808594 1590.367188 L 2629.53125 1590.488281 L 2629.5 1590.503906 L 2629.21875 1590.632812 L 2629.171875 1590.65625 L 2628.890625 1590.785156 L 2628.839844 1590.808594 L 2628.570312 1590.941406 L 2628.46875 1590.996094 L 2628.421875 1591.023438 L 2628.320312 1591.070312 L 2628.320312 1591.074219 L 2628.261719 1591.105469 L 2628.410156 1591.027344 L 2628.429688 1591.015625 L 2628.46875 1590.996094 L 2628.558594 1590.949219 L 2628.570312 1590.941406 C 2628.660156 1590.898438 2628.75 1590.855469 2628.839844 1590.808594 L 2628.871094 1590.796875 L 2628.890625 1590.785156 C 2628.980469 1590.742188 2629.070312 1590.699219 2629.171875 1590.65625 L 2629.179688 1590.648438 L 2629.21875 1590.632812 C 2629.308594 1590.589844 2629.410156 1590.546875 2629.5 1590.503906 L 2629.511719 1590.5 L 2629.53125 1590.488281 L 2629.679688 1590.425781 L 2629.808594 1590.367188 L 2629.839844 1590.355469 L 2629.851562 1590.351562 C 2629.949219 1590.308594 2630.039062 1590.269531 2630.140625 1590.226562 L 2630.179688 1590.214844 L 2630.210938 1590.203125 C 2630.300781 1590.164062 2630.398438 1590.125 2630.5 1590.085938 L 2630.53125 1590.074219 L 2630.558594 1590.0625 C 2630.660156 1590.023438 2630.761719 1589.980469 2630.871094 1589.941406 L 2630.878906 1589.9375 L 2630.898438 1589.929688 L 2631.050781 1589.875 L 2631.121094 1589.851562 L 2631.148438 1589.835938 L 2631.160156 1589.832031 C 2631.429688 1589.734375 2631.699219 1589.640625 2631.96875 1589.550781 L 2631.980469 1589.546875 L 2632.019531 1589.535156 L 2632.101562 1589.507812 L 2632.179688 1589.480469 L 2632.199219 1589.472656 L 2632.320312 1589.433594 L 2632.511719 1589.371094 L 2632.550781 1589.359375 C 2632.691406 1589.316406 2632.828125 1589.273438 2632.96875 1589.230469 L 2632.980469 1589.226562 C 2633.460938 1589.082031 2633.949219 1588.945312 2634.441406 1588.816406 L 2634.5 1588.800781 L 2634.710938 1588.746094 L 2634.808594 1588.71875 C 2634.980469 1588.675781 2635.148438 1588.632812 2635.320312 1588.59375 L 2635.800781 1588.476562 C 2635.980469 1588.4375 2636.160156 1588.394531 2636.328125 1588.355469 L 2636.820312 1588.25 L 2636.851562 1588.242188 L 2636.859375 1588.242188 L 2636.910156 1588.230469 L 2637.050781 1588.203125 L 2637.179688 1588.175781 L 2637.210938 1588.167969 L 2637.351562 1588.140625 L 2637.390625 1588.132812 C 2637.921875 1588.023438 2638.441406 1587.925781 2638.96875 1587.828125 L 2639.058594 1587.8125 L 2639.480469 1587.742188 L 2639.558594 1587.726562 L 2639.679688 1587.707031 L 2640 1587.65625 L 2640.109375 1587.636719 L 2640.160156 1587.628906 L 2640.300781 1587.605469 L 2640.539062 1587.566406 L 2640.679688 1587.546875 L 2640.769531 1587.53125 L 2640.921875 1587.507812 L 2641.101562 1587.480469 L 2641.261719 1587.457031 L 2641.398438 1587.4375 L 2641.539062 1587.417969 L 2641.628906 1587.402344 C 2641.910156 1587.363281 2642.191406 1587.324219 2642.480469 1587.285156 L 2642.488281 1587.285156 L 2642.699219 1587.257812 L 2643.039062 1587.214844 L 2643.078125 1587.207031 L 2643.140625 1587.199219 L 2643.460938 1587.160156 L 2643.648438 1587.136719 L 2643.691406 1587.132812 L 2643.78125 1587.121094 L 2644.148438 1587.078125 L 2644.269531 1587.0625 L 2644.300781 1587.058594 L 2644.421875 1587.046875 L 2644.808594 1587.003906 L 2644.898438 1586.992188 L 2644.929688 1586.988281 L 2645.058594 1586.976562 L 2645.441406 1586.933594 L 2645.53125 1586.925781 L 2645.558594 1586.921875 L 2645.699219 1586.90625 L 2646.058594 1586.871094 L 2646.171875 1586.859375 L 2646.21875 1586.855469 L 2646.351562 1586.84375 L 2646.671875 1586.8125 L 2646.820312 1586.796875 L 2646.878906 1586.792969 L 2646.988281 1586.78125 L 2647.28125 1586.757812 L 2647.46875 1586.738281 L 2647.550781 1586.730469 L 2647.640625 1586.722656 L 2647.71875 1586.71875 C 2648.121094 1586.683594 2648.539062 1586.648438 2648.949219 1586.617188 L 2649 1586.613281 L 2649.171875 1586.601562 L 2649.480469 1586.574219 L 2649.699219 1586.558594 L 2649.878906 1586.546875 L 2650.03125 1586.535156 L 2650.160156 1586.527344 L 2650.46875 1586.507812 L 2650.75 1586.488281 L 2650.839844 1586.480469 L 2650.851562 1586.480469 L 2651.101562 1586.464844 L 2651.621094 1586.433594 L 2652.058594 1586.40625 L 2652.25 1586.398438 L 2652.300781 1586.394531 L 2652.5 1586.382812 L 2652.820312 1586.367188 L 2652.960938 1586.359375 L 2653.089844 1586.351562 L 2653.371094 1586.335938 L 2653.589844 1586.328125 L 2653.671875 1586.320312 L 2653.890625 1586.3125 L 2654.25 1586.296875 L 2654.359375 1586.289062 L 2654.398438 1586.289062 L 2654.839844 1586.269531 L 2655.121094 1586.257812 L 2655.269531 1586.253906 L 2655.859375 1586.230469 L 2655.941406 1586.226562 L 2655.988281 1586.222656 L 2656.058594 1586.222656 C 2656.539062 1586.203125 2657.03125 1586.1875 2657.519531 1586.175781 L 2657.578125 1586.171875 L 2657.789062 1586.167969 L 2658.101562 1586.15625 L 2658.28125 1586.152344 L 2658.449219 1586.148438 L 2658.671875 1586.144531 L 2658.859375 1586.140625 L 2659.070312 1586.136719 L 2659.320312 1586.128906 L 2659.511719 1586.125 L 2659.628906 1586.121094 L 2659.839844 1586.117188 L 2660.191406 1586.113281 L 2660.351562 1586.109375 L 2660.398438 1586.109375 L 2660.589844 1586.105469 L 2661.058594 1586.097656 L 2661.230469 1586.097656 L 2661.921875 1586.085938 C 2662.210938 1586.085938 2662.5 1586.082031 2662.789062 1586.078125 L 2663.261719 1586.074219 L 2663.660156 1586.074219 L 2663.980469 1586.070312 Z M 1295.550781 1580.417969 C 1315.910156 1585.589844 1338.308594 1585.777344 1360.601562 1583.460938 C 1382.898438 1581.148438 1405.089844 1576.328125 1425.050781 1571.484375 Z M 2611.691406 1540.695312 L 2600.289062 1540.257812 C 2604.171875 1540.328125 2607.960938 1540.480469 2611.691406 1540.695312 L 2881.308594 1551.078125 C 2839.351562 1552.84375 2795.339844 1566.261719 2753.691406 1563.875 C 2703.78125 1561.011719 2665.328125 1543.824219 2611.691406 1540.695312 Z M 2598.550781 1559.996094 L 2695.859375 1563.703125 C 2663.648438 1558.210938 2631.148438 1557.734375 2598.550781 1559.996094 Z M 2167.398438 1513.554688 C 2204.058594 1524.285156 2240.71875 1540.785156 2274.390625 1540.40625 C 2315.441406 1539.941406 2346.988281 1511.722656 2386.839844 1506.636719 C 2425.171875 1501.742188 2463.339844 1514.703125 2500.949219 1499.492188 Z M 2115.578125 1504.582031 L 2114.78125 1504.582031 C 2098 1504.609375 2081.53125 1508.261719 2065.679688 1517.839844 L 2167.398438 1513.554688 C 2150.019531 1508.464844 2132.640625 1504.671875 2115.578125 1504.582031 Z M 1375.339844 1462.863281 L 1316.261719 1462.136719 C 1336.410156 1460.871094 1356.03125 1461.351562 1375.339844 1462.863281 L 2022.148438 1470.851562 C 1994.25 1473.625 1951.628906 1481.574219 1914.339844 1488.378906 L 2165.199219 1473.515625 C 2167.621094 1473.304688 2170.019531 1473.15625 2172.390625 1473.089844 L 2165.199219 1473.515625 C 2136.699219 1476.050781 2105.261719 1488.246094 2077.789062 1494.488281 C 2042.769531 1502.449219 1939.75 1498.15625 1894.820312 1491.910156 C 1873.519531 1495.707031 1855.589844 1498.644531 1845.640625 1499.265625 C 1794.199219 1502.484375 1744.640625 1487.550781 1694.71875 1479.6875 C 1649.390625 1472.554688 1602.558594 1488.421875 1556.878906 1486.023438 C 1494.289062 1482.746094 1436.300781 1467.644531 1375.339844 1462.863281 Z M 1369.269531 1492.601562 L 1332.28125 1491.921875 C 1345.640625 1490.558594 1357.609375 1491.214844 1369.269531 1492.601562 L 1450.761719 1494.105469 C 1439.300781 1495.769531 1427.589844 1499.90625 1416.410156 1498.972656 C 1399.609375 1497.5625 1384.71875 1494.441406 1369.269531 1492.601562 Z M 1450.761719 1494.105469 L 1467.710938 1494.417969 C 1462.191406 1493.058594 1456.5 1493.269531 1450.761719 1494.105469 Z M 2022.148438 1470.851562 C 2028.929688 1470.175781 2034.839844 1469.804688 2039.601562 1469.832031 C 2044.351562 1469.859375 2047.949219 1470.28125 2050.089844 1471.195312 Z M 1817.160156 1426.976562 L 1809.460938 1426.730469 C 1807.128906 1421.519531 1812.878906 1425.800781 1817.160156 1426.976562 L 2515.070312 1449.125 C 2491.03125 1451.652344 2465.371094 1458.578125 2443.820312 1458.855469 C 2319.660156 1460.464844 2193.691406 1470.394531 2070.761719 1462.1875 C 2009.269531 1458.082031 1954.851562 1448.511719 1893.699219 1436.90625 C 1868.738281 1432.167969 1839.101562 1431.96875 1817.589844 1427.085938 C 1817.449219 1427.050781 1817.300781 1427.015625 1817.160156 1426.976562 Z M 2531.589844 1448.214844 L 2531.03125 1448.214844 C 2525.699219 1448.222656 2520.378906 1448.574219 2515.070312 1449.125 L 2550.199219 1450.238281 C 2544.320312 1448.84375 2538.070312 1448.253906 2531.589844 1448.214844 Z M 1579.398438 1444.160156 C 1532.648438 1433.5625 1487.351562 1439.703125 1440.058594 1440.3125 C 1416.878906 1440.609375 1396.039062 1432.171875 1373.460938 1431.609375 C 1341.398438 1430.8125 1304.960938 1442.007812 1272.898438 1445.03125 Z M 1439.421875 1411.953125 L 1546.460938 1412.507812 C 1557.140625 1414.679688 1567.820312 1416.605469 1578.550781 1417.460938 C 1594.660156 1418.738281 1610.589844 1416.484375 1626.410156 1412.921875 L 1546.460938 1412.507812 C 1523.019531 1407.742188 1499.539062 1401.78125 1475.320312 1403.296875 C 1464.75 1403.960938 1451.890625 1409.035156 1439.421875 1411.953125 Z M 1961.511719 1387.160156 C 1962.839844 1384.691406 2004.058594 1387.445312 2049.410156 1393.09375 C 2094.769531 1398.742188 2144.25 1407.28125 2162.109375 1416.382812 Z M 2456.25 1409.183594 C 2445.601562 1412.402344 2434.890625 1415.316406 2423.988281 1415.3125 C 2389.25 1415.296875 2353.398438 1411.847656 2318.460938 1408.253906 Z M 1626.410156 1412.921875 L 2058.75 1415.15625 C 1978.53125 1385.921875 1891.789062 1411.574219 1809.488281 1409.878906 C 1770.761719 1409.078125 1737.039062 1389.1875 1697.089844 1395.527344 C 1673.699219 1399.242188 1650.191406 1407.5625 1626.410156 1412.921875 Z M 1439.421875 1411.953125 C 1434.609375 1413.082031 1429.851562 1413.886719 1425.300781 1413.992188 C 1420.761719 1414.09375 1416.429688 1413.496094 1412.460938 1411.816406 Z M 2456.25 1409.183594 C 2465.800781 1406.296875 2475.308594 1403.164062 2484.878906 1401.6875 C 2503.210938 1398.855469 2521.21875 1405.855469 2539.148438 1409.742188 L 2575.199219 1409.988281 C 2567.789062 1411.152344 2560.679688 1412.300781 2555.351562 1412.054688 C 2549.949219 1411.800781 2544.558594 1410.914062 2539.148438 1409.742188 Z M 2575.199219 1409.988281 L 2607.5 1410.203125 C 2600.148438 1406.160156 2587.269531 1408.089844 2575.199219 1409.988281 Z M 2374.75 1357.328125 C 2367.308594 1358.605469 2348.460938 1362.792969 2326.390625 1365.21875 C 2309.941406 1367.023438 2293.921875 1368.121094 2277.449219 1369.082031 C 2271.121094 1369.449219 2255.648438 1367.367188 2258.808594 1372.863281 C 2263.339844 1380.75 2301.058594 1378.785156 2308.710938 1379.71875 C 2332.539062 1382.628906 2356.609375 1385.109375 2380.539062 1386.980469 C 2385.53125 1387.371094 2395.460938 1388.804688 2395.460938 1388.804688 C 2395.460938 1388.804688 2375.230469 1388.125 2365.148438 1388.890625 C 2343.5 1390.53125 2228.609375 1407.300781 2215.519531 1398.625 C 2208.390625 1393.898438 2240.5 1396.21875 2238.800781 1387.835938 C 2238.570312 1386.71875 2228.800781 1386.523438 2227.609375 1386.46875 C 2196.601562 1385.078125 2164.488281 1382.542969 2133.871094 1378.800781 C 2132.628906 1378.648438 2131.390625 1378.339844 2130.140625 1378.34375 C 2127.339844 1378.351562 2124.550781 1378.824219 2121.75 1378.835938 C 2093.539062 1378.910156 1779.570312 1359.785156 1769.671875 1353.226562 L 1830.351562 1335.269531 C 1864.160156 1356.128906 2194 1363.84375 2255.039062 1360.285156 C 2262.21875 1359.867188 2355.71875 1358.003906 2374.75 1357.328125 C 2377.140625 1356.921875 2378.351562 1356.808594 2378.121094 1357.148438 C 2378.089844 1357.191406 2376.890625 1357.253906 2374.75 1357.328125 Z M 1612.308594 1382.4375 L 1524.421875 1384.066406 C 1535.660156 1386.898438 1546.261719 1393.289062 1558.160156 1393.136719 C 1577.449219 1392.890625 1594.488281 1386.214844 1612.308594 1382.4375 L 1676.878906 1381.242188 C 1663.621094 1380.527344 1649.769531 1379.894531 1634.171875 1379.890625 C 1626.628906 1379.886719 1619.410156 1380.933594 1612.308594 1382.4375 Z M 1524.421875 1384.066406 L 1504.578125 1384.433594 C 1511.628906 1382.007812 1518.121094 1382.480469 1524.421875 1384.066406 Z M 1676.878906 1381.242188 L 1785.828125 1379.222656 C 1740.570312 1385.371094 1710.609375 1383.050781 1676.878906 1381.242188 Z M 2013.488281 1315.539062 C 2063.769531 1316.351562 2114.109375 1315.925781 2164.21875 1320.011719 C 2186.488281 1321.828125 2224.96875 1331.742188 2256.320312 1337.238281 L 2294.578125 1340.65625 C 2285.371094 1341.566406 2271.699219 1339.933594 2256.320312 1337.238281 L 2013.488281 1315.539062 C 1977.390625 1314.953125 1941.339844 1313.730469 1905.421875 1309.742188 C 1883.261719 1307.28125 1790.441406 1310.613281 1777.410156 1294.441406 Z M 2014.648438 1277.199219 C 2026.558594 1275.316406 2038.410156 1274.09375 2050.109375 1274.902344 C 2057.371094 1275.40625 2064.578125 1276.324219 2071.761719 1277.46875 L 2269.921875 1278.402344 C 2231.429688 1280.625 2193.140625 1290.277344 2153.761719 1289.742188 C 2125.851562 1289.359375 2099 1281.800781 2071.761719 1277.46875 Z M 1887.429688 1276.597656 L 1692.601562 1275.679688 C 1744.488281 1275.28125 1793.980469 1276.402344 1845.941406 1273.53125 C 1859.78125 1272.765625 1873.621094 1274.34375 1887.429688 1276.597656 L 2014.648438 1277.199219 C 1991.339844 1280.878906 1967.789062 1287.074219 1944.691406 1285.476562 C 1925.691406 1284.160156 1906.578125 1279.726562 1887.429688 1276.597656 Z M 2269.921875 1278.402344 C 2275.941406 1278.054688 2281.960938 1277.890625 2287.988281 1277.972656 C 2290.941406 1278.011719 2295.550781 1278.222656 2301.421875 1278.550781 L 2480.941406 1279.398438 C 2469.910156 1290.644531 2347.269531 1281.105469 2301.421875 1278.550781 Z M 2273.628906 1247.722656 C 2285.691406 1248.644531 2297.800781 1249.597656 2309.941406 1250.578125 C 2355.460938 1254.261719 2401.550781 1250.925781 2447.28125 1250.886719 L 2273.628906 1247.722656 C 2115.5 1235.644531 1963.511719 1228.992188 1803.859375 1233.367188 C 1784.640625 1233.894531 1625.679688 1229.871094 1620.761719 1235.820312 Z M 2447.28125 1250.886719 C 2452.210938 1250.882812 2457.128906 1250.917969 2462.039062 1251.003906 C 2466.949219 1251.089844 2471.859375 1251.226562 2476.761719 1251.425781 Z M 1839.710938 1212.328125 C 1860.878906 1211.726562 1878.949219 1211.277344 1889.800781 1211.589844 C 1935.339844 1212.898438 1981.359375 1209.109375 2027.171875 1212.925781 C 2050.871094 1214.898438 2074.800781 1217.414062 2098.820312 1219.875 L 2366.839844 1227.683594 C 2345.609375 1231.765625 2320.421875 1224.375 2298.460938 1226.558594 C 2232.699219 1233.109375 2165.351562 1226.691406 2098.820312 1219.875 Z M 2637.878906 1216.625 L 2654.839844 1217.089844 C 2674.371094 1223.871094 2709.230469 1230.847656 2719.171875 1218.84375 L 2654.839844 1217.089844 C 2648.628906 1214.933594 2643.96875 1212.796875 2642.160156 1211.296875 C 2642.101562 1211.246094 2640.238281 1213.742188 2637.878906 1216.625 Z M 1530.058594 1186.394531 L 1906.410156 1196.664062 C 1918.601562 1197.382812 1930.769531 1198.042969 1942.929688 1198.625 C 2101.25 1206.21875 2260.839844 1208.585938 2418.640625 1219.839844 C 2484.96875 1224.566406 2566.570312 1210.703125 2628.660156 1225.097656 C 2630.289062 1225.472656 2634.570312 1220.667969 2637.878906 1216.625 L 1906.410156 1196.664062 C 1814.371094 1191.269531 1721.539062 1182.855469 1629.410156 1182.625 C 1596.890625 1182.542969 1563.039062 1186.101562 1530.058594 1186.394531 Z M 1839.710938 1212.328125 L 1679.75 1207.667969 C 1696.671875 1216.921875 1780.359375 1214.015625 1839.710938 1212.328125 Z M 2121.929688 1181.078125 L 2213.980469 1183.128906 C 2277.019531 1187.691406 2339.179688 1191.574219 2403.46875 1187.355469 L 2213.980469 1183.128906 C 2195.351562 1181.78125 2176.640625 1180.375 2157.78125 1179.101562 C 2145.839844 1178.296875 2133.890625 1179.515625 2121.929688 1181.078125 Z M 1530.058594 1186.394531 C 1525.121094 1186.441406 1520.191406 1186.410156 1515.289062 1186.285156 C 1510.390625 1186.160156 1505.511719 1185.9375 1500.671875 1185.59375 Z M 2029.078125 1179.007812 C 2046.570312 1181.996094 2063.210938 1184.886719 2076.53125 1185.210938 C 2091.648438 1185.574219 2106.789062 1183.054688 2121.929688 1181.078125 L 2029.078125 1179.007812 C 1996.789062 1173.488281 1961.601562 1167.640625 1939.128906 1177 L 2029.078125 1179.007812 "/>
</svg>
