<?xml version="1.0" encoding="UTF-8"?>
<svg xmlns="http://www.w3.org/2000/svg" xmlns:xlink="http://www.w3.org/1999/xlink" width="4000" height="2000" viewBox="0 0 4000 2000">
<path fill-rule="evenodd" fill="rgb(100%, 100%, 100%)" fill-opacity="1" d="M 2668.640625 551.449219 C 2654.71875 551.828125 2667.328125 568.71875 2654.199219 569.699219 C 2589.101562 574.578125 2530.890625 587.710938 2469 594.429688 C 2422.839844 599.449219 2365.269531 593.578125 2319.699219 585.75 C 2298 582.019531 2268 577.648438 2249.871094 564.328125 C 2248.460938 563.289062 2245.109375 560.300781 2246.839844 560.039062 C 2286.878906 553.921875 2328.410156 569.78125 2371.140625 560.660156 C 2381 558.550781 2364.859375 540.128906 2370.671875 530.421875 C 2384.21875 507.808594 2411.648438 540.070312 2416.761719 536.449219 C 2423.570312 531.640625 2415.359375 517.808594 2429.371094 517.878906 C 2463.261719 518.050781 2496.890625 529.519531 2531.011719 529.691406 C 2634.460938 530.210938 2743.550781 504.609375 2843.398438 477.800781 "/>
<path fill-rule="evenodd" fill="rgb(100%, 100%, 100%)" fill-opacity="1" d="M 3126.171875 -22.128906 C 3095.738281 -20.179688 3073.761719 1.980469 3046.558594 12.640625 C 2960.980469 46.148438 2870.839844 77.671875 2781.671875 103.558594 C 2762.851562 109.019531 2768.03125 85.109375 2749.839844 90.390625 C 2640.03125 122.28125 2517.648438 140.558594 2402.28125 161.898438 C 2358.289062 170.039062 2307.851562 159.910156 2266.550781 171.910156 C 2172.839844 199.109375 2047.511719 193.820312 1951.070312 185.078125 C 1912.230469 181.558594 1873.078125 182.289062 1835 171.171875 C 1826.28125 168.628906 1808.921875 163.339844 1808.921875 163.339844 C 1808.921875 163.339844 1839.140625 171.148438 1854.578125 171.089844 C 1892.011719 170.929688 2062.289062 168.21875 2086.730469 155.5 C 2096.859375 150.21875 2065.390625 135.101562 2070.890625 125.078125 C 2077.179688 113.648438 2098.148438 129.21875 2105.46875 133.25 C 2106.03125 133.550781 2107.121094 134.800781 2107.140625 134.160156 C 2107.511719 124.738281 2098.980469 111.160156 2109.21875 102.75 C 2121.019531 93.058594 2140.039062 122.578125 2147.890625 115.328125 C 2159.488281 104.609375 2149.210938 83.121094 2169.128906 72.75 C 2202.101562 55.589844 2253.539062 108.53125 2267.710938 98.738281 C 2268.171875 98.429688 2250.839844 74.308594 2250.789062 74.25 C 2217.449219 22.691406 2233.46875 -21.980469 2290.371094 -45.078125 C 2468.078125 -117.230469 2701.398438 -73.011719 2891.148438 -83.679688 C 3010.089844 -90.371094 3126.660156 -121.648438 3242.621094 -146.519531 "/>
<path fill-rule="evenodd" fill="rgb(100%, 100%, 100%)" fill-opacity="1" d="M 1978.738281 281.25 C 1921.71875 315.648438 1602.121094 258.96875 1538.859375 245.96875 C 1477.230469 233.308594 1416.300781 219.460938 1356.121094 200.738281 C 1352.679688 199.671875 1310.039062 181.070312 1304.828125 183.480469 C 1302.648438 184.488281 1323.988281 206.660156 1302.988281 213.949219 C 1258.441406 229.421875 1156.320312 165.691406 1144.230469 171.28125 C 1141.761719 172.429688 1158.539062 190.070312 1138.050781 192.378906 C 1038.890625 203.53125 761.78125 52.46875 671.9375 2.699219 C 633.851562 -18.410156 413.125 -123.148438 398.214844 -155.339844 C 395.949219 -160.21875 407.628906 -149.890625 412.808594 -148.429688 C 426.230469 -144.640625 444.117188 -142.410156 458.011719 -144.300781 C 502.0625 -150.300781 540.921875 -171.351562 583.15625 -184.039062 C 723.304688 -226.148438 958.070312 -189.679688 1100.320312 -154.71875 C 1181.699219 -134.730469 1211.210938 -130.148438 1182.339844 -51.441406 C 1178.960938 -42.25 1175.011719 -22.988281 1175.011719 -22.988281 C 1175.011719 -22.988281 1193.601562 -44.230469 1206.308594 -48.878906 C 1223.460938 -55.148438 1239.578125 -52.179688 1256.140625 -44.609375 C 1303.378906 -23.039062 1279.21875 8.53125 1283.121094 43.148438 C 1283.878906 49.898438 1295.261719 37.039062 1301.421875 34.191406 C 1313.039062 28.808594 1328.300781 28.121094 1340.859375 30.070312 C 1364.25 33.710938 1416.820312 56.480469 1404.769531 89.328125 C 1399.308594 104.238281 1381.828125 109.070312 1368.851562 115.089844 C 1367.601562 115.671875 1365.441406 115.910156 1367.839844 117.828125 C 1377.140625 125.25 1396.488281 121.480469 1407.421875 124.558594 C 1417.71875 127.46875 1417.449219 151.238281 1427.960938 149.230469 C 1444.410156 146.089844 1465.289062 137.109375 1481.679688 147.128906 C 1485.078125 149.210938 1478.890625 160.628906 1481.261719 161 C 1508.929688 165.300781 1542.511719 138.601562 1573.371094 143.398438 C 1574.011719 143.488281 1693.980469 212.871094 1728.28125 222.03125 C 1825.609375 248.019531 1923.089844 256.949219 2022.800781 272.449219 "/>
<path fill-rule="evenodd" fill="rgb(100%, 100%, 100%)" fill-opacity="1" d="M 4042.46875 403.910156 C 4012.46875 420.160156 3928.371094 468.96875 3898.78125 469.148438 C 3894.25 469.179688 3908.410156 455.058594 3906.53125 451.980469 C 3899.269531 440.039062 3872.488281 456.398438 3865.039062 460.929688 C 3863.121094 462.101562 3868.441406 457.929688 3869.789062 456.128906 C 3873.5 451.191406 3870.949219 449.789062 3865.261719 450.261719 C 3818.539062 454.140625 3771.140625 489.351562 3725.488281 500.789062 C 3680.730469 512 3635.738281 522.488281 3590.058594 528.539062 C 3573.480469 530.75 3556.71875 531.058594 3540.121094 533.058594 C 3531.019531 534.148438 3518.179688 534.871094 3518.238281 534.871094 C 3542.890625 532.828125 3716.609375 468.75 3718.238281 462.089844 C 3719.890625 455.289062 3693 443.078125 3717.460938 426.160156 C 3730.421875 417.199219 3746.300781 440.230469 3747.578125 439.460938 C 3755.449219 434.671875 3746.210938 413.160156 3761.140625 408.21875 C 3770.191406 405.21875 3777.980469 424.789062 3788.429688 418.441406 C 3800.738281 410.960938 3794 369.539062 3833.230469 351.921875 C 3872.488281 334.289062 3880.511719 372.820312 3900.429688 369.488281 C 3911.660156 367.609375 3916.171875 352.328125 3925.570312 349.398438 C 3932.949219 347.109375 3940.980469 353.320312 3948.878906 351.511719 C 3993.789062 341.25 4083.320312 279.289062 4114.449219 248.898438 "/>
<path fill-rule="evenodd" fill="rgb(100%, 100%, 100%)" fill-opacity="1" d="M 3647.410156 -46.039062 C 3645.378906 -50.140625 3630.460938 -42.078125 3628.871094 -41.449219 C 3565.199219 -16.011719 3505.820312 10.320312 3440.359375 30.71875 C 3421.640625 36.550781 3403.25 42.601562 3384.441406 48.199219 C 3375.488281 50.859375 3357.929688 53.421875 3349.609375 58.730469 C 3349.191406 59 3348.230469 60.179688 3348.578125 59.820312 C 3349.910156 58.410156 3414.5 22.070312 3378.628906 30.269531 C 3340.351562 39.011719 3301.628906 49.820312 3262.25 54.71875 C 3247.671875 56.53125 3231.898438 54.441406 3217.589844 55.941406 C 3214.390625 56.269531 3206.691406 60.171875 3208.050781 57.261719 C 3210.011719 53.039062 3209.988281 55.121094 3213.28125 53.921875 C 3300.578125 22.160156 3391.289062 -6.128906 3466.550781 -62.570312 "/>
<path fill-rule="evenodd" fill="rgb(100%, 100%, 100%)" fill-opacity="1" d="M 312.078125 -39.339844 C 303.210938 2.351562 521.332031 77.441406 544.164062 82.671875 C 579.035156 90.671875 613.878906 97.878906 648.507812 106.648438 C 655.027344 108.300781 673.890625 114.859375 668.109375 111.421875 C 560.136719 47.289062 468.226562 -31.011719 385.800781 -126.320312 "/>
<path fill-rule="evenodd" fill="rgb(100%, 100%, 100%)" fill-opacity="1" d="M 558.695312 546.421875 C 599.835938 597.101562 926.621094 673.851562 992.953125 675.519531 C 1054.78125 677.078125 1116.988281 673.800781 1178.71875 676.320312 C 1184.710938 676.558594 1200.980469 680.289062 1196.691406 676.109375 C 1187.71875 667.339844 1004.03125 654.839844 970.039062 638.339844 C 963.878906 635.351562 975.957031 631.421875 977.441406 630.761719 C 1003.171875 619.371094 987.851562 597.691406 970.917969 585.898438 C 954.207031 574.261719 927.140625 574.261719 915.589844 594.039062 C 913.808594 597.089844 916.738281 607.011719 914.214844 604.550781 C 895.78125 586.539062 895.460938 554.011719 864.554688 585.660156 C 863.515625 586.71875 855.316406 559.121094 855.25 558.808594 C 849.375 531.140625 816.253906 499.128906 785.601562 496.710938 C 764.957031 495.078125 719.820312 527.21875 741.269531 548.171875 C 744.292969 551.121094 761.0625 570.421875 761.007812 570.410156 C 752.5625 567.699219 730.078125 543.609375 723.402344 557.371094 C 719.234375 565.960938 723.679688 571.371094 711.5625 569.488281 C 689.980469 566.160156 672.941406 547.640625 651.363281 546.238281 C 575.046875 541.269531 511.296875 520.679688 437.960938 488.839844 "/>
</svg>
