<?xml version="1.0" encoding="UTF-8"?>
<svg xmlns="http://www.w3.org/2000/svg" xmlns:xlink="http://www.w3.org/1999/xlink" width="4000" height="2000" viewBox="0 0 4000 2000">
<path fill-rule="evenodd" fill="rgb(32.493591%, 52.539062%, 52.929688%)" fill-opacity="1" d="M 1644.769531 1278.699219 C 1652.429688 1280.449219 1658.039062 1282.128906 1660.089844 1283.6875 C 1667.761719 1289.535156 1672.769531 1270.089844 1674.980469 1271.777344 C 1686.320312 1280.425781 1678.898438 1312.566406 1693.53125 1323.726562 C 1702.570312 1330.617188 1749.601562 1335.71875 1751.171875 1347.308594 C 1752.210938 1355.09375 1714.191406 1360.894531 1711.738281 1360.871094 C 1674.691406 1360.582031 1637.28125 1362.796875 1600.230469 1366.007812 C 1515.058594 1373.386719 1377.269531 1366.757812 1300.300781 1393.246094 C 1291.179688 1396.382812 1318.570312 1410.886719 1307.039062 1418.738281 L 1297.75 1423.289062 C 1268.859375 1431.46875 1240.328125 1437.886719 1210.238281 1435.085938 C 1197.671875 1433.917969 1186.570312 1432.675781 1173.710938 1433.410156 C 1171.128906 1433.558594 1159.390625 1432.660156 1158.121094 1432.433594 L 1158.539062 1432.386719 C 1157.988281 1432.375 1157.890625 1432.394531 1158.121094 1432.433594 L 731.164062 1479.875 C 694.421875 1472.894531 643.121094 1479.84375 608.714844 1465.035156 C 586.132812 1455.316406 565.550781 1436.425781 543.816406 1424.28125 C 464.75 1380.109375 370.453125 1349.253906 284.21875 1322.328125 C 185.355469 1291.464844 64.113281 1287.265625 -27.332031 1238.933594 C -53.5625 1225.066406 -81.535156 1196.042969 -98.964844 1172.6875 C -141.699219 1115.425781 -129.667969 1038.796875 -132.539062 972.609375 C -134.332031 931.28125 -140.285156 877.050781 -155.535156 838.761719 C -159.894531 827.820312 -191.398438 783.769531 -183.722656 776.558594 C -85.675781 684.429688 -21.839844 731.558594 78.371094 737.921875 C 95.582031 739.011719 127.074219 716.710938 140.484375 721.300781 C 148.921875 724.179688 157.046875 736.019531 165.792969 737.679688 C 181.183594 740.609375 198.992188 721.988281 212.132812 726.488281 C 221.503906 729.691406 219.578125 747.898438 231.835938 750.230469 C 259.632812 755.511719 272.996094 731.851562 299.898438 741.050781 C 344.414062 756.28125 334.007812 803.371094 364.960938 819.730469 C 404.410156 840.589844 443.410156 837.328125 459.117188 844.988281 C 473.085938 851.808594 478.488281 872.238281 495.023438 866.550781 C 514.160156 859.960938 524.15625 900.640625 533.644531 895.988281 C 541.171875 892.308594 542.066406 851.269531 554.328125 853.601562 C 562.320312 855.121094 561.910156 876.121094 564.746094 881.898438 C 573.871094 900.519531 621.867188 908 637.523438 919.941406 C 648.316406 928.171875 652.667969 941.71875 665.984375 947.449219 C 675.195312 951.421875 716.132812 962.03125 725.109375 957.628906 C 732.75 953.890625 749.300781 923.28125 753.585938 924.089844 C 759.308594 925.179688 763.09375 948.578125 771.011719 943.191406 C 781.027344 936.371094 778.546875 911.628906 797.5625 919.808594 C 817 928.179688 832.109375 999.308594 852.460938 996.558594 C 860.746094 995.449219 863.433594 973.628906 873.925781 972.21875 C 883.734375 970.898438 880.117188 1000.765625 891.261719 1002.882812 C 902.128906 1004.945312 908.21875 990.941406 917.28125 987.820312 C 918.519531 987.398438 924.847656 993.589844 926.476562 994.839844 C 942.113281 1006.757812 957.007812 1040.21875 981.648438 1036.898438 C 990.25 1035.738281 998.460938 1025.351562 1006.710938 1026.917969 C 1022.171875 1029.855469 1025.820312 1060.027344 1042.960938 1063.28125 C 1051.378906 1064.882812 1059.679688 1041.285156 1065.828125 1037.097656 C 1067.839844 1035.726562 1068.570312 1041.128906 1069.941406 1043.144531 C 1072.410156 1046.769531 1093.960938 1068.496094 1107.261719 1081.453125 C 1116.410156 1073.785156 1124.511719 1064.800781 1124.511719 1047.144531 C 1124.511719 1045.488281 1125.261719 1050.371094 1125.710938 1051.964844 C 1127.539062 1058.339844 1128.328125 1064.546875 1129.328125 1071.242188 C 1130.460938 1078.804688 1129.519531 1086.78125 1128.921875 1094.683594 C 1142.941406 1098.277344 1147.261719 1094.296875 1161.730469 1075.320312 C 1167.859375 1067.285156 1169.828125 1094.296875 1172.769531 1083.730469 C 1174.96875 1075.796875 1177.460938 1064.570312 1178.988281 1056.492188 C 1179.570312 1053.484375 1181.628906 1035.035156 1189.78125 1038.539062 C 1198.808594 1042.425781 1205.738281 1096.199219 1222.378906 1130.261719 C 1229.960938 1116.199219 1236.941406 1104.054688 1239.710938 1105.4375 C 1251.910156 1111.535156 1235.011719 1150.230469 1245.988281 1155.71875 C 1248.511719 1156.976562 1248.511719 1150.691406 1249.761719 1148.175781 C 1258.878906 1129.945312 1258.390625 1107.117188 1266.109375 1087.835938 C 1266.53125 1086.769531 1267.589844 1080.296875 1268.621094 1080.296875 C 1269.621094 1080.296875 1280.46875 1120.402344 1281.191406 1123.035156 C 1284.71875 1135.988281 1287.109375 1147.394531 1288.179688 1159.445312 C 1291.671875 1162.277344 1294.988281 1164.605469 1297.480469 1164.269531 C 1301.71875 1163.699219 1285.558594 1127.28125 1285.75 1126.25 C 1286.140625 1124.183594 1283.988281 1122.503906 1286.71875 1121.171875 C 1290.53125 1119.304688 1304.761719 1122.492188 1308.441406 1123.191406 C 1326.949219 1126.707031 1332.761719 1148.300781 1343.859375 1164.960938 C 1345.238281 1161.488281 1346.570312 1157.992188 1347.808594 1154.460938 C 1356.640625 1129.464844 1361.160156 1153.976562 1376.730469 1169.546875 C 1376.839844 1169.664062 1382.070312 1145.507812 1383.011719 1143.148438 C 1383.609375 1141.65625 1387.828125 1150.324219 1388.039062 1150.691406 C 1391.160156 1156.152344 1395.109375 1167.296875 1401.871094 1169.546875 C 1409.289062 1172.019531 1422.121094 1135.878906 1423.238281 1138.121094 C 1431.398438 1154.441406 1428.269531 1174.625 1427.738281 1193.621094 C 1429.691406 1194.132812 1431.671875 1194.722656 1433.679688 1195.40625 C 1441.988281 1198.253906 1445.988281 1177.742188 1454.621094 1179.386719 C 1460.941406 1180.585938 1461.949219 1192.792969 1463.71875 1197.957031 C 1469.230469 1213.972656 1501.171875 1242.410156 1512.410156 1240.894531 C 1515.660156 1240.457031 1515.480469 1225.425781 1516.710938 1223.816406 C 1519.550781 1220.085938 1522.609375 1231.222656 1526.339844 1234.066406 C 1532.691406 1238.910156 1538.839844 1247.039062 1545.808594 1253.335938 C 1550.679688 1244.988281 1556.980469 1237.316406 1564.03125 1231.144531 C 1564.640625 1230.609375 1573.78125 1222.035156 1574.089844 1222.34375 C 1579.140625 1227.394531 1568.039062 1250.609375 1568.03125 1263.894531 C 1570.101562 1264.386719 1572.328125 1264.878906 1574.691406 1265.378906 C 1574.910156 1264.789062 1575.128906 1264.253906 1575.339844 1263.828125 C 1579.808594 1254.882812 1585.730469 1236.007812 1595.460938 1231.144531 C 1595.769531 1230.984375 1596.710938 1262.570312 1603 1262.570312 C 1608.289062 1262.570312 1609.230469 1233.65625 1618.078125 1233.65625 C 1619.480469 1233.65625 1620.109375 1264.597656 1623.109375 1267.597656 C 1629.289062 1273.773438 1632.320312 1247.894531 1635.679688 1251.257812 C 1637.390625 1252.964844 1641.621094 1266.476562 1644.769531 1278.699219 Z M 3032.78125 1100.25 C 3034.589844 1097.609375 3036.351562 1094.765625 3038.058594 1091.6875 C 3043.878906 1081.222656 3055.148438 1044.632812 3065.25 1039.578125 C 3069.628906 1037.386719 3067.519531 1053.4375 3067.519531 1055.4375 C 3067.519531 1066.148438 3065.78125 1093.242188 3073.980469 1101.449219 C 3082.289062 1109.757812 3098.878906 1050.550781 3103.761719 1055.4375 C 3109.570312 1061.242188 3104.53125 1076.839844 3115.089844 1080.359375 C 3135 1086.996094 3158.488281 1012.042969 3174 996.53125 C 3186.269531 984.261719 3190.328125 1003.6875 3203.449219 1001.066406 C 3213.570312 999.039062 3218.609375 983.289062 3228.371094 978.410156 C 3243.46875 970.859375 3252.710938 1003.910156 3289.539062 967.078125 C 3316.710938 939.910156 3301.710938 889.921875 3321.261719 860.601562 C 3325.410156 854.378906 3345.351562 904.058594 3350.710938 901.378906 C 3357.121094 898.179688 3355.851562 882.648438 3359.769531 878.71875 C 3361.070312 877.429688 3371.53125 884.910156 3373.359375 885.519531 C 3375.570312 886.261719 3378.878906 884.21875 3380.160156 883.261719 C 3409.140625 861.519531 3404.660156 913.160156 3434.53125 908.179688 C 3494.351562 898.210938 3491.160156 817.570312 3513.828125 794.898438 C 3517.578125 791.148438 3524.089844 804.621094 3525.160156 806.230469 C 3530.230469 813.839844 3570.410156 816.820312 3575 815.289062 C 3586.089844 811.589844 3609.839844 813.730469 3620.308594 808.488281 C 3636.480469 800.410156 3632.570312 768.910156 3649.761719 763.179688 C 3658.171875 760.378906 3716.261719 769.710938 3749.449219 758.648438 C 3785.058594 746.78125 3825.851562 676.269531 3869.519531 654.441406 C 3872.929688 652.730469 3868.121094 666.988281 3878.578125 663.5 C 3883.640625 661.808594 3905.058594 640.140625 3912.570312 647.640625 C 3918.421875 653.5 3906.320312 669.441406 3917.101562 674.828125 C 3930.699219 681.621094 3950.480469 668.75 3962.410156 665.761719 C 3990.640625 658.710938 4011 677.679688 4041.699219 672.558594 C 4051.511719 670.929688 4094.210938 650.308594 4102.871094 658.96875 C 4105.769531 661.859375 4101.058594 673.488281 4100.609375 677.089844 C 4092.128906 744.910156 4083.238281 797.171875 4098.339844 865.128906 C 4117.101562 949.53125 4169 1087.703125 4148.179688 1170.980469 C 4134.628906 1225.214844 4064.828125 1254.859375 4021.308594 1279.726562 C 3763.800781 1426.875 3550.058594 1433.140625 3275.949219 1472.300781 L 3182.390625 1369.386719 C 3104.628906 1363.332031 2927.398438 1399.273438 2870.101562 1404.914062 C 2816.558594 1410.1875 2723.011719 1427.9375 2673.621094 1404.160156 C 2619.550781 1378.136719 2475.460938 1381.328125 2444.46875 1351.253906 C 2443.910156 1350.71875 2442.398438 1345.855469 2444.351562 1343.84375 C 2467.101562 1320.40625 2504.078125 1320.320312 2536.488281 1314.054688 C 2540.941406 1301.703125 2545.519531 1289.386719 2546.820312 1286.769531 C 2548.328125 1283.757812 2551.789062 1291.523438 2553.300781 1294.539062 C 2553.910156 1295.769531 2556.988281 1301.316406 2560.679688 1307.332031 C 2563.050781 1306.378906 2565.351562 1305.335938 2567.578125 1304.179688 C 2571.851562 1301.960938 2576.160156 1299.894531 2580.511719 1297.953125 C 2581.550781 1286.375 2583.160156 1275.074219 2590.851562 1271.234375 C 2593.390625 1269.960938 2594.949219 1281.753906 2597.351562 1291.039062 C 2602.078125 1289.25 2606.828125 1287.5625 2611.601562 1285.9375 C 2612.949219 1279.355469 2613.621094 1272.414062 2614.148438 1268.644531 C 2614.558594 1265.777344 2615.988281 1258.828125 2618.039062 1260.875 C 2622.859375 1265.699219 2621.460938 1286.398438 2624.511719 1280.296875 C 2625.429688 1278.46875 2633.191406 1250.96875 2634.871094 1251.808594 C 2639.78125 1254.265625 2635.800781 1270.71875 2645.230469 1268.644531 C 2655.851562 1266.304688 2655.578125 1240.808594 2664.648438 1236.273438 C 2666.730469 1235.234375 2667.011719 1240.433594 2667.238281 1242.746094 C 2668.089844 1251.199219 2668.820312 1258.625 2670.511719 1267.042969 C 2684.839844 1262.105469 2699.011719 1256.515625 2712.808594 1249.355469 C 2735.96875 1237.335938 2759.839844 1224.394531 2783.300781 1210.554688 C 2785.320312 1200.527344 2787.660156 1190.652344 2787.660156 1185.773438 C 2787.660156 1181.890625 2787.660156 1178.007812 2787.660156 1174.121094 C 2787.660156 1171.964844 2786.699219 1165.71875 2787.660156 1167.648438 C 2790.328125 1172.992188 2795.921875 1197.617188 2805.820312 1192.671875 C 2820.878906 1185.140625 2810.640625 1158.914062 2820.03125 1149.519531 C 2823.011719 1146.542969 2828.699219 1173.609375 2835.570312 1159.878906 C 2837.039062 1156.9375 2838.269531 1153.882812 2839.449219 1150.816406 C 2842.890625 1141.890625 2846.46875 1138.566406 2849.808594 1146.929688 C 2853.730469 1156.714844 2859.171875 1115.1875 2867.941406 1121.035156 C 2871.308594 1123.285156 2871.738281 1141.339844 2872.53125 1150.390625 C 2873.410156 1149.695312 2874.28125 1149.003906 2875.140625 1148.308594 C 2887.980469 1138.015625 2909.878906 1148.644531 2920.21875 1137.992188 C 2930.890625 1126.992188 2925.699219 1118.808594 2939.789062 1112.914062 C 2940.621094 1105.695312 2941.359375 1098.46875 2941.738281 1091.253906 C 2942.46875 1077.457031 2942.878906 1071.667969 2943.039062 1071.832031 C 2949.210938 1078 2949.019531 1098.476562 2953.53125 1109.191406 C 2957.960938 1108.46875 2963.460938 1107.898438 2969.828125 1107.449219 C 2974.511719 1096.617188 2976.339844 1078.664062 2980.589844 1074.421875 C 2983.96875 1071.035156 2990.058594 1090.914062 2992.238281 1092.546875 C 2998.308594 1097.101562 3011.878906 1064.273438 3014.25 1066.652344 C 3018.898438 1071.292969 3010.390625 1093.84375 3019.429688 1093.84375 C 3026.570312 1093.84375 3029.070312 1087.734375 3031.089844 1095.136719 C 3031.558594 1096.871094 3032.179688 1098.558594 3032.78125 1100.25 "/>
</svg>
