<?xml version="1.0" encoding="UTF-8"?>
<svg xmlns="http://www.w3.org/2000/svg" xmlns:xlink="http://www.w3.org/1999/xlink" width="4000" height="2000" viewBox="0 0 4000 2000">
<path fill-rule="evenodd" fill="rgb(65.039062%, 84.179688%, 84.959412%)" fill-opacity="1" d="M 3974.808594 733.480469 C 3936.761719 725.621094 3892.769531 740.480469 3853.558594 736.011719 C 3788.410156 728.589844 3721.570312 725.769531 3657.089844 714.558594 C 3545.890625 695.21875 3440.460938 651.230469 3334.988281 623.691406 C 3279.148438 609.121094 3097.949219 504.359375 3055.261719 513.378906 C 3015.109375 521.871094 2981.410156 564.980469 2947.71875 572.101562 C 2870.601562 588.398438 2791.179688 631.191406 2711.070312 665.601562 C 2671.75 682.488281 2622.160156 659.628906 2596.078125 674.910156 C 2412.941406 782.230469 2202.371094 887.089844 1967.648438 936.699219 C 1927.621094 945.160156 1890.558594 969.488281 1851.851562 977.671875 C 1778.890625 993.089844 1607.578125 918.648438 1533.921875 899.421875 C 1515.558594 894.628906 1495.628906 911.230469 1478.160156 905.210938 C 1379.101562 871.039062 1267.898438 839.390625 1171.988281 797.480469 C 1132.558594 780.261719 1033.570312 702.890625 1000.628906 703.25 C 904.246094 704.300781 803.367188 738.710938 713.03125 768.539062 C 680.65625 779.230469 650.097656 766.839844 618.132812 773.601562 C 572.640625 783.21875 496.847656 813.558594 448.402344 828.96875 C 393.046875 846.578125 336 866.601562 282.753906 889.46875 C 282.117188 889.75 281.476562 890.539062 281.621094 891.210938 C 285.796875 910.96875 334.097656 928.941406 346.117188 948.058594 C 381.964844 1005.070312 387.464844 1095.210938 438 1141.5625 C 536.832031 1232.210938 1051.039062 1164.570312 1171.820312 1151.394531 C 1649.960938 1099.25 2137.390625 1116.90625 2619.410156 1125.824219 C 2801.671875 1129.195312 2982.710938 1113.695312 3164.769531 1109.515625 C 3245.378906 1107.664062 3326.238281 1124.753906 3407.171875 1121.257812 C 3587.570312 1113.46875 3758.449219 1100.992188 3934.820312 1063.710938 C 3949.050781 1060.703125 4064.820312 1022.085938 4067.320312 1023.710938 "/>
<path fill-rule="evenodd" fill="rgb(51.367188%, 68.554688%, 69.334412%)" fill-opacity="1" d="M 3034.980469 923.761719 C 3038.691406 919.019531 3042.429688 915.070312 3045.609375 912.839844 C 3051.441406 908.761719 3063.058594 902.550781 3070.671875 904.070312 C 3075.929688 905.128906 3070.96875 912.21875 3071.921875 911.589844 C 3080.578125 905.820312 3086.601562 895.769531 3095.71875 890.289062 C 3100.570312 887.378906 3094.800781 902.441406 3103.238281 899.058594 C 3108.398438 897 3116.71875 885.761719 3123.28125 889.039062 C 3124.929688 889.859375 3128.429688 901.429688 3133.308594 896.558594 C 3133.570312 896.300781 3137.699219 888.429688 3139.570312 890.289062 C 3142.21875 892.941406 3142.078125 899.058594 3147.089844 900.320312 C 3155.828125 902.5 3153.558594 888 3159.621094 894.050781 C 3167.679688 902.109375 3164.890625 892.328125 3163.371094 887.789062 C 3162.828125 886.148438 3160.398438 882.78125 3162.121094 882.78125 C 3182.679688 882.78125 3189.710938 919.078125 3208.480469 900.320312 C 3209.558594 899.230469 3216.339844 908.910156 3221 906.578125 C 3223.789062 905.191406 3226.148438 895.171875 3228.519531 892.800781 C 3231.410156 889.910156 3236.371094 905.210938 3237.289062 906.578125 C 3239.429688 909.78125 3248.179688 891.941406 3248.558594 891.550781 C 3248.921875 891.191406 3257.101562 910.910156 3259.839844 911.589844 C 3264.570312 912.769531 3267.429688 892.871094 3269.859375 895.308594 C 3271.960938 897.398438 3276.308594 917.859375 3277.378906 917.859375 C 3279.578125 917.859375 3284.109375 892.800781 3284.898438 892.800781 C 3285.550781 892.800781 3289.941406 907.53125 3293.410156 928.988281 C 3346.980469 921.46875 3403.328125 950.640625 3454.601562 967.101562 C 3457.761719 968.109375 3469.128906 974.089844 3468.410156 976.320312 L 3092.351562 1121.621094 C 3093.800781 1123.59375 3095.128906 1125.609375 3096.339844 1127.671875 C 3108.988281 1149.398438 3122.839844 1182.8125 3091.320312 1195.554688 C 2989.230469 1236.820312 2756.910156 1198.273438 2563.480469 1177.984375 C 2494.660156 1186.863281 2237.230469 1172.144531 2186.910156 1168.839844 C 2103.019531 1163.324219 2015.199219 1166.980469 1932.839844 1161.566406 C 1910.570312 1160.105469 1893.851562 1173.980469 1869.460938 1172.378906 C 1645.738281 1157.675781 1430.039062 1162.84375 1198.339844 1165.429688 C 1171.140625 1165.730469 1145.320312 1154.578125 1118.121094 1154.054688 C 1071.328125 1153.160156 1030.671875 1164.363281 983.210938 1156.28125 C 948.6875 1150.402344 916.324219 1130.144531 881.105469 1123.507812 C 861.003906 1119.71875 820.136719 1125.34375 803.058594 1112.832031 C 787.929688 1101.746094 791.8125 1042.285156 791.699219 1009.898438 L 746.277344 1002.0625 C 771.863281 979.480469 781.714844 962.210938 819.476562 964.558594 C 825.503906 964.941406 831.105469 970.539062 836.847656 970.078125 C 863.992188 967.921875 868.535156 951.960938 872.347656 951.261719 C 880.738281 949.710938 881.960938 960.71875 887.234375 961.050781 C 890.539062 961.25 898.503906 951.730469 903.363281 950.980469 C 910.183594 949.929688 908.28125 960.039062 909.292969 962.429688 C 909.367188 962.601562 947.371094 962.460938 957.679688 967.660156 C 962.695312 970.191406 955.535156 981.921875 964.503906 982.480469 C 968.082031 982.710938 982.832031 975.71875 983.460938 980.339844 C 983.714844 982.230469 978.164062 993.738281 981.460938 994.609375 C 982.882812 994.988281 984.421875 995.160156 985.871094 994.890625 C 991.832031 993.789062 997.945312 990.480469 1003.929688 989.371094 C 1006.738281 988.859375 1012.289062 1001.460938 1015.308594 1002.265625 C 1024.730469 1004.769531 1037.441406 986.539062 1044.808594 990.820312 C 1061.191406 1000.335938 1060.929688 991.25 1079.339844 987.441406 C 1082.269531 986.839844 1070.089844 1010.140625 1093.808594 1003.847656 C 1097.339844 1002.910156 1120.449219 993.851562 1120.828125 996.679688 C 1122.96875 1012.417969 1112.828125 1024.230469 1127.238281 1018.113281 C 1127.339844 1018.074219 1145.699219 1005.960938 1148.820312 1009.496094 C 1149.941406 1010.765625 1147.820312 1015.074219 1144.101562 1020.804688 C 1145.320312 1020.855469 1146.820312 1021.390625 1148.699219 1022.585938 C 1153.71875 1025.765625 1158.398438 1029.539062 1163.75 1032.125 C 1167.109375 1033.75 1143.609375 1003.546875 1148.460938 1003.769531 C 1156.179688 1004.121094 1190.730469 1031.5625 1176.648438 1016.125 C 1175.859375 1015.261719 1161.960938 998.191406 1165.269531 999.011719 C 1177.550781 1002.058594 1232.210938 1037.613281 1205.761719 1008.613281 C 1189.648438 990.949219 1219.011719 1000.984375 1226.988281 1004.058594 C 1240.019531 1009.078125 1214.109375 985.769531 1227.800781 986.398438 C 1233.949219 986.679688 1241.710938 990.949219 1246.210938 994.988281 C 1250.890625 999.191406 1250.601562 996.390625 1255.140625 993.179688 C 1257.730469 991.359375 1260.21875 989.308594 1263.121094 988.019531 C 1265.300781 987.050781 1268.109375 1002.632812 1270.191406 1002.726562 C 1273.910156 1002.898438 1285.429688 990.230469 1290.78125 987.859375 C 1293.78125 986.519531 1294.859375 985.390625 1297.539062 986.890625 C 1305.46875 991.320312 1283.839844 1013.308594 1292.910156 1013.726562 C 1313.800781 1014.6875 1327.359375 1004.476562 1322.261719 1025.03125 C 1321.691406 1027.300781 1362.480469 1025.882812 1366.410156 1027.058594 C 1368.960938 1027.820312 1361.78125 1029.675781 1359.589844 1031.171875 C 1331.78125 1050.097656 1370.191406 1042.726562 1380 1044.277344 C 1393.550781 1046.417969 1361.828125 1061.203125 1366.988281 1062.484375 C 1376.488281 1064.839844 1389.480469 1060.941406 1399.160156 1060.644531 C 1422.558594 1059.921875 1381.710938 1074.621094 1385.199219 1075.488281 C 1394.449219 1077.785156 1408.621094 1073.945312 1417.46875 1071.441406 C 1422.398438 1070.042969 1433.921875 1061.792969 1432.070312 1066.582031 C 1430.679688 1070.1875 1423.160156 1077.660156 1416.519531 1085.542969 C 1417.851562 1085.6875 1419.148438 1085.757812 1420.410156 1085.746094 C 1423.28125 1085.714844 1425.648438 1085.445312 1427.648438 1084.976562 C 1430.058594 1083.566406 1432.671875 1082.113281 1435.441406 1080.632812 C 1439.820312 1075.75 1440.519531 1068.097656 1447.550781 1060.910156 C 1448.828125 1059.597656 1454.148438 1064.078125 1459.808594 1068.578125 C 1491.390625 1053.972656 1527.839844 1040.277344 1535.960938 1040.175781 C 1544.460938 1040.066406 1556.601562 1059.195312 1566.691406 1059.84375 C 1587.011719 1061.144531 1600.75 1053.703125 1620.601562 1057.851562 C 1636.839844 1061.242188 1633.941406 1039.171875 1646.398438 1037.71875 C 1652.941406 1036.957031 1660.148438 1053.351562 1663.46875 1047.664062 C 1664.738281 1045.476562 1653.21875 1038.082031 1657.011719 1031.589844 C 1657.808594 1030.207031 1659.351562 1029.402344 1660.609375 1028.417969 C 1664.730469 1025.203125 1664.238281 1027.015625 1668.710938 1029.617188 C 1692.109375 1043.253906 1703.769531 1047.523438 1732.800781 1049.382812 C 1741.019531 1049.910156 1705.898438 1034.160156 1714.089844 1033.207031 C 1724.21875 1032.027344 1749.46875 1039.757812 1730.710938 1028.824219 C 1729.628906 1028.191406 1707.628906 1017.136719 1709.160156 1014.507812 C 1710.730469 1011.816406 1715.390625 1012.441406 1717.46875 1012.316406 C 1732.300781 1011.421875 1745.011719 1014.761719 1759.460938 1015.6875 C 1764.738281 1016.027344 1748.300781 1009.378906 1748.628906 1004.101562 C 1749.300781 993.761719 1770.609375 1002.84375 1774.441406 1005.074219 C 1780.148438 1008.398438 1790.738281 1016.332031 1790.738281 1016.332031 C 1790.738281 1016.332031 1786.789062 996.339844 1793.359375 996.761719 C 1804.230469 997.449219 1811.5 1012.605469 1819.941406 1017.519531 C 1826.628906 1021.421875 1820.039062 993.378906 1827.46875 995.539062 C 1839.589844 999.058594 1848.78125 1017.484375 1858.738281 1030.589844 C 1873.140625 1032.628906 1884.351562 1031.148438 1887.289062 1017.074219 C 1888.128906 1013.007812 1897.210938 1003.71875 1901.710938 1004.386719 C 1908.460938 1005.382812 1912.980469 1015.226562 1914.769531 1020.167969 C 1915.949219 1024.460938 1915.910156 1023.296875 1914.769531 1020.171875 L 1914.769531 1020.167969 C 1914.660156 1019.765625 1914.539062 1019.316406 1914.410156 1018.8125 C 1909.558594 1000.425781 1935.769531 1020.714844 1941.308594 1023.941406 C 1946.839844 1027.167969 1938.96875 1003.820312 1945.238281 1005.132812 C 1951.761719 1006.492188 1960.769531 1017.699219 1960.769531 1017.699219 C 1960.769531 1017.699219 1952.269531 1007.027344 1956.171875 1004.46875 C 1967.011719 997.378906 1981.371094 1002.964844 1992.148438 1006.09375 C 1997.410156 1007.621094 1982.171875 996.070312 1984.929688 991.339844 C 1988.800781 984.691406 2023.261719 1003.125 2022.328125 1002.582031 C 2021.320312 1001.992188 1997.488281 985.800781 2003.078125 984.328125 C 2047.519531 972.609375 2057.910156 1015.074219 2062.359375 1015.359375 C 2068.429688 1015.746094 2078.328125 996.53125 2082.46875 998.949219 C 2084.421875 1000.082031 2080.289062 1011.742188 2082.921875 1013.273438 C 2091.859375 1018.480469 2119.269531 974.75 2146.539062 976.5 C 2159.628906 977.339844 2140.511719 997.058594 2142.949219 1000.777344 C 2144.121094 1002.578125 2147.160156 999.871094 2149.179688 999.140625 C 2156.25 996.570312 2160.71875 996.25 2163.378906 997.910156 C 2171.019531 991.609375 2188.390625 989.269531 2196.46875 984.820312 C 2198.738281 983.578125 2193.589844 978.960938 2199.75 976.179688 C 2209.648438 971.730469 2252.460938 972.140625 2228.5 963.050781 C 2224.238281 961.429688 2212.28125 957.328125 2216.691406 956.171875 C 2219.460938 955.441406 2292.730469 954.199219 2305.050781 958.421875 C 2311.710938 960.710938 2306.671875 972.820312 2312.269531 973.179688 C 2318.160156 973.558594 2322.121094 966.261719 2327.03125 965.960938 C 2331.109375 965.710938 2323.261719 980 2326.929688 978.210938 C 2350.609375 966.609375 2348.851562 966.039062 2367.160156 945.378906 C 2368.539062 943.820312 2369.511719 941.429688 2371.53125 940.898438 C 2375.679688 939.800781 2374.851562 949.058594 2374.808594 953.359375 C 2374.769531 958.53125 2388.351562 969.261719 2395.808594 965.601562 C 2397.199219 964.921875 2409.769531 974.839844 2410.25 974.011719 C 2412.019531 970.96875 2401.390625 953.019531 2411.769531 950.28125 C 2423.53125 947.191406 2443.28125 968.640625 2443.28125 968.640625 C 2443.28125 968.640625 2433.628906 956.28125 2438.128906 953.328125 C 2440.691406 951.660156 2459.371094 966.789062 2463.070312 967.871094 C 2464.558594 968.300781 2458.089844 950.289062 2467.761719 947.738281 C 2473.839844 946.140625 2482.929688 953.800781 2487.398438 958.058594 C 2488.890625 959.671875 2490.078125 960.75 2490.078125 960.75 C 2490.078125 960.75 2489.050781 959.640625 2487.398438 958.058594 C 2485.019531 955.511719 2481.839844 951.628906 2481.320312 948.609375 C 2480 940.960938 2489.449219 934.011719 2496.300781 938 C 2507.28125 944.390625 2508.578125 941.378906 2513.898438 928.910156 C 2517.5 920.480469 2536 945.308594 2536 945.308594 C 2536 945.308594 2536.109375 922.960938 2544.300781 922.011719 C 2552.941406 921.011719 2560.480469 936.820312 2564.101562 942.339844 C 2567 946.769531 2564.121094 930.710938 2567.808594 926.921875 C 2572.789062 921.820312 2577.390625 937.980469 2577.878906 939.820312 C 2578.308594 941.46875 2579.859375 950.410156 2582.691406 949.660156 C 2590.359375 947.640625 2592.210938 932.199219 2600.179688 931.71875 C 2603.160156 931.539062 2603.800781 935.710938 2603.898438 937.410156 C 2604.21875 942.609375 2603.421875 947.828125 2603.578125 953.039062 C 2604.421875 980.21875 2623.230469 934.851562 2625.339844 942.859375 C 2628.839844 956.128906 2628.449219 966.238281 2631.378906 973.851562 C 2646.578125 965.730469 2660.449219 954.230469 2677.839844 950.621094 C 2700.738281 939.890625 2732.679688 931.601562 2748.621094 921.171875 C 2753.769531 917.800781 2753.269531 925.28125 2759.039062 922.460938 C 2764.328125 919.871094 2770.171875 911.761719 2776.910156 913.710938 C 2793.019531 918.390625 2791.691406 911.011719 2809.648438 904.070312 C 2814.539062 902.179688 2820 902.300781 2825.230469 901.980469 C 2828.691406 901.769531 2829.679688 915.710938 2835.261719 909.421875 C 2838.910156 905.300781 2840.710938 897.738281 2845.480469 894.628906 C 2849.78125 891.808594 2852.75 902.058594 2857.191406 904.648438 C 2862.121094 907.519531 2883.730469 911.96875 2891.828125 913.660156 C 2892.539062 913.808594 2893.730469 909.128906 2894.609375 908.898438 C 2904.71875 906.230469 2907.929688 910.371094 2920.421875 911.171875 C 2924.078125 911.398438 2922.671875 903.261719 2925.96875 901.640625 C 2926.550781 901.351562 2927.21875 901.011719 2927.851562 901.140625 C 2937.101562 903.070312 2946.789062 912.78125 2955.949219 915.921875 C 2961.089844 917.679688 2956.859375 904.398438 2957.429688 902.421875 C 2960.078125 893.300781 2971.160156 911.949219 2977.191406 912.328125 C 2986.628906 912.941406 2969.269531 888.109375 2977.769531 883.949219 C 2978.691406 883.5 2979.820312 884.078125 2980.839844 884.148438 C 3001.378906 885.460938 3009.039062 908.578125 3023.449219 919.910156 C 3023.640625 919.921875 3023.828125 919.941406 3024.03125 919.949219 C 3028.070312 920.210938 3031.609375 921.738281 3034.980469 923.761719 Z M 2166.449219 1003.328125 C 2166.699219 1004.800781 2166.78125 1006.507812 2166.71875 1008.441406 C 2169.671875 1007.347656 2171.570312 1006.4375 2171.988281 1005.722656 C 2173 1003.976562 2169.738281 1003.644531 2166.449219 1003.328125 "/>
</svg>
