<svg width="969" height="112" viewBox="0 0 969 112" fill="none" xmlns="http://www.w3.org/2000/svg">
<path d="M886.372 107V108.5H887.872H965.849H967.349V107V82.4609V80.9609H965.849H954.81H953.465L953.319 82.2977L951.918 95.0938H914.685V61.0391H950.943H952.443V59.5391V48.6406V47.1406H950.943H914.685V16.8125H949.67L951.069 29.4L951.217 30.7344H952.56H963.669H965.169V29.2344V4.625V3.125H963.669H887.872H886.372V4.625V13.5547V14.819L887.618 15.033L897.833 16.7877V94.9076L887.618 96.6623L886.372 96.8763V98.1406V107Z" stroke="white" stroke-width="3"/>
<path d="M743.607 107V108.5H745.107H781.88H783.38V107V98.1406V96.8604L782.116 96.6593L771.005 94.8916V66.5V66.4914L771.005 66.4828L770.589 30.2358L802.37 103.938L802.761 104.844H803.747H812.958H813.959L814.343 103.92L845.068 30.1293V66.5V94.8963L834.233 96.6601L832.974 96.8651V98.1406V107V108.5H834.474H871.247H872.747V107V98.1406V96.8763L871.501 96.6623L861.287 94.9076V16.7877L871.501 15.033L872.747 14.819V13.5547V4.625V3.125H871.247H840.38H839.375L838.993 4.05495L808.228 78.9331L776.441 4.03895L776.053 3.125H775.06H756.568H745.107H743.607V4.625V13.5547V14.819L744.853 15.033L755.068 16.7877V94.9076L744.853 96.6623L743.607 96.8763V98.1406V107Z" stroke="white" stroke-width="3"/>
<path d="M624.576 107V108.5H626.076H662.85H664.35V107V98.1406V96.8763L663.104 96.6623L652.889 94.9076V16.6016H673.298L675.218 29.525L675.408 30.8047H676.701H686.967H688.467V29.3047V4.625V3.125H686.967H601.889H600.389V4.625V29.3047V30.8047H601.889H612.295H613.595L613.78 29.5178L615.634 16.6016H636.037V94.9076L625.822 96.6623L624.576 96.8763V98.1406V107Z" stroke="white" stroke-width="3"/>
<path d="M527.627 102.98L527.631 102.982C534.82 107.677 543.701 109.977 554.186 109.977C559.975 109.977 565.603 109.307 571.067 107.965L571.079 107.962C576.541 106.572 581.283 104.644 585.283 102.157L585.991 101.716V100.883V78.6641V77.1641H584.491H573.662H572.316L572.171 78.5024L570.706 92.025C568.904 93.0307 566.659 93.888 563.942 94.5773C560.923 95.3432 557.837 95.7266 554.678 95.7266C547.879 95.7266 542.2 94.1882 537.567 91.1881C532.974 88.1843 529.428 83.8179 526.951 78.0118C524.517 72.1475 523.272 65.0199 523.272 56.5859V54.9688C523.272 47.1956 524.445 40.4047 526.753 34.5671C529.053 28.7475 532.409 24.2541 536.795 21.0198L536.795 21.0198L536.803 21.014C541.145 17.7684 546.488 16.1094 552.92 16.1094C555.611 16.1094 558.075 16.3147 560.319 16.7185L560.324 16.7194C562.624 17.1253 564.673 17.7072 566.479 18.4559L566.479 18.456L566.49 18.4607C568.12 19.1205 569.562 19.9094 570.823 20.8221L572.239 36.3317L572.363 37.6953H573.733H584.772H586.272V36.1953V14.1172V13.4407L585.765 12.9929C581.993 9.66163 577.278 6.95138 571.659 4.83819C565.986 2.70462 559.757 1.64844 552.991 1.64844C543.367 1.64844 535.004 3.96168 527.971 8.65036C520.976 13.3136 515.62 19.6985 511.902 27.7612C508.188 35.7706 506.35 44.8975 506.35 55.1094V56.5859C506.35 66.6968 508.091 75.7892 511.608 83.8352L511.611 83.8421C515.191 91.9209 520.532 98.3143 527.627 102.98Z" stroke="white" stroke-width="3"/>
<path d="M398.389 107V108.5H399.889H429.21H430.71V107V98.1406V96.8775L429.465 96.6625L423.507 95.6334L429.481 79.4609H468.372L474.164 95.6303L468.189 96.6625L466.944 96.8775V98.1406V107V108.5H468.444H497.835H499.335V107V98.1406V96.8362L498.043 96.6552L491.398 95.7236L456.557 4.09189L456.189 3.125H455.155H443.272H442.244L441.873 4.08354L406.403 95.7216L399.683 96.6549L398.389 96.8346V98.1406V107ZM449.105 26.22L463.072 64.8594H434.876L449.105 26.22Z" stroke="white" stroke-width="3"/>
<path d="M338.101 107V108.5H339.601H376.374H377.874V107V98.1406V96.8763L376.628 96.6623L366.413 94.9076V16.6016H386.823L388.742 29.525L388.932 30.8047H390.226H400.491H401.991V29.3047V4.625V3.125H400.491H315.413H313.913V4.625V29.3047V30.8047H315.413H325.819H327.119L327.304 29.5178L329.158 16.6016H349.562V94.9076L339.347 96.6623L338.101 96.8763V98.1406V107Z" stroke="white" stroke-width="3"/>
<path d="M196.742 107V108.5H198.242H235.015H236.515V107V98.1406V96.857L235.247 96.6586L223.929 94.8883V31.2269L273.128 107.811L273.571 108.5H274.39H287.046H288.546V107V16.7877L298.761 15.033L300.007 14.819V13.5547V4.625V3.125H298.507H287.046H261.734H260.234V4.625V13.5547V14.8383L261.502 15.0367L272.82 16.807V79.8988L224.964 3.82628L224.523 3.125H223.695H209.703H198.242H196.742V4.625V13.5547V14.819L197.988 15.033L208.203 16.7877V94.9076L197.988 96.6623L196.742 96.8763V98.1406V107Z" stroke="white" stroke-width="3"/>
<path d="M108.087 94.9205L108.092 94.9271L108.098 94.9336C111.938 99.6983 116.591 103.402 122.044 106.031C127.522 108.672 133.679 109.977 140.484 109.977C147.65 109.977 154.019 108.677 159.553 106.033C165.058 103.402 169.673 99.6919 173.38 94.9118C177.119 90.104 179.918 84.4439 181.792 77.9554C183.665 71.4723 184.593 64.3455 184.593 56.5859V55.1094C184.593 47.3969 183.665 40.2946 181.793 33.8131C179.919 27.2791 177.121 21.5949 173.382 16.7858C169.675 11.959 165.06 8.22393 159.553 5.59191C154.019 2.94754 147.65 1.64844 140.484 1.64844C133.679 1.64844 127.522 2.95256 122.044 5.59416C116.587 8.22497 111.934 11.9545 108.093 16.7675L108.093 16.7675L108.087 16.7748C104.303 21.5778 101.411 27.2554 99.3946 33.784L99.3946 33.7839L99.3926 33.7907C97.4219 40.2792 96.445 47.3894 96.445 55.1094V56.5859C96.445 64.3518 97.4217 71.4856 99.3925 77.975L99.3955 77.9847C101.412 84.4667 104.304 90.1194 108.087 94.9205ZM156 90.7115L155.994 90.7166C152.153 93.8234 147.031 95.4453 140.484 95.4453C134.637 95.4453 129.775 93.846 125.809 90.7094C121.795 87.4883 118.707 83.0008 116.582 77.169C114.45 71.2716 113.367 64.419 113.367 56.5859V54.9688C113.367 47.1826 114.45 40.4031 116.58 34.603L116.581 34.5994C118.707 28.7642 121.797 24.2747 125.813 21.0529C129.78 17.8708 134.64 16.25 140.484 16.25C146.926 16.25 152.028 17.8897 155.922 21.0478L155.922 21.0478L155.93 21.0541C159.882 24.2158 162.827 28.6612 164.722 34.48L164.722 34.48L164.726 34.4933C166.679 40.3054 167.672 47.1222 167.672 54.9688V56.5859C167.672 64.4812 166.702 71.3736 164.792 77.2856C162.898 83.1044 159.952 87.5498 156 90.7115Z" stroke="white" stroke-width="3"/>
<path d="M23.4024 102.98L23.4064 102.982C30.595 107.677 39.4761 109.977 49.9609 109.977C55.7497 109.977 61.3778 109.307 66.8422 107.965L66.8542 107.962C72.3158 106.572 77.0585 104.644 81.0578 102.157L81.7656 101.716V100.883V78.6641V77.1641H80.2656H69.4375H68.0913L67.9462 78.5024L66.4807 92.025C64.6791 93.0307 62.4336 93.888 59.717 94.5773C56.6985 95.3432 53.6116 95.7266 50.4531 95.7266C43.6543 95.7266 37.9754 94.1882 33.3416 91.1881C28.7488 88.1843 25.203 83.8179 22.7263 78.0118C20.2916 72.1475 19.0469 65.0199 19.0469 56.5859V54.9688C19.0469 47.1956 20.2199 40.4047 22.5278 34.5671C24.8285 28.7475 28.1837 24.2541 32.5699 21.0198L32.5699 21.0198L32.5777 21.014C36.9197 17.7684 42.2631 16.1094 48.6953 16.1094C51.3857 16.1094 53.8503 16.3147 56.0936 16.7185L56.0987 16.7194C58.399 17.1253 60.4478 17.7072 62.2536 18.4559L62.2536 18.456L62.2653 18.4607C63.8954 19.1205 65.3369 19.9094 66.5979 20.8221L68.014 36.3317L68.1385 37.6953H69.5078H80.5469H82.0469V36.1953V14.1172V13.4407L81.5398 12.9929C77.7677 9.66163 73.0534 6.95138 67.4342 4.83819C61.7609 2.70462 55.5324 1.64844 48.7656 1.64844C39.1418 1.64844 30.7791 3.96168 23.7461 8.65036C16.7513 13.3136 11.3953 19.6985 7.67751 27.7612C3.96267 35.7706 2.125 44.8975 2.125 55.1094V56.5859C2.125 66.6968 3.86628 75.7892 7.38337 83.8352L7.38642 83.8421C10.9663 91.9209 16.3068 98.3143 23.4024 102.98Z" stroke="white" stroke-width="3"/>
</svg>
