<svg width="1238" height="114" viewBox="0 0 1238 114" fill="none" xmlns="http://www.w3.org/2000/svg">
<g clip-path="url(#clip0_8_101)">
<path fill-rule="evenodd" clip-rule="evenodd" d="M1043.62 110V92.9877L1054.66 90.8783V20.817L1043.62 18.7076V1.625H1128.3V34.625H1107.78L1106.72 22.3203H1079.78V43.6719H1115.08V64.5078H1079.78V89.375H1108.55L1109.6 76.7891H1129.98V110H1043.62ZM1111.3 92.375H1076.78V61.5078H1112.08V46.6719H1076.78V19.3203H1109.48L1110.53 31.625H1125.3V4.625H1046.62V16.2266L1057.66 18.3359V93.3594L1046.62 95.4688V107H1126.98V79.7891H1112.36L1111.3 92.375Z" fill="white"/>
<path fill-rule="evenodd" clip-rule="evenodd" d="M768.414 110V92.9877L779.453 90.8783V20.817L768.414 18.7076V1.625H816.742V18.7511L804.578 20.8605V89.375H829.237L830.362 74.1172H850.773V110H768.414ZM832.023 92.375H801.578V18.3359L813.742 16.2266V4.625H771.414V16.2266L782.453 18.3359V93.3594L771.414 95.4688V107H847.773V77.1172H833.148L832.023 92.375Z" fill="white"/>
<path fill-rule="evenodd" clip-rule="evenodd" d="M676.445 110V92.9877L687.484 90.8783V20.817L676.445 18.7076V1.625H761.125V34.625H740.606L739.551 22.3203H712.609V43.6719H747.906V64.5078H712.609V89.375H741.374L742.428 76.7891H762.812V110H676.445ZM744.133 92.375H709.609V61.5078H744.906V46.6719H709.609V19.3203H742.305L743.359 31.625H758.125V4.625H679.445V16.2266L690.484 18.3359V93.3594L679.445 95.4688V107H759.812V79.7891H745.188L744.133 92.375Z" fill="white"/>
<path fill-rule="evenodd" clip-rule="evenodd" d="M610.491 110L577.14 20.0988L567.461 18.8697V1.625H612.414V18.787L604.108 20.1084L622.799 75.6069L641.544 20.1309L631.867 18.8577V1.625H675.344V18.8775L665.486 20.1001L633.827 110H610.491ZM663.273 17.3516L672.344 16.2266V4.625H634.867V16.2266L645.555 17.6328L624.742 79.2266L622.984 85.2031H622.562L620.805 79.0859L600.133 17.7031L609.414 16.2266V4.625H570.461V16.2266L579.32 17.3516L612.578 107H631.703L663.273 17.3516Z" fill="white"/>
<path fill-rule="evenodd" clip-rule="evenodd" d="M476.898 110V92.9877L487.938 90.8783V20.817L476.898 18.7076V1.625H561.578V34.625H541.059L540.004 22.3203H513.062V43.6719H548.359V64.5078H513.062V89.375H541.827L542.882 76.7891H563.266V110H476.898ZM544.586 92.375H510.062V61.5078H545.359V46.6719H510.062V19.3203H542.758L543.812 31.625H558.578V4.625H479.898V16.2266L490.938 18.3359V93.3594L479.898 95.4688V107H560.266V79.7891H545.641L544.586 92.375Z" fill="white"/>
<path fill-rule="evenodd" clip-rule="evenodd" d="M247.961 110V92.9877L259 90.8783V20.817L247.961 18.7076V1.625H296.172C308.289 1.625 318.168 4.03193 325.466 9.20674C333.003 14.5024 336.648 22.482 336.648 32.6094C336.648 37.8935 335.157 42.6967 332.164 46.9225C330.533 49.2614 328.538 51.2543 326.203 52.9095C327.911 53.7556 329.488 54.7722 330.925 55.9656C334.049 58.5602 336.422 61.7291 338.017 65.4437C339.648 69.1338 340.445 73.1319 340.445 77.3984C340.445 87.8259 336.953 96.142 329.664 101.837C322.577 107.411 312.878 110 300.953 110H247.961ZM327.812 99.4766C334.234 94.4609 337.445 87.1016 337.445 77.3984C337.445 73.5078 336.719 69.9219 335.266 66.6406C333.859 63.3594 331.773 60.5703 329.008 58.2734C327.291 56.8476 325.321 55.6927 323.099 54.8088C321.741 54.2688 320.289 53.8299 318.742 53.4922C320.212 52.9245 321.578 52.2664 322.841 51.518C325.643 49.8561 327.933 47.7485 329.711 45.1953C332.336 41.4922 333.648 37.2969 333.648 32.6094C333.648 23.2812 330.344 16.2969 323.734 11.6562C317.125 6.96875 307.938 4.625 296.172 4.625H250.961V16.2266L262 18.3359V93.3594L250.961 95.4688V107H300.953C312.484 107 321.438 104.492 327.812 99.4766ZM311.877 86.2225L311.886 86.2149C314.05 84.3885 315.32 81.6223 315.32 77.3984C315.32 72.6568 314.169 69.4661 312.294 67.3819C310.539 65.4325 307.551 64.1562 302.641 64.1562H284.125V89.3047H300.953C306.175 89.3047 309.657 88.1254 311.868 86.23L311.877 86.2225ZM281.125 92.3047V61.1562H302.641C308.031 61.1562 311.992 62.5625 314.523 65.375C317.055 68.1875 318.32 72.1953 318.32 77.3984C318.32 82.2734 316.82 85.9766 313.82 88.5078C310.867 91.0391 306.578 92.3047 300.953 92.3047H281.125ZM308.145 41.7313L308.154 41.7241C310.32 39.9982 311.523 37.5095 311.523 33.8047C311.523 29.5446 310.22 26.9253 308.071 25.2975C305.718 23.5147 301.907 22.3906 296.172 22.3906H284.125V44.6562H297.508C302.493 44.6562 305.901 43.5476 308.136 41.7386L308.145 41.7313ZM281.125 47.6562V19.3906H296.172C302.219 19.3906 306.789 20.5625 309.883 22.9062C312.977 25.25 314.523 28.8828 314.523 33.8047C314.523 38.2578 313.023 41.6797 310.023 44.0703C307.07 46.4609 302.898 47.6562 297.508 47.6562H281.125Z" fill="white"/>
<path fill-rule="evenodd" clip-rule="evenodd" d="M155.992 110V92.9877L167.031 90.8783V20.817L155.992 18.7076V1.625H240.672V34.625H220.152L219.098 22.3203H192.156V43.6719H227.453V64.5078H192.156V89.375H220.921L221.975 76.7891H242.359V110H155.992ZM223.68 92.375H189.156V61.5078H224.453V46.6719H189.156V19.3203H221.852L222.906 31.625H237.672V4.625H158.992V16.2266L170.031 18.3359V93.3594L158.992 95.4688V107H239.359V79.7891H224.734L223.68 92.375Z" fill="white"/>
<path fill-rule="evenodd" clip-rule="evenodd" d="M35.535 110L11.7082 20.0506L0.953125 18.9303V1.625H46.4688V18.8167L36.1838 20.3331L47.6584 68.0672L68.621 1.625H87.5682L109.129 69.3471L120.853 20.3562L110.008 18.8352V1.625H154.75V18.9095L144.702 20.0342L120.871 110H98.8675L78.2716 45.8918L78.253 45.9535L57.3888 110H35.535ZM78.1328 35.9844H78.5547L81.0859 44.8438L101.055 107H118.562L142.328 17.2812L151.75 16.2266V4.625H113.008V16.2266L124.539 17.8438L111.953 70.4375L109.492 79.7891H109.07L106.328 70.4375L85.375 4.625H70.8203L50.5 69.0312L47.6172 79.0859L47.1953 79.0156L32.5 17.8438L43.4688 16.2266V4.625H3.95312V16.2266L14.0781 17.2812L37.8438 107H55.2109L75.3906 45.0547L78.1328 35.9844Z" fill="white"/>
<path fill-rule="evenodd" clip-rule="evenodd" d="M1142 113.375V96.3627L1153.04 94.2533V24.192L1142 22.0826V5H1192.95C1200.98 5 1208.04 6.23947 1214.04 8.83025C1220.08 11.4221 1224.82 15.2249 1228.09 20.2854C1231.41 25.3496 1233.01 31.3317 1233.01 38.0938C1233.01 44.6006 1231.42 50.4656 1228.18 55.5883C1225.23 60.2538 1221.2 63.9738 1216.16 66.7558L1228.27 94.2699L1237.51 96.2878V113.375H1209.21L1192.43 71.7599L1178.16 71.8098V94.2533L1189.2 96.3627V113.375H1142ZM1175.16 96.7344V68.8203L1194.46 68.7529L1211.23 110.375H1234.51V98.7031L1226.14 96.875L1212.27 65.3535C1212.65 65.1798 1213.04 64.9995 1213.41 64.8125C1213.94 64.5507 1214.45 64.2792 1214.95 63.9978C1219.47 61.4578 1223.03 58.12 1225.65 53.9844C1228.55 49.3906 1230.01 44.0938 1230.01 38.0938C1230.01 31.8125 1228.53 26.4219 1225.58 21.9219C1222.67 17.4219 1218.43 13.9766 1212.85 11.5859C1207.32 9.19531 1200.69 8 1192.95 8H1145V19.6016L1156.04 21.7109V96.7344L1145 98.8438V110.375H1186.2V98.8438L1175.16 96.7344ZM1178.16 51.0547H1192.32C1198.32 51.0547 1202.17 49.819 1204.44 47.9058C1206.66 45.9819 1207.95 43.1092 1207.95 38.7969C1207.95 34.5867 1206.68 31.526 1204.37 29.2797C1202.13 27.1134 1198.51 25.7656 1192.95 25.7656H1178.16V51.0547ZM1192.32 54.0547C1198.65 54.0547 1203.34 52.7656 1206.38 50.1875C1209.43 47.5625 1210.95 43.7656 1210.95 38.7969C1210.95 33.9219 1209.45 30.0312 1206.45 27.125C1203.45 24.2188 1198.95 22.7656 1192.95 22.7656H1175.16V54.0547H1192.32Z" fill="white"/>
<path d="M956.414 106.852V108.352H957.914H999.117H1000.62V106.852V95.3203V94.0798L999.399 93.847L989.578 91.9704V70.3828H1006.29C1014.19 70.3828 1021.06 69.0183 1026.84 66.2268C1032.65 63.4446 1037.16 59.5364 1040.33 54.4926V54.487C1043.5 49.3897 1045.05 43.459 1045.05 36.75C1045.05 30.0868 1043.5 24.1811 1040.33 19.0862C1037.17 13.9492 1032.65 9.99035 1026.84 7.20509C1021.06 4.36499 1014.19 2.97656 1006.29 2.97656H968.953H957.914H956.414V4.47656V16.0781V17.3186L957.633 17.5515L967.453 19.428V91.9704L957.633 93.847L956.414 94.0798V95.3203V106.852ZM1018.75 25.3098V25.3176C1021.52 28.3348 1022.93 32.1538 1022.93 36.8906C1022.93 41.5771 1021.52 45.3175 1018.77 48.2371C1016.09 51.0763 1012.03 52.6172 1006.29 52.6172H989.578V20.7422H1006.29C1012.01 20.7422 1016.07 22.3423 1018.75 25.3098Z" stroke="white" stroke-width="3"/>
<path d="M884.23 105.893L884.24 105.897C890.034 108.527 896.46 109.828 903.492 109.828C910.615 109.828 917.11 108.528 922.951 105.899L922.961 105.895C928.78 103.228 933.761 99.4872 937.888 94.6803C942.053 89.8366 945.215 84.1806 947.382 77.7308C949.597 71.229 950.695 64.1268 950.695 56.4375V54.8906C950.695 47.2487 949.597 40.1935 947.382 33.7384C945.216 27.2428 942.054 21.5844 937.885 16.7845C933.713 11.935 928.712 8.1721 922.893 5.50458C917.093 2.82426 910.593 1.5 903.422 1.5C896.386 1.5 889.957 2.8264 884.16 5.50558L884.155 5.50762C878.428 8.17693 873.476 11.9408 869.308 16.7876L869.307 16.7885C865.188 21.5867 862.027 27.2419 859.815 33.7333C857.599 40.1897 856.5 47.2467 856.5 54.8906V56.4375C856.5 64.128 857.599 71.2312 859.815 77.7338L859.816 77.737C862.028 84.1814 865.187 89.8333 869.302 94.6746L869.308 94.6807L869.313 94.6868C873.483 99.4875 878.459 103.226 884.23 105.893ZM925.774 75.2704L925.771 75.2811C923.928 80.5855 921.15 84.6397 917.477 87.5274C913.853 90.3299 909.228 91.7812 903.492 91.7812C897.958 91.7812 893.424 90.3373 889.793 87.5305C886.164 84.6424 883.384 80.5857 881.494 75.2774C879.639 69.8906 878.695 63.6187 878.695 56.4375V54.75C878.695 47.5673 879.639 41.345 881.492 36.0564C883.382 30.7923 886.162 26.7812 889.792 23.9388L889.801 23.9319C893.383 21.0837 897.889 19.6172 903.422 19.6172C909.105 19.6172 913.705 21.0885 917.331 23.9373L917.338 23.9426C921.064 26.8359 923.888 30.873 925.776 36.1318C927.674 41.4191 928.641 47.6162 928.641 54.75V56.4375C928.641 63.6671 927.673 69.9357 925.774 75.2704Z" stroke="white" stroke-width="3"/>
<path fill-rule="evenodd" clip-rule="evenodd" d="M381 108.375V91.4056L392.109 89.0853V19.36L381 17.0397V0H427.945C437.575 0 446.156 2.27785 453.58 6.92356C460.995 11.5335 466.773 17.876 470.901 25.8831C475.042 33.9162 477.07 43.0722 477.07 53.2734V55.1719C477.07 65.2337 475.065 74.332 470.983 82.3984C466.951 90.4113 461.244 96.7811 453.877 101.441L453.873 101.444C446.49 106.097 437.928 108.375 428.297 108.375H381ZM468.305 81.0469C472.148 73.4531 474.07 64.8281 474.07 55.1719V53.2734C474.07 43.4766 472.125 34.8047 468.234 27.2578C464.344 19.7109 458.93 13.7812 451.992 9.46875C445.102 5.15625 437.086 3 427.945 3H384V14.6016L395.109 16.9219V91.5234L384 93.8438V105.375H428.297C437.438 105.375 445.43 103.219 452.273 98.9062C459.164 94.5469 464.508 88.5938 468.305 81.0469ZM448.792 72.2498L448.797 72.2393C450.826 67.3162 451.875 61.6444 451.875 55.1719V53.1328C451.875 46.5598 450.824 40.8699 448.8 36.0037L448.794 35.9889L448.788 35.9741C446.811 31.0735 444.011 27.379 440.441 24.7525L440.432 24.7459L440.423 24.7393C436.94 22.1365 432.626 20.7656 427.312 20.7656H417.234V87.6797H427.312C432.616 87.6797 436.923 86.2911 440.406 83.649C444 80.9222 446.809 77.1664 448.788 72.2602L448.792 72.2498ZM414.234 90.6797V17.7656H427.312C433.172 17.7656 438.141 19.2891 442.219 22.3359C446.297 25.3359 449.414 29.5078 451.57 34.8516C453.773 40.1484 454.875 46.2422 454.875 53.1328V55.1719C454.875 61.9688 453.773 68.0391 451.57 73.3828C449.414 78.7266 446.297 82.9453 442.219 86.0391C438.141 89.1328 433.172 90.6797 427.312 90.6797H414.234Z" fill="white"/>
</g>
<defs>
<clipPath id="clip0_8_101">
<rect width="1238" height="114" fill="white"/>
</clipPath>
</defs>
</svg>
