<svg width="429" height="116" viewBox="0 0 429 116" fill="none" xmlns="http://www.w3.org/2000/svg">
<path d="M329.444 34.5014L329.438 34.5163L329.433 34.5312C326.807 41.3998 325.524 49.2486 325.524 58.032C325.524 66.8154 326.807 74.6642 329.433 81.5328L329.438 81.5478L329.444 81.5626C332.142 88.3567 335.767 94.121 340.349 98.8042L340.368 98.8239L340.388 98.8431C345.047 103.402 350.426 106.852 356.505 109.182L356.518 109.187C362.668 111.506 369.16 112.66 375.976 112.66C382.698 112.66 389.053 111.505 395.021 109.18C401.103 106.848 406.439 103.393 411.008 98.8238L411.017 98.8141L411.027 98.8042C415.612 94.1169 419.192 88.347 421.793 81.5477C424.52 74.6736 425.852 66.8191 425.852 58.032C425.852 49.2449 424.52 41.3904 421.793 34.5163C419.192 27.7184 415.611 21.9908 411.017 17.3939C406.45 12.7276 401.111 9.21964 395.021 6.88423C389.053 4.55862 382.698 3.40399 375.976 3.40399C369.16 3.40399 362.668 4.55791 356.518 6.87675L356.518 6.87671L356.505 6.88163C350.413 9.21676 345.029 12.7234 340.368 17.3842C335.774 21.9786 332.143 27.7038 329.444 34.5014ZM397.671 85.5195L397.658 85.5355L397.645 85.5517C395.103 88.7073 392.001 91.1572 388.315 92.9162C384.657 94.5668 380.464 95.42 375.688 95.42C370.917 95.42 366.67 94.5686 362.906 92.9115C359.223 91.1519 356.07 88.6992 353.43 85.5353C350.877 82.3623 348.857 78.483 347.403 73.8502C345.952 69.1322 345.212 63.8665 345.212 58.032C345.212 52.1937 345.953 46.9794 347.401 42.3643L347.401 42.3644L347.405 42.3512C348.862 37.6179 350.883 33.695 353.43 30.5285C356.069 27.3655 359.218 24.9647 362.894 23.3018L362.906 23.2963L362.918 23.2908C366.679 21.5416 370.921 20.644 375.688 20.644C380.456 20.644 384.641 21.5419 388.293 23.2811L388.315 23.2917L388.337 23.3018C392.012 24.9639 395.106 27.3604 397.645 30.5123L397.658 30.5285L397.671 30.5445C400.308 33.7084 402.372 37.6254 403.826 42.3512L403.831 42.3643C405.278 46.9794 406.02 52.1937 406.02 58.032C406.02 63.8665 405.279 69.1322 403.828 73.8502C402.377 78.4751 400.314 82.3488 397.671 85.5195Z" stroke="white" stroke-width="5"/>
<path d="M326.401 95.904V93.404H323.901H280.321V8.20801V5.70801H277.821H263.853H261.353V8.20801V108V110.5H263.853H323.901H326.401V108V95.904Z" stroke="white" stroke-width="5"/>
<path d="M251.729 95.904V93.404H249.229H205.649V8.20801V5.70801H203.149H189.181H186.681V8.20801V108V110.5H189.181H249.229H251.729V108V95.904Z" stroke="white" stroke-width="5"/>
<path d="M104.415 108V110.5H106.915H171.427H173.927V108V96.048V93.548H171.427H123.383V63.988H162.643H165.143V61.488V49.824V47.324H162.643H123.383V22.66H167.827H170.327V20.16V8.20801V5.70801H167.827H106.915H104.415V8.20801V108Z" stroke="white" stroke-width="5"/>
<path d="M68.168 5.70801H65.668V8.20801V47.324H21.852V8.20801V5.70801H19.352H5.38397H2.88397V8.20801V108V110.5H5.38397H19.352H21.852V108V64.42H65.668V108V110.5H68.168H82.136H84.636V108V8.20801V5.70801H82.136H68.168Z" stroke="white" stroke-width="5"/>
</svg>
