<svg id="visual" viewBox="0 0 960 540" width="960" height="540" xmlns="http://www.w3.org/2000/svg" xmlns:xlink="http://www.w3.org/1999/xlink" version="1.1">
  <path d="M0 155L26.7 150.5C53.3 146 106.7 137 160 126.3C213.3 115.7 266.7 103.3 320 116C373.3 128.7 426.7 166.3 480 160.5C533.3 154.7 586.7 105.3 640 103.8C693.3 102.3 746.7 148.7 800 175C853.3 201.3 906.7 207.7 933.3 210.8L960 214L960 0L933.3 0C906.7 0 853.3 0 800 0C746.7 0 693.3 0 640 0C586.7 0 533.3 0 480 0C426.7 0 373.3 0 320 0C266.7 0 213.3 0 160 0C106.7 0 53.3 0 26.7 0L0 0Z" fill="#fa7268"></path>
  <path d="M0 129L26.7 113.5C53.3 98 106.7 67 160 68.5C213.3 70 266.7 104 320 119.2C373.3 134.3 426.7 130.7 480 121.7C533.3 112.7 586.7 98.3 640 85.2C693.3 72 746.7 60 800 68.5C853.3 77 906.7 106 933.3 120.5L960 135L960 0L933.3 0C906.7 0 853.3 0 800 0C746.7 0 693.3 0 640 0C586.7 0 533.3 0 480 0C426.7 0 373.3 0 320 0C266.7 0 213.3 0 160 0C106.7 0 53.3 0 26.7 0L0 0Z" fill="#c62368"></path>
</svg>