<svg id="visual" viewBox="0 0 900 600" width="900" height="600" xmlns="http://www.w3.org/2000/svg" xmlns:xlink="http://www.w3.org/1999/xlink" version="1.1"><g stroke-width="1" stroke-linejoin="bevel"><path d="M401 279L500 240L424 197Z" fill="#00101c" stroke="#00101c"></path><path d="M401 279L498 264L500 240Z" fill="#205a7a" stroke="#205a7a"></path><path d="M500 240L505 130L424 197Z" fill="#00101c" stroke="#00101c"></path><path d="M401 279L504 366L498 264Z" fill="#00101c" stroke="#00101c"></path><path d="M498 264L590 204L500 240Z" fill="#081a28" stroke="#081a28"></path><path d="M500 240L590 204L505 130Z" fill="#297ea6" stroke="#297ea6"></path><path d="M333 119L305 203L424 197Z" fill="#246688" stroke="#246688"></path><path d="M424 197L305 203L401 279Z" fill="#205a7a" stroke="#205a7a"></path><path d="M401 279L372 415L504 366Z" fill="#205a7a" stroke="#205a7a"></path><path d="M640 281L590 204L498 264Z" fill="#19435d" stroke="#19435d"></path><path d="M505 130L388 96L424 197Z" fill="#19435d" stroke="#19435d"></path><path d="M388 96L333 119L424 197Z" fill="#19435d" stroke="#19435d"></path><path d="M184 315L271 277L172 196Z" fill="#0c2435" stroke="#0c2435"></path><path d="M305 203L271 277L401 279Z" fill="#112e42" stroke="#112e42"></path><path d="M262 362L372 415L401 279Z" fill="#112e42" stroke="#112e42"></path><path d="M590 204L598 131L505 130Z" fill="#246688" stroke="#246688"></path><path d="M505 130L430 0L388 96Z" fill="#297ea6" stroke="#297ea6"></path><path d="M504 366L640 281L498 264Z" fill="#277297" stroke="#277297"></path><path d="M590 204L707 234L598 131Z" fill="#0c2435" stroke="#0c2435"></path><path d="M271 277L262 362L401 279Z" fill="#0c2435" stroke="#0c2435"></path><path d="M514 0L430 0L505 130Z" fill="#297ea6" stroke="#297ea6"></path><path d="M388 96L290 0L333 119Z" fill="#081a28" stroke="#081a28"></path><path d="M625 484L641 404L504 366Z" fill="#205a7a" stroke="#205a7a"></path><path d="M504 366L641 404L640 281Z" fill="#1d4e6b" stroke="#1d4e6b"></path><path d="M367 510L465 503L372 415Z" fill="#00101c" stroke="#00101c"></path><path d="M372 415L465 503L504 366Z" fill="#19435d" stroke="#19435d"></path><path d="M562 0L514 0L505 130Z" fill="#205a7a" stroke="#205a7a"></path><path d="M739 262L707 234L640 281Z" fill="#1d4e6b" stroke="#1d4e6b"></path><path d="M640 281L707 234L590 204Z" fill="#297ea6" stroke="#297ea6"></path><path d="M598 131L562 0L505 130Z" fill="#00101c" stroke="#00101c"></path><path d="M271 277L184 315L262 362Z" fill="#205a7a" stroke="#205a7a"></path><path d="M270 537L367 510L372 415Z" fill="#15384f" stroke="#15384f"></path><path d="M172 196L271 277L305 203Z" fill="#1d4e6b" stroke="#1d4e6b"></path><path d="M699 0L562 0L598 131Z" fill="#0c2435" stroke="#0c2435"></path><path d="M203 427L372 415L262 362Z" fill="#297ea6" stroke="#297ea6"></path><path d="M222 73L305 203L333 119Z" fill="#297ea6" stroke="#297ea6"></path><path d="M222 73L172 196L305 203Z" fill="#0c2435" stroke="#0c2435"></path><path d="M290 0L222 73L333 119Z" fill="#19435d" stroke="#19435d"></path><path d="M430 0L290 0L388 96Z" fill="#0c2435" stroke="#0c2435"></path><path d="M641 404L739 262L640 281Z" fill="#15384f" stroke="#15384f"></path><path d="M707 234L728 65L598 131Z" fill="#205a7a" stroke="#205a7a"></path><path d="M465 503L625 484L504 366Z" fill="#15384f" stroke="#15384f"></path><path d="M641 404L768 283L739 262Z" fill="#081a28" stroke="#081a28"></path><path d="M184 315L203 427L262 362Z" fill="#246688" stroke="#246688"></path><path d="M625 484L671 468L641 404Z" fill="#112e42" stroke="#112e42"></path><path d="M290 0L237 0L222 73Z" fill="#205a7a" stroke="#205a7a"></path><path d="M222 73L110 116L172 196Z" fill="#246688" stroke="#246688"></path><path d="M724 436L768 283L641 404Z" fill="#297ea6" stroke="#297ea6"></path><path d="M812 113L728 65L707 234Z" fill="#00101c" stroke="#00101c"></path><path d="M814 217L707 234L739 262Z" fill="#112e42" stroke="#112e42"></path><path d="M671 468L724 436L641 404Z" fill="#246688" stroke="#246688"></path><path d="M220 501L270 537L372 415Z" fill="#15384f" stroke="#15384f"></path><path d="M368 600L515 600L465 503Z" fill="#00101c" stroke="#00101c"></path><path d="M465 503L558 600L625 484Z" fill="#0c2435" stroke="#0c2435"></path><path d="M203 427L220 501L372 415Z" fill="#297ea6" stroke="#297ea6"></path><path d="M728 65L699 0L598 131Z" fill="#00101c" stroke="#00101c"></path><path d="M368 600L465 503L367 510Z" fill="#297ea6" stroke="#297ea6"></path><path d="M625 484L694 600L671 468Z" fill="#15384f" stroke="#15384f"></path><path d="M671 468L791 460L724 436Z" fill="#1d4e6b" stroke="#1d4e6b"></path><path d="M91 0L110 116L222 73Z" fill="#00101c" stroke="#00101c"></path><path d="M172 196L83 293L184 315Z" fill="#19435d" stroke="#19435d"></path><path d="M68 389L130 478L203 427Z" fill="#112e42" stroke="#112e42"></path><path d="M203 427L130 478L220 501Z" fill="#15384f" stroke="#15384f"></path><path d="M270 537L368 600L367 510Z" fill="#112e42" stroke="#112e42"></path><path d="M69 240L83 293L172 196Z" fill="#112e42" stroke="#112e42"></path><path d="M900 274L814 217L768 283Z" fill="#246688" stroke="#246688"></path><path d="M768 283L814 217L739 262Z" fill="#246688" stroke="#246688"></path><path d="M728 65L818 0L699 0Z" fill="#1d4e6b" stroke="#1d4e6b"></path><path d="M515 600L558 600L465 503Z" fill="#277297" stroke="#277297"></path><path d="M110 116L69 240L172 196Z" fill="#297ea6" stroke="#297ea6"></path><path d="M814 217L812 113L707 234Z" fill="#1d4e6b" stroke="#1d4e6b"></path><path d="M68 389L184 315L83 293Z" fill="#297ea6" stroke="#297ea6"></path><path d="M68 389L203 427L184 315Z" fill="#112e42" stroke="#112e42"></path><path d="M190 600L266 600L270 537Z" fill="#297ea6" stroke="#297ea6"></path><path d="M270 537L266 600L368 600Z" fill="#19435d" stroke="#19435d"></path><path d="M190 600L270 537L220 501Z" fill="#1d4e6b" stroke="#1d4e6b"></path><path d="M0 335L68 389L83 293Z" fill="#277297" stroke="#277297"></path><path d="M694 600L791 460L671 468Z" fill="#081a28" stroke="#081a28"></path><path d="M724 436L840 429L768 283Z" fill="#19435d" stroke="#19435d"></path><path d="M558 600L694 600L625 484Z" fill="#1d4e6b" stroke="#1d4e6b"></path><path d="M110 116L0 206L69 240Z" fill="#1d4e6b" stroke="#1d4e6b"></path><path d="M237 0L91 0L222 73Z" fill="#19435d" stroke="#19435d"></path><path d="M900 505L840 429L791 460Z" fill="#277297" stroke="#277297"></path><path d="M791 460L840 429L724 436Z" fill="#277297" stroke="#277297"></path><path d="M900 63L818 0L812 113Z" fill="#205a7a" stroke="#205a7a"></path><path d="M130 478L190 600L220 501Z" fill="#297ea6" stroke="#297ea6"></path><path d="M76 600L190 600L130 478Z" fill="#0c2435" stroke="#0c2435"></path><path d="M900 215L812 113L814 217Z" fill="#1d4e6b" stroke="#1d4e6b"></path><path d="M812 113L818 0L728 65Z" fill="#15384f" stroke="#15384f"></path><path d="M0 115L0 206L110 116Z" fill="#246688" stroke="#246688"></path><path d="M69 240L0 335L83 293Z" fill="#19435d" stroke="#19435d"></path><path d="M0 206L0 335L69 240Z" fill="#205a7a" stroke="#205a7a"></path><path d="M68 389L0 524L130 478Z" fill="#19435d" stroke="#19435d"></path><path d="M900 378L900 274L768 283Z" fill="#246688" stroke="#246688"></path><path d="M900 274L900 215L814 217Z" fill="#19435d" stroke="#19435d"></path><path d="M91 0L0 115L110 116Z" fill="#19435d" stroke="#19435d"></path><path d="M0 335L0 380L68 389Z" fill="#277297" stroke="#277297"></path><path d="M900 505L900 378L840 429Z" fill="#19435d" stroke="#19435d"></path><path d="M840 429L900 378L768 283Z" fill="#112e42" stroke="#112e42"></path><path d="M694 600L777 600L791 460Z" fill="#081a28" stroke="#081a28"></path><path d="M900 215L900 63L812 113Z" fill="#112e42" stroke="#112e42"></path><path d="M91 0L0 0L0 115Z" fill="#246688" stroke="#246688"></path><path d="M0 524L76 600L130 478Z" fill="#081a28" stroke="#081a28"></path><path d="M900 63L900 0L818 0Z" fill="#297ea6" stroke="#297ea6"></path><path d="M777 600L900 505L791 460Z" fill="#081a28" stroke="#081a28"></path><path d="M0 380L0 524L68 389Z" fill="#00101c" stroke="#00101c"></path><path d="M0 524L0 600L76 600Z" fill="#112e42" stroke="#112e42"></path><path d="M777 600L900 600L900 505Z" fill="#19435d" stroke="#19435d"></path></g></svg>