<svg width="754" height="112" viewBox="0 0 754 112" fill="none" xmlns="http://www.w3.org/2000/svg">
<path d="M679.029 97.2969V98.0632L679.65 98.5123C685.02 102.396 690.671 105.284 696.599 107.164C702.516 109.04 708.669 109.977 715.052 109.977C722.478 109.977 729 108.755 734.576 106.261C740.179 103.776 744.58 100.31 747.711 95.8368L747.715 95.8304C750.852 91.2992 752.412 86.1226 752.412 80.3516C752.412 72.254 749.454 65.4118 743.573 59.9232C737.787 54.4339 729.361 50.3846 718.44 47.6777C712.731 46.2387 708.222 44.7221 704.877 43.1415C701.603 41.5253 699.359 39.7268 698.005 37.8031C696.697 35.8774 696.021 33.6036 696.021 30.9219C696.021 27.8089 696.795 25.1813 698.293 22.9756C699.811 20.7414 701.929 18.9903 704.703 17.7335L704.712 17.7295L704.72 17.7254C707.487 16.4285 710.732 15.7578 714.49 15.7578C719.021 15.7578 722.728 16.3084 725.656 17.3574C728.448 18.3575 730.77 19.5725 732.648 20.9852L734.876 35.0241L735.076 36.2891H736.357H747.115H748.615V34.7891V14.3281V13.6441L748.099 13.1956C744.379 9.96546 739.675 7.26116 734.026 5.05835C728.332 2.77228 721.811 1.64844 714.49 1.64844C707.559 1.64844 701.423 2.90022 696.121 5.45319C690.845 7.99344 686.67 11.4876 683.647 15.9475L683.647 15.9475L683.64 15.957C680.654 20.4358 679.17 25.5098 679.17 31.1328C679.17 36.4529 680.479 41.2353 683.128 45.4332L683.133 45.4421L683.139 45.4508C685.823 49.5769 689.696 53.0582 694.69 55.9188L694.697 55.923L694.705 55.9272C699.732 58.7307 705.824 60.9534 712.954 62.617L712.961 62.6186C718.849 63.9632 723.393 65.5204 726.65 67.2605L726.661 67.2663L726.672 67.2719C729.988 68.9749 732.228 70.9014 733.54 72.9925C734.873 75.1179 735.56 77.6008 735.56 80.4922C735.56 83.5961 734.768 86.247 733.221 88.5037C731.67 90.7676 729.401 92.5949 726.333 93.9545C723.339 95.2552 719.596 95.9375 715.052 95.9375C711.053 95.9375 707.351 95.4377 703.938 94.4498C700.733 93.522 697.752 92.2427 694.99 90.6136L692.772 75.2157L692.586 73.9297H691.287H680.529H679.029V75.4297V97.2969Z" stroke="white" stroke-width="3"/>
<path d="M599.826 107V108.5H601.326H638.1H639.6V107V98.1406V96.8763L638.354 96.6623L628.139 94.9076V16.6016H648.548L650.468 29.525L650.658 30.8047H651.951H662.217H663.717V29.3047V4.625V3.125H662.217H577.139H575.639V4.625V29.3047V30.8047H577.139H587.545H588.845L589.03 29.5178L590.884 16.6016H611.287V94.9076L601.072 96.6623L599.826 96.8763V98.1406V107Z" stroke="white" stroke-width="3"/>
<path d="M502.877 102.98L502.881 102.982C510.07 107.677 518.951 109.977 529.436 109.977C535.225 109.977 540.853 109.307 546.317 107.965L546.329 107.962C551.791 106.572 556.533 104.644 560.533 102.157L561.241 101.716V100.883V78.6641V77.1641H559.741H548.912H547.566L547.421 78.5024L545.956 92.025C544.154 93.0307 541.909 93.888 539.192 94.5773C536.173 95.3432 533.087 95.7266 529.928 95.7266C523.129 95.7266 517.45 94.1882 512.817 91.1881C508.224 88.1843 504.678 83.8179 502.201 78.0118C499.767 72.1475 498.522 65.0199 498.522 56.5859V54.9688C498.522 47.1956 499.695 40.4047 502.003 34.5671C504.304 28.7475 507.659 24.2541 512.045 21.0198L512.045 21.0198L512.053 21.014C516.395 17.7684 521.738 16.1094 528.17 16.1094C530.861 16.1094 533.325 16.3147 535.569 16.7185L535.574 16.7194C537.874 17.1253 539.923 17.7072 541.729 18.4559L541.729 18.456L541.74 18.4607C543.37 19.1205 544.812 19.9094 546.073 20.8221L547.489 36.3317L547.613 37.6953H548.983H560.022H561.522V36.1953V14.1172V13.4407L561.015 12.9929C557.243 9.66163 552.528 6.95138 546.909 4.83819C541.236 2.70462 535.007 1.64844 528.241 1.64844C518.617 1.64844 510.254 3.96168 503.221 8.65036C496.226 13.3136 490.87 19.6985 487.152 27.7612C483.438 35.7706 481.6 44.8975 481.6 55.1094V56.5859C481.6 66.6968 483.341 75.7892 486.858 83.8352L486.861 83.8421C490.441 91.9209 495.782 98.3143 502.877 102.98Z" stroke="white" stroke-width="3"/>
<path d="M385.522 107V108.5H387.022H464.999H466.499V107V82.4609V80.9609H464.999H453.96H452.615L452.469 82.2977L451.068 95.0938H413.835V61.0391H450.093H451.593V59.5391V48.6406V47.1406H450.093H413.835V16.8125H448.82L450.219 29.4L450.367 30.7344H451.71H462.819H464.319V29.2344V4.625V3.125H462.819H387.022H385.522V4.625V13.5547V14.819L386.768 15.033L396.983 16.7877V94.9076L386.768 96.6623L385.522 96.8763V98.1406V107Z" stroke="white" stroke-width="3"/>
<path d="M313.98 106.449L313.985 106.451C318.85 108.81 324.233 109.977 330.108 109.977C336.948 109.977 342.796 108.676 347.576 105.989C352.379 103.314 356.014 99.5324 358.447 94.6687C360.915 89.8299 362.124 84.2466 362.124 77.9609V16.7877L372.339 15.033L373.585 14.819V13.5547V4.625V3.125H372.085H333.132H331.632V4.625V13.6953V15.0077L332.933 15.182L345.272 16.8358V77.9609C345.272 81.5978 344.689 84.7729 343.558 87.5137L343.553 87.525C342.489 90.1647 340.848 92.2179 338.625 93.7302C336.452 95.1626 333.579 95.9375 329.897 95.9375C324.673 95.9375 320.852 94.4217 318.205 91.5703C315.602 88.7175 314.072 84.081 313.889 77.3576L313.849 75.8984H312.39H299.101H298.019L297.678 76.9241L297.537 77.346L297.45 77.607L297.461 77.8819C297.75 84.9084 299.319 90.8682 302.249 95.6858L302.255 95.6953C305.209 100.471 309.121 104.069 313.98 106.449Z" stroke="white" stroke-width="3"/>
<path d="M210.423 94.9205L210.428 94.9271L210.433 94.9336C214.274 99.6983 218.926 103.402 224.379 106.031C229.858 108.672 236.015 109.977 242.82 109.977C249.986 109.977 256.355 108.677 261.888 106.033C267.394 103.402 272.009 99.6919 275.716 94.9118C279.455 90.104 282.254 84.4439 284.128 77.9554C286.001 71.4723 286.929 64.3455 286.929 56.5859V55.1094C286.929 47.3969 286.001 40.2946 284.129 33.8131C282.255 27.2791 279.457 21.5949 275.717 16.7858C272.011 11.959 267.396 8.22393 261.888 5.59191C256.355 2.94754 249.986 1.64844 242.82 1.64844C236.015 1.64844 229.858 2.95256 224.379 5.59416C218.923 8.22497 214.269 11.9545 210.428 16.7675L210.428 16.7675L210.423 16.7748C206.639 21.5778 203.746 27.2554 201.73 33.784L201.73 33.7839L201.728 33.7907C199.758 40.2792 198.781 47.3894 198.781 55.1094V56.5859C198.781 64.3518 199.757 71.4856 201.728 77.975L201.731 77.9847C203.748 84.4667 206.64 90.1194 210.423 94.9205ZM258.336 90.7115L258.329 90.7166C254.489 93.8234 249.367 95.4453 242.82 95.4453C236.973 95.4453 232.111 93.846 228.145 90.7094C224.131 87.4883 221.043 83.0008 218.918 77.169C216.786 71.2716 215.703 64.419 215.703 56.5859V54.9688C215.703 47.1826 216.786 40.4031 218.915 34.603L218.917 34.5994C221.043 28.7642 224.133 24.2747 228.149 21.0529C232.116 17.8708 236.976 16.25 242.82 16.25C249.262 16.25 254.364 17.8897 258.258 21.0478L258.258 21.0478L258.265 21.0541C262.218 24.2158 265.163 28.6612 267.057 34.48L267.057 34.48L267.062 34.4933C269.014 40.3054 270.007 47.1222 270.007 54.9688V56.5859C270.007 64.4812 269.037 71.3736 267.128 77.2856C265.233 83.1044 262.288 87.5498 258.336 90.7115Z" stroke="white" stroke-width="3"/>
<path d="M97.7809 107V108.5H99.2809H136.054H137.554V107V98.1406V96.8763L136.308 96.6623L126.093 94.9076V62.7695L145.339 62.4153L165.481 107.611L165.878 108.5H166.851H183.937H185.437V107V97.9297V96.6734L184.2 96.453L177.869 95.3246L161.652 60.237C162.853 59.8581 164.011 59.4285 165.125 58.9477L165.136 58.9427C170.164 56.7245 174.084 53.4446 176.834 49.0965C179.646 44.7254 181.008 39.3893 181.008 33.1719C181.008 26.8568 179.621 21.4075 176.767 16.9005C173.914 12.3966 169.751 9.00133 164.355 6.69423C159.004 4.33949 152.505 3.19531 144.914 3.19531H99.2809H97.7809V4.69531V13.5547V14.819L99.027 15.033L109.242 16.7877V94.9076L99.027 96.6623L97.7809 96.8763V98.1406V107ZM143.508 48.8984H126.093V17.0234H144.914C151.809 17.0234 156.591 18.5585 159.572 21.3325C162.59 24.1408 164.156 27.9802 164.156 33.0312C164.156 38.3738 162.516 42.218 159.418 44.8202C156.304 47.4358 151.111 48.8984 143.508 48.8984Z" stroke="white" stroke-width="3"/>
<path d="M2.19531 107V108.5H3.69531H40.4688H41.9688V107V98.1406V96.8763L40.7227 96.6623L30.5078 94.9076V67.4375H50.7344C58.2154 67.4375 64.6882 66.1431 70.0985 63.4871C75.4961 60.8374 79.6619 57.0815 82.5409 52.2171C85.417 47.3574 86.8281 41.6942 86.8281 35.2812C86.8281 28.9129 85.416 23.2737 82.5409 18.4157C79.6628 13.5528 75.4986 9.7977 70.1035 7.14812C64.6916 4.44334 58.2167 3.125 50.7344 3.125H15.1562H3.69531H2.19531V4.625V13.5547V14.819L3.44136 15.033L13.6562 16.7877V94.9076L3.44136 96.6623L2.19531 96.8763V98.1406V107ZM65.1723 48.5361L65.1718 48.5367C62.1281 51.8306 57.4162 53.6094 50.7344 53.6094H30.5078V17.0234H50.7344C57.4054 17.0234 62.1129 18.8428 65.1592 22.223L65.1592 22.223L65.166 22.2305C68.3554 25.7216 69.9766 30.0827 69.9766 35.4219C69.9766 40.7612 68.3555 45.0948 65.1723 48.5361Z" stroke="white" stroke-width="3"/>
</svg>
