<svg width="237" height="330" viewBox="0 0 237 330" fill="none" xmlns="http://www.w3.org/2000/svg">
<g filter="url(#filter0_dddddd_7980_2628)">
<rect width="175.95" height="175.004" rx="28" transform="matrix(0.998644 0.0520537 -0.0526197 0.998615 82.209 24)" fill="#F5FAFE" shape-rendering="crispEdges"/>
<rect width="135.253" height="35.9118" rx="16" transform="matrix(0.998644 0.0520537 -0.0526197 0.998615 91.8955 146.864)" fill="#55ACEE"/>
<path d="M146.382 164.869L146.382 165.779L141.637 165.78L141.636 168.835L146.017 168.834L146.017 169.731L141.635 169.732L141.634 173.32L140.672 173.32L140.675 164.871L146.382 164.869ZM147.501 170.043C147.501 169.367 147.627 168.777 147.878 168.275C148.138 167.763 148.494 167.369 148.944 167.091C149.404 166.805 149.941 166.662 150.557 166.662C151.163 166.662 151.692 166.805 152.142 167.09C152.602 167.368 152.957 167.762 153.208 168.273C153.459 168.776 153.585 169.365 153.585 170.041C153.585 170.717 153.459 171.311 153.207 171.822C152.956 172.333 152.6 172.732 152.141 173.018C151.69 173.304 151.161 173.447 150.555 173.448C149.939 173.448 149.402 173.305 148.943 173.019C148.492 172.733 148.137 172.335 147.877 171.823C147.626 171.312 147.5 170.719 147.501 170.043ZM152.597 170.041C152.597 169.253 152.415 168.642 152.051 168.208C151.696 167.775 151.198 167.559 150.556 167.559C149.898 167.559 149.386 167.776 149.022 168.209C148.667 168.643 148.489 169.254 148.489 170.042C148.488 170.84 148.666 171.459 149.021 171.901C149.385 172.334 149.896 172.551 150.555 172.551C151.196 172.551 151.695 172.334 152.05 171.9C152.414 171.458 152.596 170.838 152.597 170.041ZM154.831 164.217L155.78 164.216L155.777 173.316L154.828 173.316L154.831 164.217ZM157.154 164.216L158.103 164.216L158.1 173.316L157.151 173.316L157.154 164.216ZM159.346 170.039C159.346 169.363 159.472 168.774 159.723 168.271C159.983 167.76 160.339 167.365 160.789 167.088C161.249 166.802 161.786 166.659 162.402 166.659C163.008 166.658 163.537 166.801 163.988 167.087C164.447 167.364 164.802 167.758 165.053 168.27C165.304 168.772 165.43 169.362 165.43 170.038C165.43 170.714 165.304 171.307 165.052 171.819C164.801 172.33 164.445 172.729 163.986 173.015C163.535 173.301 163.006 173.444 162.4 173.444C161.784 173.444 161.247 173.302 160.788 173.016C160.337 172.73 159.982 172.331 159.722 171.82C159.471 171.309 159.345 170.715 159.346 170.039ZM164.442 170.038C164.442 169.249 164.26 168.638 163.896 168.205C163.541 167.772 163.043 167.555 162.401 167.555C161.743 167.556 161.231 167.772 160.867 168.206C160.512 168.639 160.334 169.25 160.334 170.039C160.333 170.836 160.511 171.456 160.866 171.898C161.23 172.331 161.741 172.548 162.4 172.547C163.041 172.547 163.54 172.33 163.895 171.897C164.259 171.455 164.442 170.835 164.442 170.038ZM166.415 166.813L167.468 166.813L168.845 172.156L170.471 166.812L171.563 166.812L173.135 172.154L174.592 166.811L175.632 166.811L173.641 173.311L172.601 173.311L171.017 167.943L169.39 173.312L168.324 173.313L166.415 166.813Z" fill="white"/>
<g clip-path="url(#clip0_7980_2628)">
<path d="M120.18 86.9321C115.492 86.4646 110.775 86.1809 106.121 85.474C100.874 84.6749 97.1487 80.6726 97.0784 75.3319C97.0033 69.567 97.5413 63.7875 97.9333 58.0226C98.1707 54.5388 98.447 51.0343 99.0605 47.6045C100.004 42.3853 104.332 38.7795 109.708 38.8654C115.346 38.9561 120.982 39.3982 126.61 39.7716C129.743 39.9791 132.893 40.1955 135.986 40.7066C141.71 41.6516 145.424 45.5765 145.469 51.3752C145.514 57.3539 144.955 63.3429 144.55 69.322C144.337 72.4505 144.08 75.5954 143.499 78.6701C142.566 83.6109 138.694 86.8908 133.671 87.3642C132.889 87.4399 132.104 87.5154 131.32 87.5053C127.61 87.4586 123.896 87.3775 120.186 87.3093C120.188 87.1808 120.186 87.0522 120.184 86.9236L120.18 86.9321ZM118.795 52.7793C118.79 52.8521 118.784 52.9248 118.774 53.0017C116.349 52.9572 113.926 52.8613 111.504 52.8853C109.528 52.9047 108.14 54.0063 107.92 55.922C107.458 59.9459 107.124 63.9978 106.97 68.0445C106.895 69.9929 107.982 71.6541 110.048 71.8421C117.004 72.4798 123.971 73.0063 130.944 73.4086C132.806 73.5157 134.357 72.3786 134.592 70.4246C135.065 66.4737 135.517 62.5011 135.554 58.5337C135.583 55.6245 134.446 54.5623 131.561 54.1708C127.321 53.5958 123.051 53.2389 118.795 52.7836L118.795 52.7793Z" fill="#55ACEE"/>
<path d="M118.796 52.7794C123.051 53.2304 127.321 53.5916 131.562 54.1666C134.447 54.5581 135.584 55.6203 135.554 58.5294C135.514 62.4968 135.065 66.4738 134.592 70.4204C134.358 72.3787 132.807 73.5115 130.944 73.4044C123.971 73.0021 117.004 72.4756 110.048 71.8378C107.982 71.6499 106.895 69.9887 106.971 68.0403C107.129 63.9937 107.458 59.9417 107.92 55.9178C108.141 54.002 109.528 52.9048 111.504 52.8811C113.926 52.857 116.35 52.953 118.775 52.9975C118.78 52.9248 118.786 52.852 118.796 52.7751L118.796 52.7794ZM118.864 58.8913C118.634 61.9982 118.434 64.6685 118.209 67.7197C121.076 66.324 123.477 65.1596 126.236 63.8176C123.672 62.0993 121.459 60.6231 118.865 58.8871L118.864 58.8913Z" fill="white"/>
<path d="M118.864 58.8913C121.458 60.6273 123.667 62.1034 126.236 63.8219C123.477 65.1639 121.076 66.3282 118.209 67.7239C118.438 64.6685 118.634 62.0024 118.864 58.8956L118.864 58.8913Z" fill="#55ACEE"/>
</g>
<path d="M99.6328 109.341L98.3386 109.273L97.4944 106.441L93.0525 106.21L91.9313 108.939L90.637 108.872L95.0191 98.6861L96.3453 98.7553L99.6328 109.341ZM95.5841 100.125L93.4738 105.207L97.1648 105.399L95.5841 100.125ZM101.522 99.0251L102.688 99.0859L102.141 109.471L100.975 109.411L101.522 99.0251ZM111.443 99.5422C112.348 99.5894 113.125 99.8542 113.772 100.337C114.431 100.819 114.925 101.475 115.255 102.304C115.585 103.133 115.722 104.086 115.665 105.162C115.612 106.163 115.39 107.033 114.999 107.77C114.619 108.498 114.103 109.054 113.453 109.436C112.803 109.819 112.057 109.988 111.215 109.944L107.029 109.726L107.576 99.3407L111.443 99.5422ZM108.701 100.489L108.269 108.701L111.113 108.85C112.103 108.901 112.888 108.6 113.467 107.947C114.057 107.294 114.385 106.345 114.451 105.098C114.523 103.735 114.275 102.665 113.707 101.887C113.15 101.1 112.323 100.678 111.226 100.62L108.701 100.489ZM117.005 106.209C117.072 104.941 117.46 103.957 118.17 103.257C118.881 102.547 119.806 102.221 120.945 102.281C121.67 102.318 122.3 102.522 122.836 102.892C123.383 103.262 123.8 103.754 124.088 104.367C124.376 104.98 124.5 105.67 124.46 106.437L124.434 106.932L118.218 106.608C118.213 107.516 118.416 108.216 118.828 108.707C119.251 109.199 119.862 109.466 120.661 109.508C121.311 109.541 121.835 109.425 122.233 109.157C122.643 108.89 122.908 108.514 123.03 108.029L124.276 108.094C124.061 108.937 123.643 109.572 123.022 109.999C122.412 110.427 121.607 110.614 120.605 110.562C119.828 110.522 119.16 110.321 118.602 109.961C118.045 109.59 117.628 109.088 117.352 108.454C117.076 107.809 116.96 107.061 117.005 106.209ZM120.892 103.287C119.401 103.209 118.532 103.997 118.284 105.651L123.222 105.908C123.198 105.148 122.974 104.533 122.55 104.063C122.137 103.582 121.585 103.323 120.892 103.287ZM125.87 102.697L127.165 102.765L129.338 109.559L132.15 103.025L133.46 103.093L129.907 110.919L128.581 110.85L125.87 102.697ZM134.466 107.119C134.533 105.851 134.921 104.868 135.631 104.168C136.341 103.457 137.266 103.131 138.406 103.191C139.131 103.228 139.761 103.432 140.297 103.802C140.843 104.172 141.261 104.664 141.549 105.277C141.837 105.89 141.961 106.58 141.92 107.347L141.894 107.843L135.679 107.519C135.674 108.426 135.877 109.126 136.289 109.617C136.712 110.109 137.323 110.376 138.121 110.418C138.771 110.452 139.295 110.335 139.694 110.067C140.103 109.8 140.369 109.424 140.491 108.939L141.737 109.004C141.522 109.847 141.104 110.482 140.483 110.909C139.873 111.337 139.067 111.524 138.066 111.472C137.288 111.432 136.621 111.231 136.063 110.871C135.506 110.5 135.089 109.998 134.812 109.364C134.537 108.719 134.421 107.971 134.466 107.119ZM138.353 104.197C136.862 104.12 135.992 104.907 135.745 106.561L140.682 106.818C140.658 106.058 140.434 105.443 140.011 104.973C139.598 104.492 139.046 104.233 138.353 104.197ZM143.819 100.429L144.986 100.49L144.396 111.674L143.23 111.613L143.819 100.429ZM146.138 107.727C146.181 106.896 146.374 106.18 146.716 105.578C147.068 104.967 147.53 104.505 148.102 104.193C148.685 103.871 149.355 103.729 150.111 103.769C150.857 103.808 151.498 104.017 152.033 104.398C152.58 104.768 152.991 105.275 153.267 105.92C153.543 106.554 153.659 107.286 153.616 108.117C153.572 108.948 153.379 109.67 153.037 110.282C152.695 110.894 152.232 111.361 151.649 111.684C151.077 112.006 150.418 112.148 149.672 112.109C148.916 112.07 148.264 111.86 147.718 111.479C147.183 111.098 146.772 110.586 146.486 109.94C146.21 109.296 146.094 108.558 146.138 107.727ZM152.401 108.054C152.452 107.084 152.268 106.322 151.849 105.766C151.44 105.211 150.842 104.912 150.053 104.871C149.244 104.829 148.601 105.063 148.126 105.572C147.661 106.082 147.403 106.821 147.352 107.791C147.3 108.771 147.479 109.544 147.887 110.11C148.306 110.665 148.92 110.965 149.73 111.007C150.518 111.048 151.145 110.813 151.61 110.304C152.086 109.784 152.35 109.034 152.401 108.054ZM155.354 104.234L156.52 104.295L156.441 105.797C156.757 105.279 157.157 104.884 157.641 104.61C158.125 104.336 158.677 104.215 159.294 104.247C159.997 104.284 160.601 104.492 161.104 104.87C161.608 105.239 161.987 105.744 162.242 106.388C162.508 107.021 162.618 107.753 162.575 108.584C162.531 109.415 162.343 110.137 162.012 110.75C161.691 111.363 161.261 111.832 160.72 112.156C160.18 112.481 159.558 112.625 158.855 112.588C158.237 112.556 157.702 112.378 157.249 112.056C156.796 111.733 156.439 111.298 156.18 110.75L155.962 114.888L154.795 114.828L155.354 104.234ZM161.36 108.521C161.411 107.551 161.227 106.789 160.808 106.233C160.399 105.678 159.801 105.379 159.013 105.338C158.203 105.296 157.56 105.53 157.085 106.039C156.62 106.549 156.362 107.288 156.311 108.258C156.26 109.238 156.438 110.011 156.846 110.577C157.265 111.132 157.88 111.432 158.689 111.474C159.478 111.515 160.104 111.28 160.569 110.771C161.045 110.251 161.309 109.501 161.36 108.521ZM169.369 108.121C169.41 107.344 169.259 106.77 168.915 106.399C168.582 106.029 168.112 105.829 167.505 105.797C166.919 105.766 166.413 105.943 165.987 106.327C165.572 106.7 165.348 107.196 165.316 107.814L165.056 112.751L163.889 112.69L164.31 104.701L165.477 104.762L165.413 105.96C165.724 105.539 166.104 105.217 166.554 104.994C167.014 104.773 167.468 104.673 167.915 104.697C168.512 104.728 169.031 104.905 169.474 105.227C169.916 105.549 170.224 105.992 170.397 106.556C170.681 106.027 171.076 105.625 171.582 105.353C172.099 105.07 172.618 104.942 173.14 104.969C173.95 105.011 174.602 105.312 175.096 105.872C175.6 106.433 175.826 107.213 175.773 108.215L175.505 113.296L174.323 113.234L174.578 108.393C174.619 107.615 174.468 107.041 174.124 106.671C173.791 106.301 173.326 106.1 172.73 106.069C172.144 106.039 171.638 106.215 171.212 106.599C170.797 106.973 170.573 107.468 170.541 108.086L170.281 113.023L169.114 112.962L169.369 108.121ZM177.252 109.349C177.318 108.082 177.707 107.098 178.417 106.398C179.127 105.687 180.052 105.361 181.192 105.421C181.916 105.459 182.546 105.662 183.082 106.032C183.629 106.402 184.046 106.894 184.334 107.507C184.623 108.12 184.746 108.81 184.706 109.577L184.68 110.073L178.464 109.749C178.459 110.656 178.663 111.356 179.075 111.847C179.497 112.339 180.108 112.606 180.907 112.648C181.557 112.682 182.081 112.565 182.48 112.297C182.889 112.03 183.155 111.654 183.276 111.169L184.523 111.234C184.307 112.077 183.889 112.712 183.269 113.139C182.659 113.567 181.853 113.755 180.852 113.702C180.074 113.662 179.406 113.461 178.848 113.101C178.291 112.73 177.874 112.228 177.598 111.594C177.322 110.95 177.207 110.201 177.252 109.349ZM181.139 106.427C179.647 106.35 178.778 107.138 178.531 108.791L183.468 109.048C183.444 108.289 183.22 107.674 182.796 107.203C182.384 106.722 181.831 106.464 181.139 106.427ZM191.815 109.291C191.856 108.514 191.689 107.939 191.313 107.567C190.948 107.195 190.441 106.992 189.791 106.959C189.162 106.926 188.625 107.101 188.177 107.483C187.73 107.855 187.491 108.35 187.458 108.968L187.198 113.905L186.015 113.843L186.436 105.854L187.619 105.916L187.553 107.162C187.865 106.719 188.262 106.388 188.743 106.167C189.236 105.936 189.722 105.833 190.201 105.858C191.064 105.903 191.759 106.207 192.284 106.768C192.81 107.33 193.047 108.111 192.994 109.112L192.726 114.193L191.56 114.132L191.815 109.291ZM198.268 113.425L198.213 114.479L197.494 114.442C197.153 114.424 196.842 114.344 196.561 114.201C196.281 114.047 196.058 113.817 195.893 113.509C195.727 113.201 195.658 112.797 195.684 112.297L195.943 107.391L194.473 107.315L194.527 106.276L195.997 106.353L196.107 104.276L197.273 104.336L197.164 106.414L198.634 106.49L198.579 107.529L197.109 107.452L196.858 112.214C196.835 112.661 196.898 112.969 197.05 113.137C197.202 113.294 197.4 113.379 197.645 113.392L198.268 113.425Z" fill="black"/>
<path d="M97.6153 120.127L97.432 123.607C97.4005 124.204 97.6748 124.517 98.2546 124.548C98.6614 124.569 98.968 124.433 99.1744 124.14C99.3894 123.847 99.5147 123.364 99.5503 122.689C99.5981 121.78 99.4663 120.988 99.1548 120.312C98.8523 119.628 98.3859 119.091 97.7555 118.703C97.1342 118.306 96.3821 118.084 95.4993 118.038C94.5992 117.991 93.815 118.133 93.1468 118.463C92.4785 118.792 91.9494 119.281 91.5594 119.929C91.1781 120.577 90.9633 121.36 90.9149 122.278C90.8666 123.195 90.9984 123.987 91.3104 124.654C91.6311 125.322 92.1025 125.846 92.7247 126.225C93.3551 126.614 94.1161 126.831 95.0075 126.878C95.7259 126.915 96.4547 126.836 97.1941 126.64L97.1489 127.497C96.4957 127.706 95.7926 127.791 95.0396 127.752C93.9664 127.696 93.043 127.431 92.2696 126.956C91.4961 126.482 90.9049 125.844 90.4959 125.041C90.096 124.231 89.9239 123.298 89.9795 122.242C90.0356 121.177 90.3053 120.258 90.7887 119.485C91.2725 118.703 91.9201 118.108 92.7314 117.699C93.5513 117.29 94.4893 117.114 95.5452 117.169C96.3241 117.209 97.027 117.376 97.6538 117.669C98.281 117.953 98.8119 118.337 99.2464 118.82C99.6896 119.303 100.016 119.866 100.225 120.511C100.443 121.147 100.532 121.842 100.493 122.594C100.443 123.529 100.215 124.238 99.8077 124.72C99.4096 125.194 98.8816 125.413 98.2238 125.379C97.2891 125.33 96.7405 124.955 96.5779 124.252C96.3783 124.58 96.1264 124.832 95.8221 125.007C95.5183 125.173 95.1759 125.246 94.7951 125.226C94.371 125.204 94.0005 125.072 93.6834 124.83C93.3751 124.588 93.1407 124.259 92.9804 123.843C92.8201 123.427 92.7541 122.95 92.7823 122.414C92.8106 121.877 92.9261 121.415 93.1288 121.026C93.332 120.629 93.5997 120.326 93.9318 120.118C94.2725 119.91 94.6549 119.817 95.079 119.839C95.4339 119.857 95.7454 119.956 96.0137 120.135C96.2907 120.314 96.5166 120.556 96.6915 120.86L96.7325 120.081L97.6153 120.127ZM93.7041 122.462C93.6731 123.05 93.7744 123.516 94.0081 123.858C94.2417 124.2 94.5879 124.383 95.0466 124.406C95.4967 124.43 95.86 124.288 96.1365 123.982C96.4135 123.666 96.5677 123.21 96.5992 122.613C96.6302 122.024 96.5245 121.559 96.2822 121.216C96.0485 120.875 95.7023 120.692 95.2436 120.668C94.7849 120.644 94.4214 120.79 94.1531 121.105C93.8848 121.421 93.7351 121.873 93.7041 122.462ZM102.011 117.375L102.959 117.425L102.758 121.242C103.014 120.821 103.339 120.5 103.733 120.277C104.126 120.055 104.574 119.956 105.076 119.983C105.647 120.012 106.138 120.181 106.547 120.489C106.956 120.788 107.264 121.199 107.471 121.722C107.687 122.236 107.777 122.831 107.741 123.506C107.706 124.181 107.554 124.768 107.284 125.266C107.024 125.764 106.674 126.145 106.235 126.409C105.796 126.672 105.29 126.789 104.719 126.759C104.217 126.733 103.782 126.589 103.414 126.327C103.046 126.064 102.757 125.711 102.546 125.266L102.48 126.512L101.532 126.463L102.011 117.375ZM106.755 123.455C106.796 122.667 106.647 122.047 106.306 121.596C105.974 121.145 105.488 120.902 104.847 120.869C104.189 120.835 103.667 121.024 103.281 121.438C102.903 121.852 102.694 122.453 102.652 123.241C102.61 124.037 102.755 124.665 103.087 125.125C103.428 125.577 103.927 125.82 104.585 125.854C105.225 125.887 105.734 125.697 106.112 125.283C106.499 124.86 106.713 124.251 106.755 123.455ZM114.191 125.261C114.15 126.049 114.178 126.671 114.275 127.127L113.301 127.076C113.233 126.726 113.202 126.329 113.208 125.887C112.945 126.272 112.603 126.576 112.184 126.797C111.773 127.018 111.316 127.116 110.814 127.09C110.191 127.057 109.686 126.849 109.298 126.464C108.919 126.08 108.744 125.606 108.774 125.044C108.802 124.516 108.988 124.105 109.334 123.81C109.679 123.516 110.147 123.367 110.737 123.363L112.562 123.328C112.84 123.325 113.037 123.279 113.155 123.189C113.281 123.092 113.35 122.935 113.362 122.719L113.363 122.693C113.385 122.286 113.242 121.94 112.936 121.655C112.631 121.361 112.248 121.203 111.79 121.179C110.734 121.124 110.126 121.548 109.965 122.45L108.966 122.398C109.044 121.734 109.34 121.216 109.855 120.843C110.378 120.472 111.033 120.306 111.82 120.347C112.322 120.373 112.763 120.5 113.141 120.728C113.529 120.948 113.826 121.241 114.032 121.608C114.248 121.966 114.344 122.366 114.32 122.808L114.191 125.261ZM109.751 125.043C109.732 125.389 109.848 125.673 110.096 125.894C110.354 126.107 110.704 126.225 111.145 126.248C111.535 126.268 111.885 126.195 112.198 126.029C112.51 125.864 112.761 125.629 112.951 125.327C113.149 125.025 113.259 124.675 113.28 124.276L113.29 124.082L111.024 124.107C110.207 124.125 109.782 124.437 109.751 125.043ZM120.19 123.491C120.224 122.859 120.088 122.392 119.783 122.09C119.486 121.788 119.074 121.623 118.546 121.596C118.035 121.569 117.598 121.711 117.235 122.022C116.871 122.324 116.677 122.726 116.65 123.228L116.439 127.24L115.478 127.19L115.82 120.699L116.781 120.749L116.728 121.761C116.981 121.401 117.303 121.132 117.694 120.953C118.095 120.765 118.49 120.682 118.879 120.702C119.58 120.739 120.145 120.985 120.572 121.441C120.999 121.897 121.191 122.532 121.148 123.346L120.931 127.474L119.983 127.425L120.19 123.491ZM127.693 125.965C127.652 126.753 127.68 127.375 127.777 127.831L126.804 127.78C126.735 127.429 126.704 127.033 126.71 126.591C126.447 126.976 126.105 127.279 125.686 127.501C125.275 127.722 124.818 127.82 124.316 127.794C123.693 127.761 123.188 127.553 122.8 127.168C122.421 126.784 122.247 126.31 122.276 125.748C122.304 125.22 122.491 124.809 122.836 124.514C123.181 124.22 123.649 124.071 124.239 124.067L126.064 124.032C126.342 124.029 126.539 123.983 126.657 123.893C126.784 123.796 126.853 123.639 126.864 123.422L126.865 123.396C126.887 122.99 126.744 122.644 126.438 122.359C126.133 122.065 125.751 121.906 125.292 121.882C124.236 121.827 123.628 122.251 123.467 123.154L122.468 123.102C122.546 122.438 122.843 121.92 123.357 121.547C123.88 121.175 124.535 121.01 125.323 121.051C125.825 121.077 126.265 121.204 126.643 121.432C127.031 121.652 127.328 121.945 127.534 122.312C127.75 122.67 127.846 123.07 127.823 123.511L127.693 125.965ZM123.253 125.747C123.234 126.093 123.35 126.376 123.598 126.598C123.856 126.811 124.206 126.929 124.647 126.952C125.037 126.972 125.388 126.899 125.7 126.733C126.013 126.567 126.264 126.333 126.453 126.031C126.651 125.728 126.761 125.378 126.782 124.98L126.792 124.785L124.526 124.811C123.709 124.829 123.285 125.141 123.253 125.747ZM129.023 124.615C129.059 123.94 129.215 123.358 129.492 122.869C129.779 122.372 130.155 121.997 130.619 121.744C131.093 121.482 131.637 121.367 132.252 121.399C132.858 121.431 133.378 121.601 133.813 121.91C134.257 122.211 134.591 122.623 134.815 123.147C135.04 123.662 135.134 124.257 135.099 124.932C135.063 125.607 134.906 126.193 134.628 126.691C134.351 127.188 133.975 127.568 133.501 127.83C133.036 128.092 132.5 128.207 131.895 128.176C131.28 128.144 130.751 127.973 130.307 127.663C129.872 127.354 129.538 126.938 129.306 126.414C129.082 125.89 128.987 125.29 129.023 124.615ZM134.112 124.881C134.154 124.093 134.004 123.473 133.663 123.022C133.331 122.571 132.845 122.328 132.204 122.295C131.547 122.261 131.025 122.45 130.638 122.864C130.261 123.278 130.051 123.879 130.01 124.667C129.968 125.463 130.112 126.091 130.444 126.551C130.785 127.003 131.284 127.246 131.942 127.28C132.582 127.313 133.091 127.123 133.469 126.709C133.856 126.286 134.07 125.677 134.112 124.881ZM136.14 127.082L137.27 127.141L137.207 128.322L136.078 128.264L136.14 127.082ZM141.611 127.693L141.566 128.55L140.982 128.519C140.705 128.505 140.452 128.439 140.224 128.323C139.996 128.199 139.815 128.011 139.681 127.761C139.546 127.511 139.49 127.183 139.511 126.776L139.721 122.791L138.527 122.729L138.571 121.885L139.766 121.947L139.855 120.259L140.802 120.309L140.713 121.996L141.908 122.059L141.863 122.902L140.669 122.84L140.465 126.709C140.446 127.072 140.498 127.322 140.621 127.459C140.744 127.587 140.906 127.656 141.105 127.666L141.611 127.693ZM142.728 125.33C142.782 124.3 143.098 123.5 143.674 122.932C144.252 122.354 145.003 122.09 145.929 122.138C146.518 122.169 147.03 122.334 147.465 122.635C147.909 122.936 148.249 123.335 148.483 123.833C148.717 124.331 148.817 124.892 148.785 125.515L148.763 125.918L143.713 125.654C143.709 126.392 143.874 126.96 144.209 127.36C144.553 127.759 145.049 127.976 145.698 128.01C146.226 128.037 146.652 127.943 146.976 127.725C147.308 127.508 147.524 127.203 147.623 126.809L148.636 126.861C148.461 127.546 148.121 128.062 147.617 128.409C147.121 128.757 146.466 128.909 145.653 128.867C145.021 128.834 144.479 128.671 144.025 128.378C143.573 128.077 143.234 127.669 143.009 127.154C142.785 126.63 142.691 126.022 142.728 125.33ZM145.886 122.956C144.675 122.893 143.968 123.533 143.767 124.876L147.779 125.085C147.759 124.468 147.577 123.968 147.233 123.586C146.898 123.195 146.449 122.985 145.886 122.956ZM149.891 125.703C149.927 125.028 150.083 124.446 150.361 123.957C150.639 123.46 151.014 123.084 151.487 122.831C151.961 122.57 152.501 122.455 153.107 122.486C153.652 122.515 154.131 122.648 154.544 122.886C154.965 123.125 155.295 123.446 155.534 123.849C155.774 124.244 155.898 124.697 155.905 125.209L154.919 125.158C154.92 124.637 154.751 124.221 154.412 123.908C154.082 123.587 153.631 123.412 153.06 123.382C152.402 123.348 151.884 123.538 151.506 123.952C151.129 124.366 150.919 124.967 150.878 125.755C150.836 126.551 150.981 127.179 151.312 127.639C151.653 128.09 152.148 128.333 152.797 128.367C153.36 128.396 153.825 128.286 154.194 128.036C154.564 127.778 154.774 127.403 154.826 126.911L155.813 126.962C155.704 127.711 155.37 128.293 154.81 128.706C154.25 129.12 153.563 129.305 152.75 129.263C152.144 129.231 151.619 129.061 151.175 128.751C150.74 128.442 150.407 128.025 150.174 127.501C149.95 126.978 149.856 126.378 149.891 125.703ZM161.648 125.652C161.681 125.02 161.545 124.553 161.24 124.251C160.943 123.949 160.531 123.784 160.003 123.757C159.493 123.73 159.051 123.872 158.679 124.182C158.316 124.485 158.121 124.887 158.095 125.389L157.883 129.4L156.936 129.351L157.414 120.263L158.362 120.313L158.172 123.922C158.434 123.562 158.761 123.293 159.152 123.114C159.544 122.926 159.939 122.842 160.337 122.863C161.029 122.899 161.589 123.145 162.016 123.601C162.452 124.058 162.649 124.693 162.606 125.507L162.388 129.635L161.44 129.586L161.648 125.652Z" fill="#6D747A"/>
</g>
<defs>
<filter id="filter0_dddddd_7980_2628" x="-1" y="-1" width="332.92" height="331.92" filterUnits="userSpaceOnUse" color-interpolation-filters="sRGB">
<feFlood flood-opacity="0" result="BackgroundImageFix"/>
<feColorMatrix in="SourceAlpha" type="matrix" values="0 0 0 0 0 0 0 0 0 0 0 0 0 0 0 0 0 0 127 0" result="hardAlpha"/>
<feOffset dy="1"/>
<feGaussianBlur stdDeviation="1.5"/>
<feComposite in2="hardAlpha" operator="out"/>
<feColorMatrix type="matrix" values="0 0 0 0 0 0 0 0 0 0 0 0 0 0 0 0 0 0 0.01 0"/>
<feBlend mode="normal" in2="BackgroundImageFix" result="effect1_dropShadow_7980_2628"/>
<feColorMatrix in="SourceAlpha" type="matrix" values="0 0 0 0 0 0 0 0 0 0 0 0 0 0 0 0 0 0 127 0" result="hardAlpha"/>
<feOffset dy="4"/>
<feGaussianBlur stdDeviation="3"/>
<feComposite in2="hardAlpha" operator="out"/>
<feColorMatrix type="matrix" values="0 0 0 0 0 0 0 0 0 0 0 0 0 0 0 0 0 0 0.01 0"/>
<feBlend mode="normal" in2="effect1_dropShadow_7980_2628" result="effect2_dropShadow_7980_2628"/>
<feColorMatrix in="SourceAlpha" type="matrix" values="0 0 0 0 0 0 0 0 0 0 0 0 0 0 0 0 0 0 127 0" result="hardAlpha"/>
<feOffset dy="10"/>
<feGaussianBlur stdDeviation="6"/>
<feComposite in2="hardAlpha" operator="out"/>
<feColorMatrix type="matrix" values="0 0 0 0 0 0 0 0 0 0 0 0 0 0 0 0 0 0 0.01 0"/>
<feBlend mode="normal" in2="effect2_dropShadow_7980_2628" result="effect3_dropShadow_7980_2628"/>
<feColorMatrix in="SourceAlpha" type="matrix" values="0 0 0 0 0 0 0 0 0 0 0 0 0 0 0 0 0 0 127 0" result="hardAlpha"/>
<feOffset dy="19"/>
<feGaussianBlur stdDeviation="12"/>
<feComposite in2="hardAlpha" operator="out"/>
<feColorMatrix type="matrix" values="0 0 0 0 0 0 0 0 0 0 0 0 0 0 0 0 0 0 0.02 0"/>
<feBlend mode="normal" in2="effect3_dropShadow_7980_2628" result="effect4_dropShadow_7980_2628"/>
<feColorMatrix in="SourceAlpha" type="matrix" values="0 0 0 0 0 0 0 0 0 0 0 0 0 0 0 0 0 0 127 0" result="hardAlpha"/>
<feOffset dy="32"/>
<feGaussianBlur stdDeviation="21.5"/>
<feComposite in2="hardAlpha" operator="out"/>
<feColorMatrix type="matrix" values="0 0 0 0 0 0 0 0 0 0 0 0 0 0 0 0 0 0 0.02 0"/>
<feBlend mode="normal" in2="effect4_dropShadow_7980_2628" result="effect5_dropShadow_7980_2628"/>
<feColorMatrix in="SourceAlpha" type="matrix" values="0 0 0 0 0 0 0 0 0 0 0 0 0 0 0 0 0 0 127 0" result="hardAlpha"/>
<feOffset dy="49"/>
<feGaussianBlur stdDeviation="37"/>
<feComposite in2="hardAlpha" operator="out"/>
<feColorMatrix type="matrix" values="0 0 0 0 0 0 0 0 0 0 0 0 0 0 0 0 0 0 0.02 0"/>
<feBlend mode="normal" in2="effect5_dropShadow_7980_2628" result="effect6_dropShadow_7980_2628"/>
<feBlend mode="normal" in="SourceGraphic" in2="effect6_dropShadow_7980_2628" result="shape"/>
</filter>
<clipPath id="clip0_7980_2628">
<rect width="48" height="48.2528" fill="white" transform="matrix(0.99985 0.018367 -0.0189317 0.999802 97.7305 38.6455)"/>
</clipPath>
</defs>
</svg>
